<svg width="227" height="103" viewBox="0 0 227 103" fill="none" xmlns="http://www.w3.org/2000/svg">
<path d="M160.921 103C158.119 103 155.853 102.368 154.122 101.105C152.405 99.8273 151.361 98.0281 150.991 95.7069L156.718 94.8417C156.951 95.8855 157.466 96.7027 158.263 97.2933C159.073 97.8839 160.097 98.1792 161.333 98.1792C162.349 98.1792 163.132 97.9869 163.681 97.6023C164.231 97.204 164.505 96.6546 164.505 95.9542C164.505 95.5147 164.396 95.1644 164.176 94.9035C163.956 94.6288 163.462 94.361 162.692 94.1C161.937 93.839 160.756 93.4957 159.149 93.0699C157.336 92.6029 155.887 92.081 154.802 91.5042C153.717 90.9273 152.934 90.2406 152.453 89.444C151.973 88.6336 151.732 87.6585 151.732 86.5185C151.732 85.0901 152.096 83.854 152.824 82.8102C153.552 81.7526 154.575 80.9423 155.894 80.3792C157.226 79.8023 158.792 79.5139 160.591 79.5139C162.335 79.5139 163.88 79.7817 165.226 80.3174C166.572 80.853 167.658 81.6153 168.482 82.6042C169.319 83.5931 169.834 84.7605 170.027 86.1065L164.299 87.1366C164.203 86.3125 163.846 85.6601 163.228 85.1794C162.61 84.6987 161.772 84.4171 160.715 84.3347C159.685 84.266 158.854 84.4034 158.222 84.7468C157.604 85.0901 157.295 85.5846 157.295 86.2301C157.295 86.6147 157.425 86.9374 157.686 87.1984C157.961 87.4593 158.517 87.7272 159.355 88.0018C160.206 88.2765 161.498 88.6336 163.228 89.0731C164.917 89.5127 166.27 90.0277 167.287 90.6183C168.317 91.1951 169.065 91.8956 169.532 92.7197C169.999 93.53 170.233 94.512 170.233 95.6657C170.233 97.9457 169.409 99.738 167.761 101.043C166.112 102.348 163.832 103 160.921 103Z" fill="#603808"/>
<path d="M149.741 102.382C148.202 102.67 146.692 102.794 145.208 102.753C143.739 102.725 142.42 102.471 141.253 101.99C140.099 101.496 139.22 100.706 138.616 99.6212C138.066 98.6049 137.778 97.5748 137.75 96.531C137.723 95.4734 137.709 94.2785 137.709 92.9462V73.9513H143.313V92.6166C143.313 93.4819 143.32 94.2648 143.333 94.9652C143.361 95.6519 143.505 96.2013 143.766 96.6134C144.261 97.3962 145.05 97.822 146.135 97.8907C147.22 97.9594 148.422 97.9044 149.741 97.7259V102.382ZM133.918 84.4583V80.1319H149.741V84.4583H133.918Z" fill="#603808"/>
<path d="M127.831 102.382V91.875C127.831 91.3668 127.803 90.7213 127.748 89.9384C127.694 89.1418 127.522 88.3452 127.233 87.5486C126.945 86.752 126.471 86.0859 125.812 85.5502C125.166 85.0146 124.246 84.7467 123.051 84.7467C122.571 84.7467 122.055 84.8223 121.506 84.9734C120.957 85.1244 120.442 85.4197 119.961 85.8592C119.48 86.285 119.082 86.9168 118.766 87.7546C118.464 88.5924 118.313 89.7049 118.313 91.0921L115.099 89.5676C115.099 87.8095 115.456 86.1614 116.17 84.6231C116.884 83.0848 117.956 81.8419 119.384 80.8942C120.826 79.9465 122.639 79.4727 124.823 79.4727C126.567 79.4727 127.989 79.768 129.088 80.3585C130.186 80.9491 131.038 81.6977 131.642 82.6041C132.26 83.5106 132.7 84.4583 132.961 85.4472C133.222 86.4223 133.38 87.3151 133.435 88.1254C133.49 88.9358 133.517 89.5264 133.517 89.8972V102.382H127.831ZM112.627 102.382V80.1319H117.612V87.5074H118.313V102.382H112.627Z" fill="#603808"/>
<path d="M103.36 77.0416V72.0972H108.964V77.0416H103.36ZM103.36 102.382V80.1319H108.964V102.382H103.36Z" fill="#603808"/>
<path d="M89.5999 103C87.3612 103 85.3972 102.499 83.7078 101.496C82.0184 100.493 80.6999 99.1131 79.7522 97.3551C78.8183 95.5833 78.3513 93.5506 78.3513 91.2569C78.3513 88.9358 78.832 86.8962 79.7934 85.1382C80.7549 83.3664 82.0803 81.9861 83.7696 80.9972C85.459 80.0083 87.4024 79.5139 89.5999 79.5139C91.8387 79.5139 93.8027 80.0152 95.4921 81.0178C97.1951 82.0204 98.5205 83.4076 99.4682 85.1794C100.416 86.9374 100.89 88.9633 100.89 91.2569C100.89 93.5643 100.409 95.6039 99.4476 97.3757C98.4999 99.1337 97.1745 100.514 95.4715 101.517C93.7821 102.506 91.8249 103 89.5999 103ZM89.5999 97.7671C91.3992 97.7671 92.7383 97.1628 93.6173 95.9542C94.51 94.7318 94.9564 93.166 94.9564 91.2569C94.9564 89.2792 94.5032 87.6997 93.5967 86.5185C92.7039 85.3373 91.3717 84.7468 89.5999 84.7468C88.3776 84.7468 87.3749 85.0214 86.5921 85.5708C85.8092 86.1202 85.2255 86.8825 84.8409 87.8576C84.4701 88.8328 84.2847 89.9659 84.2847 91.2569C84.2847 93.2485 84.731 94.8348 85.6238 96.016C86.5303 97.1834 87.8556 97.7671 89.5999 97.7671Z" fill="#603808"/>
<path d="M55.6635 102.382V72.7152H68.1894C68.4778 72.7152 68.8624 72.7289 69.3431 72.7564C69.8375 72.7701 70.277 72.8114 70.6616 72.88C72.4334 73.1547 73.8824 73.7384 75.0086 74.6312C76.1486 75.5239 76.9864 76.6502 77.522 78.0099C78.0577 79.3559 78.3255 80.8598 78.3255 82.5217C78.3255 84.1836 78.0508 85.6944 77.5014 87.0541C76.9658 88.4001 76.128 89.5195 74.988 90.4122C73.8618 91.3049 72.4196 91.8887 70.6616 92.1634C70.277 92.2183 69.8375 92.2595 69.3431 92.287C68.8486 92.3144 68.4641 92.3282 68.1894 92.3282H61.2672V102.382H55.6635ZM61.2672 87.0953H67.9422C68.2306 87.0953 68.5465 87.0816 68.8898 87.0541C69.2332 87.0266 69.5491 86.9717 69.8375 86.8893C70.5929 86.6833 71.1766 86.3399 71.5887 85.8592C72.0007 85.3647 72.2823 84.8222 72.4334 84.2316C72.5982 83.6273 72.6806 83.0573 72.6806 82.5217C72.6806 81.986 72.5982 81.4229 72.4334 80.8323C72.2823 80.228 72.0007 79.6855 71.5887 79.2048C71.1766 78.7103 70.5929 78.3601 69.8375 78.1541C69.5491 78.0717 69.2332 78.0168 68.8898 77.9893C68.5465 77.9618 68.2306 77.9481 67.9422 77.9481H61.2672V87.0953Z" fill="#603808"/>
<path d="M0 0.0150841H23.8404C27.3475 11.3659 30.8394 22.6714 34.4068 34.2258C34.5878 33.7356 34.6934 33.4867 34.7764 33.2302C38.0949 22.4904 41.4209 11.743 44.7017 0.99555C44.9355 0.226261 45.2598 0 46.0668 0C53.3072 0.0377102 60.5475 0.0226261 67.7879 0.0226261C68.1198 0.0226261 68.4516 0.0226261 68.9343 0.0226261C68.9343 0.377102 68.9343 0.693868 68.9343 1.00309C68.9343 10.4608 68.9268 19.9185 68.9569 29.3763C68.9569 30.138 68.7307 30.3718 67.9991 30.5302C63.4437 31.5257 58.8958 32.5892 54.348 33.6224C54.1745 33.6601 54.001 33.6677 53.6994 33.7054V25.2508L53.4882 25.2055C53.3977 25.4242 53.2921 25.643 53.2167 25.8692C52.3795 28.5617 51.565 31.2618 50.6901 33.9392C50.5845 34.2635 50.2074 34.6406 49.8906 34.7236C40.3122 37.2803 30.8696 40.2519 21.6834 43.9777C21.6004 44.0078 21.5175 44.0229 21.3214 44.0832C19.3981 37.8535 17.4749 31.6389 15.5517 25.4167C15.4763 25.4167 15.4009 25.4242 15.3254 25.4318C15.3254 25.7335 15.3254 26.0427 15.3254 26.3444C15.3254 32.8607 15.3179 39.377 15.3405 45.8933C15.3405 46.5721 15.1143 46.8964 14.5184 47.1755C9.99321 49.3174 5.5962 51.6856 1.56875 54.6723C1.28215 54.8835 1.01063 55.1173 0.784373 55.4039C5.5434 53.096 10.31 50.7881 15.2425 48.3898V58.8883H0V0.0150841Z" fill="#603808"/>
<path d="M53.6918 58.8732C53.6767 58.5338 53.6466 58.2698 53.6466 58.0059C53.6466 51.0068 53.6466 44.0154 53.6315 37.0163C53.6315 36.3677 53.7899 36.0585 54.4611 35.9152C59.024 34.9272 63.5719 33.8939 68.1273 32.8833C68.3535 32.8305 68.5949 32.838 68.9192 32.8003V57.4025C68.9795 57.41 69.0399 57.4251 69.1002 57.4327C69.2963 56.8218 69.4999 56.2108 69.6885 55.5999C72.117 47.7185 74.5456 39.8446 76.959 31.9556C77.1476 31.3447 77.4191 31.0506 78.0979 30.9375C83.332 30.1003 88.5587 29.2103 93.7853 28.343C93.8984 28.3279 94.0191 28.343 94.2303 28.343C93.4686 30.8319 92.737 33.2604 91.9677 35.7794H102.625C101.787 33.0341 100.958 30.2964 100.075 27.4153C105.257 26.7592 110.378 26.1181 115.612 25.4544C118.893 36.0887 122.159 46.6702 125.424 57.2516C125.485 57.2441 125.537 57.2366 125.598 57.229V42.1676C126.043 42.1676 126.39 42.1676 126.744 42.1676C136.911 42.1676 147.077 42.1676 157.244 42.1676C158.926 42.1676 159.906 40.9307 159.484 39.3845C159.22 38.4116 158.473 37.8761 157.297 37.8761C154.099 37.8686 150.901 37.8761 147.703 37.8761C144.687 37.8761 141.67 37.8158 138.653 37.8837C129.535 38.0873 123.848 30.6735 122.204 25.2809C122.174 25.1678 122.174 25.0471 122.151 24.7982C123.591 24.6474 125.009 24.4815 126.435 24.3532C133.253 23.765 140.071 23.1541 146.896 22.6337C151.829 22.2566 156.769 21.9926 161.701 21.706C162.071 21.6834 162.478 21.804 162.833 21.9473C169.085 24.391 172.932 28.9991 174.304 35.425C176.009 43.4045 173.882 50.2903 167.433 55.5924C164.718 57.8248 161.536 58.9335 157.998 58.9335C142.19 58.9411 126.382 58.9335 110.574 58.9637C109.918 58.9637 109.691 58.7148 109.533 58.1492C109.073 56.5352 108.545 54.9438 108.077 53.3298C107.934 52.8245 107.715 52.6133 107.15 52.6133C100.573 52.6359 93.9965 52.6359 87.4198 52.6133C86.8994 52.6133 86.6656 52.7868 86.5299 53.2694C86.0396 54.9362 85.5192 56.5955 85.0215 58.2623C84.8933 58.6997 84.7349 58.9637 84.1768 58.9637C74.1609 58.9411 64.1451 58.9486 54.1292 58.9411C54.0086 58.9411 53.8954 58.9109 53.6843 58.8807L53.6918 58.8732Z" fill="#603808"/>
<path d="M177.593 58.8957V42.175C178 42.175 178.354 42.175 178.701 42.175C188.868 42.175 199.027 42.175 209.194 42.175C210.845 42.175 211.803 41.0135 211.449 39.4825C211.207 38.4492 210.453 37.8836 209.246 37.8836C206.109 37.876 202.971 37.8836 199.834 37.8836C196.998 37.8836 194.162 37.8836 191.327 37.8836C182.676 37.8836 175.692 32.3176 173.776 23.9006C173.58 23.0333 173.467 22.1509 173.301 21.1855C175.066 21.1101 176.687 21.0196 178.309 20.9668C181.688 20.8687 185.059 20.7481 188.438 20.7179C189.403 20.7103 190.376 21.0799 191.349 21.0874C197.111 21.1252 202.873 21.1025 208.636 21.1025C217.075 21.1025 223.795 26.216 226.05 34.3464C228.373 42.7105 225.402 51.4366 218.606 56.173C216.095 57.9228 213.304 58.9033 210.234 58.9108C199.555 58.941 188.883 58.9259 178.203 58.9334C178.03 58.9334 177.849 58.9108 177.593 58.8882V58.8957Z" fill="#603808"/>
<path d="M121.533 22.453C120.673 15.9216 122.045 10.1519 126.586 5.30993C129.912 1.76517 133.977 -0.00721448 138.887 0.0154117C148.993 0.0606639 159.092 0.0304958 169.198 0.0304958C169.53 0.0304958 169.854 0.0304958 170.262 0.0304958V16.8115C169.877 16.8115 169.5 16.8115 169.123 16.8115C159.077 16.8115 149.038 16.8342 138.992 16.7889C137.001 16.7814 136.24 18.3275 136.669 19.6624C136.82 20.1225 137.19 20.5072 137.499 20.9898C132.242 21.4725 126.955 21.9552 121.533 22.453Z" fill="#603808"/>
<path d="M222.272 0.0677596V16.8111C221.834 16.8111 221.45 16.8111 221.072 16.8111C211.147 16.8111 201.229 16.8186 191.304 16.8036C190.15 16.8036 189.132 16.9242 188.611 18.146C188.551 18.2818 188.287 18.3874 188.114 18.3949C183.204 18.5684 178.294 18.7268 173.158 18.8927C173.309 17.5351 173.339 16.1851 173.625 14.903C175.156 8.03216 178.995 3.06195 185.828 0.723917C187.118 0.286479 188.544 0.0828437 189.909 0.0753017C200.49 0.0225074 211.079 0.0451335 221.668 0.0451335C221.842 0.0451335 222.023 0.0677596 222.279 0.0753017L222.272 0.0677596Z" fill="#603808"/>
<path d="M78.045 28.5165C79.1914 24.8058 80.285 21.2535 81.3786 17.7012C83.0982 12.1125 84.8329 6.53141 86.5298 0.942756C86.7335 0.271514 86.9824 0 87.7517 0C94.1473 0.0377102 100.535 0.0226261 106.931 0.0150841C107.421 0.0150841 107.806 -0.0150842 108.01 0.633532C110.242 7.97194 112.505 15.3028 114.767 22.6412C114.82 22.8071 114.843 22.9806 114.888 23.1465C109.948 23.7801 105.053 24.3985 100.151 25.0396C99.555 25.115 99.3061 24.9415 99.1401 24.3608C98.5971 22.4678 97.9862 20.5898 97.2395 18.6967C96.6286 20.6803 95.9649 22.6563 95.4219 24.6549C95.1881 25.5072 94.7733 25.8089 93.906 25.9446C88.9659 26.7064 84.0334 27.5435 79.1009 28.3505C78.8068 28.3958 78.5126 28.4335 78.0601 28.5014L78.045 28.5165Z" fill="#603808"/>
<path d="M21.9549 45.8631C30.9601 42.4164 40.2067 39.6032 49.7323 37.137C49.2345 38.7585 48.782 40.2367 48.3219 41.715C46.6325 47.183 44.9356 52.651 43.2688 58.1265C43.0802 58.7449 42.8238 58.9636 42.1601 58.9561C37.0013 58.9259 31.8501 58.941 26.6913 58.941C26.2162 58.941 25.8617 58.941 25.6807 58.3377C24.4664 54.2876 23.1994 50.2601 21.9549 46.2176C21.9323 46.1346 21.9549 46.0441 21.9549 45.8556V45.8631Z" fill="#603808"/>
</svg>
