<svg width="1179" height="1051" viewBox="0 0 1179 1051" fill="none" xmlns="http://www.w3.org/2000/svg">
<path d="M1166.73 192.012C1168.87 199.55 1176.75 205.224 1177.11 213.411C1167.05 214.823 1158.65 217.87 1151.82 222.49C1150.05 222.967 1150.51 221.2 1149.22 221.192C1147.38 222.376 1146.86 224.887 1144.68 225.731C1133.62 223.048 1121.19 227.594 1112.91 227.676C1108.56 231.338 1103.1 233.869 1097.34 236.114C1093.83 239.948 1089.37 242.833 1085.02 245.84C1071.7 256.077 1061.82 269.761 1049.35 280.858C1045.78 291.768 1039.07 299.541 1035.73 310.687C1027 311.895 1021.37 316.207 1013.69 318.468C1012.75 322.715 1011.86 327.02 1011.08 331.446C1001.5 329.59 1000.78 318.842 996.178 311.984C992.377 309.95 987.943 308.548 983.85 306.804C981.961 307.719 982.073 310.639 981.264 312.632C972.756 309.25 960.765 309.347 954.671 303.553C954.671 301.397 954.671 299.234 954.671 297.068C952.555 294.863 948.59 294.507 946.24 292.528C943.891 294.287 943.34 297.845 941.702 300.311C939.594 300.043 938.296 298.956 937.162 297.716C944.035 293.808 938.311 287.836 937.81 283.449C942.658 279.217 950.262 277.735 952.076 270.481C967.437 262.481 975.712 247.419 984.507 232.862C993.392 234.403 993.918 227.577 995.533 221.838C998.086 221.377 999.778 220.039 1001.37 218.596C1006.83 221.692 1009.12 216.236 1015.63 215.353C1025.47 214.031 1039.16 222.494 1042.22 212.11C1046.41 216.147 1051.46 219.3 1057.14 221.838C1058.41 216.829 1068.62 219.089 1069.46 213.408C1069.94 210.142 1068.17 210.117 1066.86 206.922C1069.65 206.525 1072.02 201.176 1068.81 200.437C1071.65 197.851 1078.14 196.279 1076.59 191.358C1082.74 189.761 1084.8 185.92 1085.68 180.335C1087.04 178.236 1092.11 179.858 1091.51 175.795C1093.46 176.226 1093.77 178.283 1096.7 177.74C1101.25 176.239 1100.04 168.977 1102.53 165.428C1100.42 159.317 1092.08 159.439 1090.21 153.1C1091.51 153.1 1092.81 153.1 1094.11 153.1C1094.75 147.475 1092.68 144.58 1092.81 139.483C1100.85 140.828 1102.82 136.086 1103.83 130.397C1106.58 131.109 1107.58 133.573 1109.67 134.935C1109.29 151.09 1122.79 153.377 1126.53 165.43C1130.42 167.911 1134.92 166.403 1138.85 167.368C1145.13 168.908 1150.88 174.089 1162.19 172.556C1166.47 178.475 1164.86 185.38 1166.73 192.012Z" fill="#F6F6F6" stroke="#666666" stroke-width="2"/>
<path d="M821.724 148.565C825.607 136.673 815.539 133.725 810.701 128.456C808.341 128.48 805.577 128.098 804.865 129.753C802.692 127.962 806.104 126.282 805.515 123.917C803.967 122.004 801.113 121.404 799.029 120.027C798.56 118.049 799.687 117.667 799.679 116.136C810.078 117.888 817.908 123.984 826.265 125.215C828.259 125.515 830.643 124.324 832.75 124.567C837.556 125.143 840.28 129.212 846.367 125.215C855.453 119.257 859.75 103.249 863.876 91.4961C864.873 88.658 867.32 85.7819 867.118 83.0654C866.851 79.4181 860.983 74.7336 861.93 70.0966C862.928 65.2088 873.093 63.6853 872.956 59.0729C871.546 54.6563 869.145 51.2103 866.471 48.0493C866.925 42.6581 869.098 39.651 869.064 35.0709C868.991 23.6579 856.023 22.8068 854.797 11.7262C858.745 12.8622 862.595 14.7979 865.83 11.7262C865.58 7.80342 865.878 4.42395 867.12 2C874.715 4.56072 880.397 9.04388 883.332 16.2663C890.359 20.2138 896.907 16.5988 904.091 19.509C912.527 22.9379 922.394 32.0885 929.379 40.9085C933.553 46.1762 945.065 56.5597 950.131 56.4875C953.925 56.4134 957.135 50.9918 959.857 50.6423C963.869 50.1313 969.583 54.2174 972.826 56.4875C977.883 59.9886 981.808 60.5888 985.155 62.3156C995.116 67.4542 997.922 81.1544 1011.08 81.7699C1011.3 84.3629 1012.87 85.6205 1013.69 87.6056C1016.22 91.6746 1019.87 89.7047 1025.36 92.1458C1030.04 94.2297 1033.51 100.852 1039.63 101.881C1042.2 102.303 1044.51 100.852 1048.06 101.224C1057.94 102.278 1074.1 111.558 1075.3 116.786C1076.66 122.776 1072.99 129.911 1068.81 132.35C1067.51 145.758 1074.25 151.122 1085.68 151.812C1085.76 152.97 1084.88 153.174 1085.03 154.405C1089.71 157.93 1093.21 162.632 1098.64 165.438C1096.55 167.034 1097 171.127 1096.05 173.859C1091.63 173.097 1090.7 168.833 1086.32 168.023C1082.91 168.396 1083.19 173.973 1085.68 175.156C1082.07 177.605 1081.98 183.57 1077.89 185.532C1076.99 182.322 1075.51 179.697 1073.35 177.751C1072.27 177.751 1071.19 177.751 1070.1 177.751C1064.55 182.55 1073.9 188.978 1072.7 193.313C1069.99 195.98 1069.63 192.04 1066.86 191.368C1060.6 192.422 1063.29 201.126 1066.21 203.689C1059.13 205.456 1065.53 210.87 1065.56 213.415C1061.17 214.996 1058.4 212.629 1055.19 216.658C1049.52 213.934 1044.94 210.117 1041.57 203.689C1037.64 204.548 1035.95 209.177 1038.34 212.767C1027.31 215.613 1015.84 208.138 1006.55 215.362C1004.19 215.784 1003.1 214.931 1002.01 214.065C995.65 216.772 990.561 220.776 989.695 228.981C987.554 230.075 985.544 229.37 983.202 228.981C973.491 243.912 965.013 260.074 948.834 268.545C947.77 274.177 942.851 275.969 938.458 278.271C938.384 265.585 926.112 265.107 920.299 258.169C913.337 260.067 916.515 272.11 907.98 272.435C905.102 277.996 906.65 287.974 900.197 289.944C897.07 288.964 895.917 286.014 893.713 284.116C890.82 283.622 889.069 287.65 887.868 286.702C887.27 282.762 884.861 280.638 883.978 276.974C888.225 272.929 888.25 268.22 891.128 262.707C892.384 260.276 897.036 257.39 896.956 253.629C896.882 250.646 888.339 242.402 885.283 240.012C881.432 236.99 867.798 234.767 867.118 229.629C866.623 225.909 871.771 223.898 873.602 221.848C876.869 218.208 878.571 211.172 882.033 208.231C881.223 204.485 879.552 200.433 880.735 196.558C877.696 194.67 873.855 190.234 870.361 192.667C871.86 187.69 868.763 183.507 865.829 180.994C850.46 188.541 839.551 165.951 825.617 168.025C826.215 159.636 824.92 153.153 821.724 148.565Z" fill="#F6F6F6" stroke="#666666" stroke-width="2"/>
<path d="M1073.99 411.856C1072.09 413.833 1070.57 416.216 1069.45 418.997C1070.94 420.106 1073.25 420.381 1075.94 420.294C1060.32 433.426 1041.23 443.08 1027.3 457.905C1025.79 458.116 1024.62 458.684 1023.41 459.203C1023.87 465.939 1013.43 469.504 1018.23 478.657C1016.88 480.555 1016.9 483.812 1013.69 483.845C1014.53 487.817 1016.39 488.651 1015.63 494.219C1018.83 492.817 1023.01 494.226 1023.41 489.038C1026.22 493.375 1022.22 494.276 1022.76 499.407C1015.98 501.198 1007.91 494.859 999.419 494.219C998.487 491.261 996.946 488.909 996.826 485.14C987.471 481.282 978.662 490.678 972.824 491.626C962.555 493.313 958.421 485.855 952.073 480.602C940.173 480.391 929.353 479.111 920.297 476.064C915.257 470.317 911.293 456.294 917.704 450.124C916.657 443.608 914.009 438.686 913.164 431.967C917.94 431.546 920.898 429.325 925.485 428.725C927.083 425.353 928.817 422.11 930.681 418.999C936.986 413.203 952.014 416.128 955.313 407.318C963.501 411.54 974.42 409.012 983.846 411.858C982.121 394.227 1004.08 387.436 1011.74 400.834C1014.76 400.397 1016.13 398.313 1018.87 397.591C1021.52 409.838 1041.95 401.41 1046.11 395.646C1055.45 394.09 1059.01 398.306 1065.56 399.537C1065.09 401.522 1066.68 401.45 1066.21 403.427C1067.67 405.154 1069.46 402.511 1070.75 404.077C1072.49 406.011 1072.74 409.439 1073.99 411.856Z" fill="#F6F6F6" stroke="#666666" stroke-width="2"/>
<path d="M1066.21 396.292C1062.26 397.225 1062.39 394.064 1060.38 393.059C1056.42 391.819 1049.47 393.578 1046.76 391.106C1043.19 392.394 1042.18 396.051 1038.97 397.592C1036.92 398.596 1028.47 401.393 1026.01 400.834C1021.98 399.934 1019.08 388.975 1013.04 396.944C1007.92 393.418 1004.89 387.793 994.232 389.811C995.611 370.909 966.366 369.87 956.614 379.437C952.651 378.211 948.977 376.697 944.94 375.546C942.015 376.94 940.166 379.421 936.517 380.086C936.154 378.295 933.656 379.454 932.619 378.141C930.617 375.611 934.118 378.133 933.917 375.546C933.869 374.953 928.518 368.405 928.714 368.405C927.319 367.579 925.518 367.83 922.895 367.765C923.957 354.35 925.163 341.073 932.621 334.047C929.922 331.469 929.954 327.628 927.433 323.663C925.969 321.368 921.468 319.4 921.597 316.53C921.955 308.546 938.985 315.882 937.809 302.913C940.094 303.003 940.71 304.769 942.997 304.858C944.657 302.63 945.955 300.035 946.887 297.078C948.177 297.953 949.976 298.318 951.428 299.023C951.428 301.188 951.428 303.352 951.428 305.508C958.057 313.152 973.004 312.472 982.563 317.181C984.451 316.266 984.337 313.348 985.156 311.346C1000.56 313.445 996.001 335.517 1013.04 335.996C1014.9 332.006 1015.89 327.168 1016.28 321.722C1022.69 319.282 1027.78 315.504 1035.74 314.588C1036.2 317.66 1035.35 319.404 1033.14 319.776C1043.92 341.645 1051.9 366.312 1065.56 385.278C1065.09 389.645 1066.61 392.005 1066.21 396.292Z" fill="#F6F6F6" stroke="#666666" stroke-width="2"/>
<path d="M818.485 139.487C816.351 146.968 820.688 152.042 821.725 156.346C823.072 161.924 820.47 168.059 824.318 172.558C839.8 168.618 849.551 192.498 864.524 184.879C868.284 188.291 865.748 194.337 868.415 199.145C871.819 197.491 872.581 196.195 876.845 197.857C877.738 206.132 877.533 211.288 871.659 218.599C867.63 223.626 859.751 226.008 865.174 233.521C868.458 238.052 876.084 237.518 882.683 242.6C886.484 245.517 888.454 250.137 893.066 252.973C888.519 260.747 884.784 269.331 880.09 276.966C883.194 282.08 882.879 290.607 889.176 292.528C891.672 292.431 890.749 288.922 892.419 287.99C894.413 289.887 895.887 292.302 898.254 293.825C907.162 292.796 909.295 284.982 909.928 275.669C915.917 274.096 917.806 268.414 919.654 262.7C925.467 264.879 927.929 270.424 933.92 272.426C936.181 278.075 930.678 286.846 937.163 291.23C937.228 294.108 933.799 293.485 933.271 295.771C935.193 300.284 934.22 304.591 931.973 308.092C929.462 308.441 929.298 306.437 927.433 306.146C924.103 310.702 917.942 309.98 917.707 315.873C917.511 320.679 922.051 320.996 924.84 325.608C926.827 328.893 924.84 332.734 928.732 333.391C925.942 335.141 925.182 338.912 924.192 342.47C921.086 342.973 918.151 337.874 913.816 336.634C910.46 335.678 905.961 336.708 902.143 335.336C898.853 334.153 895.903 330.141 891.127 330.796C887.586 331.275 878.88 337.89 879.438 343.765C875.766 344.77 875.59 341.674 874.252 339.225C871.205 333.625 870.499 331.022 875.55 325.608C876.49 324.596 879.197 324.214 880.09 323.006C883.631 318.222 882.951 312.801 885.286 309.389C875.833 305.449 869.463 317.786 859.338 315.225C853.009 317.542 848.501 321.686 845.722 327.554C834.747 328.566 827.677 324.936 818.486 323.006C818.258 319.78 817.293 317.284 815.891 315.225C813.338 315.063 813.477 317.575 810.705 317.17C810.065 313.054 807.058 311.302 804.87 308.739C799.851 306.941 798.191 311.625 794.486 313.28C790.035 315.282 784.654 314.188 783.47 319.115C777.819 318.929 775.072 315.831 770.492 314.575C765.857 316.642 765.938 323.418 761.415 325.606C754.833 324.334 751.672 316.682 747.149 311.98C745.534 310.31 742.681 309.549 741.313 307.442C739.966 305.383 740.137 302.311 738.718 300.309C736.118 296.644 730.387 295.258 725.102 292.526C722.71 291.295 721.859 287.72 717.969 289.933C715.837 284.04 721.81 278.959 727.047 280.205C728.409 275.513 731.131 272.188 731.585 266.588C729.365 263.403 726.238 261.125 725.75 256.214C723.635 254.438 719.557 254.617 717.313 252.972C730.17 255.453 733.208 233.284 722.509 228.971C721.227 226.929 724.623 225.242 724.452 222.486C724.226 218.822 719.849 217.452 717.311 213.408C715.277 210.157 716.299 206.786 714.726 203.682C711.369 197.075 705.251 199.571 700.452 197.853C700.346 196.005 699.268 195.146 699.162 193.306C701.018 190.842 705.142 190.648 705.646 186.82C704.762 184.89 702.713 184.128 701.098 182.93C702.088 178.941 702.152 174.028 703.7 170.609C705.328 171.785 705.541 174.385 707.591 175.147C710.97 173.34 714.473 171.653 716.021 168.014C720.003 171.467 725.902 172.82 730.938 169.311C737.681 156.965 743.646 140.52 730.288 135.583C726.196 134.077 720.343 136.077 715.374 134.935C712.575 134.295 711.759 132.074 708.888 130.397C709.384 122.988 705.727 119.721 704.998 113.538C706.983 113.367 707.906 112.136 709.538 111.6C711.337 102.278 717.79 101.281 725.748 96.6783C730.67 93.8327 734.583 87.6417 740.016 87.5999C744.604 87.5752 758.156 95.6164 762.711 97.9758C769.973 101.745 776.692 106.746 782.163 110.945C799.178 113.433 805.483 96.8721 822.377 99.2713C821.364 106.169 814.125 109.866 815.891 117.428C810.185 115.565 804.188 113.999 799.032 111.6C796.268 113.295 794.437 118.927 795.789 122.616C797.256 123.961 800.079 123.946 801.625 125.211C797.598 130.131 803.724 136.542 808.111 131.696C811.942 133.927 814.788 137.137 818.485 139.487Z" fill="#F6F6F6" stroke="#666666" stroke-width="2"/>
<path d="M826.916 358.033C822.863 355.222 818.446 355.123 816.54 351.548C814.037 351.677 811.765 351.573 810.055 350.9C809.124 345.089 812.293 343.013 811.353 339.227C809.953 333.602 799.389 333.173 801.626 323.655C805.16 320.616 810.593 321.849 813.947 319.765C815.009 322.164 815.163 325.472 817.188 326.906C826.996 326.824 837.201 335.133 847.018 330.796C852.537 328.348 852.985 319.619 859.338 319.117C867.842 320.69 872.584 314.091 880.089 312.632C877.527 321.095 870.889 325.479 866.471 332.094C870.979 337.103 870.468 349.586 879.44 347.665C884.32 346.603 880.591 343.75 883.98 339.227C884.565 338.45 890.87 334.793 891.77 334.689C894.988 334.307 898.109 338.068 902.146 339.227C910.463 341.611 916.656 339.244 920.951 345.712C921.543 352.004 919.67 361.244 919.653 369.057C920.561 371.692 923.177 371.992 926.137 371.002C927.96 376.369 930.303 383.373 937.162 383.323C940.574 383.308 942.219 380.916 945.593 379.433C959.941 387.345 966.886 372.851 984.507 378.135C988.553 382.487 992.67 385.527 990.992 391.104C989.363 396.503 978.421 398.456 981.264 407.316C971.223 406.311 961.681 406.546 953.372 402.776C951.938 403.716 952.481 406.643 951.429 407.964C940.413 412.08 925.685 412.479 923.544 425.48C920.14 426.396 916.483 427.061 913.818 428.723C913.704 421.483 910.664 417.188 907.332 413.152C890.969 408.393 887.029 424.103 876.847 425.48C875.502 423.146 876.514 418.461 876.199 415.097C872.371 413.095 866.267 413.362 861.283 412.504C863.374 411.353 867.168 411.903 869.713 411.206C873.75 408.839 870.646 406.165 870.363 402.128C869.981 396.697 875.331 392.442 870.363 389.159C867.557 389.159 864.746 389.159 861.933 389.159C860.702 387.377 860.109 384.936 858.042 383.971C854.087 383.47 851.98 384.822 848.316 384.621C844.676 379.15 849.938 372.794 850.909 367.761C846.944 362.695 839.471 366.221 834.05 364.519C830.74 363.48 829.526 359.84 826.916 358.033Z" fill="#F6F6F6" stroke="#666666" stroke-width="2"/>
<path d="M819.781 478.005C808.473 476.693 802.352 485.463 800.327 495.514C795.796 497.241 789.353 499.834 791.241 505.888C785.607 504.397 778.798 504.072 775.679 500.053C768.806 497.946 766.665 503.992 762.06 501.998C758.219 506.804 752.764 509.982 746.499 512.381C745.575 512.235 747.097 509.146 746.499 507.186C742.032 504.705 738.1 508.136 733.53 509.131C733.098 505.248 735.644 504.332 734.827 500.053C741.928 500.296 743.687 491.267 739.367 489.679C735.703 488.341 730.063 494.169 723.156 492.921C717.685 491.932 717.24 488.617 713.43 487.086C705.932 486.291 702.009 489.08 694.617 488.383C689.914 483.081 682.627 481.567 675.813 478.009C666.645 473.226 659.559 463.638 647.928 461.15C641.631 459.797 635.704 460.954 631.716 455.314C632.845 450.175 636.904 447.97 639.499 444.29C645.253 445.449 651.463 446.154 655.711 448.829C659.276 449.355 658.475 445.538 660.897 444.938C668.881 446.576 678.615 445.725 679.054 437.805C683.787 437.302 689.315 441.031 692.022 438.453C697.009 442.157 703.629 447.548 701.758 455.96C708.299 457.987 716.674 464.39 723.158 460.5C729.197 464.309 736.841 464.018 743.26 466.336C746.187 466.45 746.366 463.815 747.8 462.445C751.683 462.024 751.854 465.316 755.583 465.04C760.17 462.924 761.686 457.736 765.959 455.312C770.918 455.426 772.928 456.051 776.982 457.907C783.671 455.945 789.237 452.865 796.427 451.422C800.35 444.085 810.921 443.422 812.006 433.265C817.089 434.974 821.295 431.133 822.382 426.779C829.88 427.477 834.15 423.415 841.186 428.077C847.022 426.553 849.186 421.373 850.265 415.099C858.2 415.382 865.09 416.711 872.31 417.701C872.31 420.507 872.31 423.318 872.31 426.132C873.454 428.66 877.15 428.645 879.443 430.022C888.4 425.913 891.417 414.208 904.741 416.396C912.311 422.874 908.244 441.006 914.467 448.827C907.991 454.826 910.854 470.866 916.412 476.062C906.857 479.741 900.079 470.68 887.224 473.467C881.858 469.326 876.014 465.661 869.066 463.093C865.363 481.972 872.189 489.209 879.441 500.702C882.637 505.761 885.87 511.418 889.177 515.624C898.985 528.116 916.015 540.266 905.389 559.071C902.357 559.071 899.333 559.071 896.31 559.071C896.31 557.555 896.31 556.056 896.31 554.531C892.42 554.531 888.527 554.531 884.631 554.531C890.606 551.588 887.906 543.564 883.334 540.914C880.779 539.713 879.97 543.514 878.794 541.562C875.179 539.13 879.327 537.096 880.737 534.428C880.462 533.198 879.345 532.8 879.44 531.186C877.941 529.451 874.472 531.632 873.604 530.538C869.309 519.919 860.846 513.468 852.854 506.536C854.296 506.496 855.779 503.139 856.744 500.7C855.464 494.418 850.405 491.914 847.666 487.084C845.09 486.662 845.056 488.803 842.48 488.381C842.659 484.094 838.242 484.409 834.049 484.491C834.807 476.134 822.724 467.55 819.781 478.005Z" fill="#F6F6F6" stroke="#666666" stroke-width="2"/>
<path d="M837.937 542.211C828.583 540.525 823.175 539.026 816.538 543.509C810.921 547.293 808.4 555.148 799.029 548.704C793.972 552.937 793.161 561.43 784.755 562.321C785.929 579.709 783.619 593.603 770.487 596.682C766.117 611.839 771.889 627.954 775.027 641.441C750.111 652.837 726.789 665.823 706.938 682.286C687.955 676.621 704.994 656.169 703.697 642.731C702.928 634.802 695.996 634.584 693.321 627.815C689.649 626.939 686.568 625.481 682.288 625.222C678.762 619.24 674.385 614.102 665.429 613.549C661.352 608.15 662.422 600.263 663.483 592.14C667.091 592.318 669.944 588.817 673.859 588.249C679.891 587.374 686.716 591.175 693.961 590.85C698.217 590.664 702.829 587.463 707.587 586.952C713.383 586.327 719.318 588.322 723.149 587.6C728.288 586.635 731.848 582.057 736.118 579.819C749.826 582.072 755.166 575.961 761.408 570.74C757.436 560.543 750.595 552.405 737.414 553.231C736.629 548.87 744.467 547.825 747.142 544.808C745.763 540.553 743.971 536.727 741.954 533.135C726.935 529.237 717.751 543.456 704.343 537.018C702.707 521.114 720.562 524.706 731.578 521.456C731.92 518.335 732.965 515.92 733.523 513.018C736.555 512.167 739.424 511.137 741.954 509.775C743.12 511.209 742.522 514.404 743.251 516.268C750.717 513.998 759.577 513.132 762.056 505.885C767.333 507.562 769.506 503.436 773.729 503.292C777.411 508.269 785.507 508.812 793.831 509.127C796.191 507.716 795.955 504.807 794.481 502.642C801.969 500.186 805.894 494.171 807.457 485.782C809.859 484.299 812.807 483.359 815.24 481.892C814.972 483.457 816.424 483.303 815.888 485.135C821.165 484.316 825.299 482.054 824.319 476.704C832.749 476.704 826.955 490.929 837.937 488.376C839.786 488.693 839.801 490.839 840.54 492.266C847.842 490.264 851.159 495.226 852.851 500.697C848.482 499.781 847.964 502.724 845.718 503.939C853.038 511.112 860.535 518.101 867.764 525.346C869.046 529.894 870.609 536.176 876.194 534.425C875.577 536.184 873.867 536.849 872.952 538.317C873.284 542.094 876.219 543.268 877.492 546.098C880.694 547.128 881.891 544.21 883.327 545.458C883.417 546.659 883.757 547.614 884.625 548.043C884.585 552.105 879.251 550.887 880.732 556.48C872.545 558.765 861.903 559.018 853.497 556.48C846.303 554.299 842.453 545.486 837.937 542.211Z" fill="#F6F6F6" stroke="#666666" stroke-width="2"/>
<path d="M872.954 485.138C872.565 479.699 872.031 474.39 872.305 468.279C877.889 470.693 882.365 474.221 887.221 477.357C896.818 474.358 904.34 481.022 911.223 481.248C913.679 481.329 916.029 479.392 918.356 479.302C927.109 478.962 937.59 485.982 950.777 483.843C956.198 489.671 961.979 495.125 972.824 495.516C979.074 492.241 984.116 487.792 994.231 488.383C994.621 491.667 995.876 494.082 996.826 496.813C1000.1 497.868 1002.95 499.327 1007.2 499.406C1004.79 502.649 1005.66 507.544 1007.85 511.08C997.069 519.315 982.503 521.649 974.771 532.489C968.474 541.314 966.185 552.315 957.262 559.074C956.508 558.531 955.528 558.216 954.02 558.426C952.35 563.928 948.824 569.425 946.886 572.7C938.86 573.316 931.761 564.255 921.596 568.8C917.205 565.843 914.463 561.246 909.277 559.074C919.336 537.87 901.472 525.678 890.473 511.08C883.573 501.935 878.879 492.135 872.954 485.138Z" fill="#F6F6F6" stroke="#666666" stroke-width="2"/>
<path d="M831.453 421.59C826.506 424.703 818.313 422.23 816.537 429.371C815.46 430.457 812.726 429.882 810.701 430.018C806.568 434.735 805.692 442.736 797.732 443.635C795.82 444.317 795.472 446.57 794.482 448.175C787.818 450.525 781.675 450.761 777.621 454.661C774.048 451.182 769.848 452.278 764.012 451.418C761.466 455.154 758.045 458.008 754.926 461.144C751.799 460.593 750.769 457.951 746.495 458.551C744.014 458.445 744.389 461.201 743.253 462.441C734.07 462.637 725.778 454.189 718.62 458.551C715.052 456.492 710.41 455.512 705.642 454.661C706.646 445.614 698.905 439.82 693.962 434.558C694.002 429.549 694.304 424.272 692.665 420.942C695.258 421.371 697.116 422.547 699.158 423.535C706.914 414.546 700.649 401.187 704.344 390.454C705.681 388.988 708.138 388.638 710.18 387.861C712.142 374.057 713.827 362.078 708.236 351.548C705.034 345.526 698.379 344.253 701.094 336.634C706.629 335.249 709.752 331.453 714.072 328.853C714.695 324.93 715.392 321.096 716.015 317.172C725.776 314.757 730.232 313.418 738.063 311.336C745.268 309.423 751.526 331.18 762.705 328.853C766.992 327.952 768.354 322.838 770.486 318.469C776.306 321.397 786.868 326.463 789.3 317.172C794.729 317.423 798.24 315.745 800.324 312.634C803.314 313.534 806.864 313.874 806.809 317.82C792.339 318.956 799.093 336.877 807.457 339.876C805.519 347.836 805.107 356.986 815.887 355.438C824.658 362.353 831.459 369.615 846.365 369.055C844.395 375.297 840.854 383.507 846.365 388.509C850.258 388.939 852.697 387.926 856.091 387.861C858.386 388.809 858.823 391.623 860.632 393.057C862.892 391.598 867.296 392.611 869.062 393.697C867.824 397.645 865.918 403.334 868.414 407.314C861.063 408.82 853.565 410.192 847.015 412.502C846.707 417.819 845.102 421.84 841.827 424.19C837.954 423.731 835.326 422.036 831.453 421.59Z" fill="#F6F6F6" stroke="#666666" stroke-width="2"/>
<path d="M874.898 604.465C838.741 611.978 806.365 623.269 778.271 638.841C775.418 627.281 770.215 613.131 773.731 599.277C785.97 595.314 789.27 582.393 787.997 564.908C795.147 564.057 795.567 556.485 800.326 553.235C816.917 558.732 817.567 537.867 834.694 545.462C841.478 548.469 843.448 555.009 850.906 559.72C860.438 558.9 869.023 563.269 877.493 561.673C882.622 560.691 886.458 556.185 891.767 557.773C893.382 558.85 892.229 561.299 894.36 562.959C907.986 560.786 914.253 565.983 919.65 572.038C934.101 567.984 938.82 579.389 950.776 575.928C940.67 579.667 930.567 583.396 922.893 589.554C921.968 589.41 922.665 587.617 921.594 587.601C919.787 588.827 918.303 590.375 917.055 592.142C903.365 595.474 893.257 602.299 877.491 601.877C875.143 601.252 876.958 604.787 874.898 604.465Z" fill="#F6F6F6" stroke="#666666" stroke-width="2"/>
<path d="M748.442 576.58C736.608 572.106 730.284 582.871 722.505 584.37C718.096 585.204 712.397 583.033 706.941 583.713C702.557 584.273 697.895 587.385 693.964 587.603C687.489 587.976 681.108 583.892 675.16 584.37C669.778 584.807 665.377 589.29 660.244 590.206C660.27 595.208 658.802 598.701 658.946 603.815C652.925 603.222 654.855 598.344 653.76 593.439C652.868 591.501 649.066 592.087 647.275 592.791C651.175 587.182 647.664 576.175 643.384 572.697C640.702 571.781 638.375 574.538 636.901 572.697C633.522 569.245 635.14 567.209 633.009 563.611C630.577 559.517 623.752 557.751 623.282 553.885C622.851 550.399 628.818 545.665 629.118 538.976C629.314 534.47 627.887 531.642 629.118 526C626.347 521.849 618.702 522.571 616.807 517.569C606.349 522.149 608.693 510.314 601.228 509.131C588.46 507.129 587.765 547.787 574.64 526.648C573.593 524.953 571.236 521.71 570.75 520.172C568.278 512.212 572.759 507.153 570.102 499.405C568.197 497.623 560.44 498.278 560.376 496.812C559.865 495.41 563.852 492.961 564.266 490.326C565.003 487.424 560.87 487.433 562.969 485.138C569.162 484.263 574.52 482.536 581.773 479.951C595.018 484.27 600.369 477.616 599.93 465.684C602.506 463.933 604.227 461.33 605.116 457.903C614.641 458.561 616.805 451.857 620.038 446.23C627.885 453.849 629.506 462.749 644.68 464.387C656.912 465.707 664.97 476.877 675.158 481.894C682.147 485.332 689.318 487.464 693.963 492.27C700.959 493.178 705.7 489.984 711.479 490.972C719.86 492.414 726.5 502.021 738.067 493.565C737.888 497.285 732.603 495.892 731.581 498.753C730.041 504.728 730.196 510.943 728.988 518.215C720.024 520.922 707.34 519.91 702.403 526.646C701.552 530.553 701.202 534.962 699.808 538.319C711.392 548.953 725.958 535.263 739.364 536.374C740.831 538.15 741.714 540.5 742.607 542.857C740.168 546.693 735.044 547.834 731.581 550.648C733.561 552.764 734.216 556.225 736.769 557.773C747.947 555.245 753.045 562.078 756.862 568.797C755.226 572.56 751.06 573.791 748.442 576.58Z" fill="#F6F6F6" stroke="#666666" stroke-width="2"/>
<path d="M725.098 245.842C723.624 246.743 722.585 248.08 721.207 249.085C717.558 249.189 715.191 246.71 712.784 249.085C711.487 254.945 717.735 257.612 723.151 258.811C723.346 262.937 725.599 265.011 727.691 267.242C727.294 279.206 708.238 278.565 714.722 293.181C725.601 294.843 735.196 297.777 737.417 308.095C729.45 310.721 719.657 311.524 712.784 315.229C712.744 326.438 707.004 331.942 697.853 334.043C692.673 344.037 702.304 346.59 705.644 353.497C710.353 363.255 708.368 372.974 706.941 385.272C693.163 389.917 703.512 407.945 697.855 419C694.331 417.557 691.071 415.839 686.831 415.1C689.092 422.04 691.427 426.424 690.074 435.86C684.82 434.726 680.137 434.636 675.808 433.922C675.135 436.694 674.542 439.564 673.213 441.696C665.57 442.619 656.939 438.802 655.706 445.586C652.868 441.071 644.154 442.44 638.844 440.398C635.683 443.949 630.959 445.909 629.768 451.422C626.55 445.343 620.608 441.986 616.149 437.155C603.407 435.835 589.74 435.453 581.773 429.374C577.144 422.541 572.866 415.361 562.319 414.453C557.35 407.538 545.929 407.069 535.732 405.374C534.144 403.072 531.792 401.539 530.544 398.889C532.538 387.119 526.239 380.497 516.277 378.787C514.737 367.374 526.8 362.211 541.567 363.223C544.016 359.422 545.783 352.142 544.81 347.012C552.804 345.496 556.734 339.911 562.319 335.988C566.502 337.642 571.569 338.412 575.936 339.878C581.95 335.103 591.435 335.46 597.335 339.878C603.196 336.993 597.472 331.966 594.74 330.15C594.305 324.518 597.067 322.101 597.983 317.822C600.23 317.742 601.047 319.094 602.523 319.767C604.761 319.199 605.952 317.578 607.063 315.876C612.236 320.506 620.365 326.761 625.228 319.767C625.218 317.837 625.283 315.819 623.282 315.876C629.865 313.405 636.567 320.869 645.33 320.416C647.039 320.618 647.454 319.526 647.273 317.822C649.682 317.578 648.97 320.456 651.813 319.767C657.885 317.643 653.16 310.574 656.363 307.446C654.807 302.079 652.942 297.03 647.925 295.125C649.707 291.72 652.301 289.126 655.708 287.344C660.424 290.488 670.078 288.892 670.622 284.109C670.929 281.424 666.803 280.533 665.436 276.968C664.051 273.36 665.453 268.051 664.786 265.294C663.83 261.322 659.064 259.069 660.895 255.568C664.843 252.641 667.535 253.502 673.215 254.271C678.055 250.576 682.933 250.931 690.724 250.38C700.737 244.837 710.106 227.028 697.857 217.3C695.914 217.3 693.966 217.3 692.021 217.3C694.624 211.683 700.891 209.737 701.757 202.386C704.481 203.691 708.332 202.19 710.187 203.034C712.093 210.856 715.083 217.593 720.563 221.838C721.148 225.024 717.839 224.31 717.97 227.024C720.575 234.275 726.631 235.571 725.098 245.842Z" fill="#F6F6F6" stroke="#666666" stroke-width="2"/>
<path d="M492.925 633.003C492.31 628.651 489.789 626.202 489.035 621.987C491.628 622.19 492.634 620.821 495.526 621.33C495.866 618.615 494.392 617.717 494.221 615.494C496.54 614.563 498.535 613.315 500.056 611.604C500.163 609.554 500.081 607.688 498.759 607.063C506.217 603.652 517.166 605.046 520.823 596.688C522.939 601.049 527.907 604.066 535.082 606.416C542.126 608.709 545.409 616.393 551.941 610.956C551.78 600.069 551.869 593.335 555.184 584.368C552.468 579.448 546.13 581.766 540.918 580.468C536.564 579.391 532.958 573.742 528.597 576.578C528.061 565.457 544.622 571.422 546.113 562.319C545.327 560.277 543.478 559.321 542.215 557.771C543.942 549.989 549.835 546.366 549.348 536.372C553.036 538.739 555.8 542.021 559.722 544.162C561.871 543.708 562.682 541.925 563.613 540.262C565.873 541.949 569.278 543.009 572.051 540.912C573.421 539.048 574.369 536.746 576.582 535.724C590.005 537.597 593.287 524.547 596.684 514.317C597.656 513.563 599.341 513.513 599.926 512.379C603.532 514.828 605.698 518.726 609.012 521.458C617.848 519.748 618.311 526.42 625.224 526.646C623.934 532.385 625.961 535.384 625.224 540.262C624.006 548.271 615.431 552 622.639 559.717C624.12 561.322 627.055 561.516 628.465 562.957C632.332 566.954 630.021 573.44 635.6 576.576C637.359 576.179 640.746 577.404 641.434 575.926C646.192 579.923 645.778 588.776 642.733 594.085C644.086 596.135 648.464 596.606 651.164 595.39C651.544 597.717 650.409 598.519 649.866 599.923C652.015 606.431 660.808 606.277 661.539 614.197C663.751 617.829 669.41 618 673.859 619.385C677.208 625.325 681.252 630.579 690.718 630.408C692.641 636.05 698.647 636.375 699.804 642.081C701.62 651.031 692.023 664.275 693.961 673.857C694.926 678.633 698.816 681.233 703.696 684.88C695.03 692.865 683.545 698.028 679.045 710.178C654.201 721.211 638.29 741.182 621.332 760.118C623.448 762.143 621.212 765.482 620.034 767.891C613.687 759.763 610.65 748.315 599.925 744.546C603.773 742.172 600.654 740.477 603.815 737.413C603.346 733.126 598.441 733.28 593.439 733.523C591.762 735.291 590.424 737.413 590.196 740.664C585.852 741.564 582.803 743.445 578.523 741.306C573.822 746.345 582.721 749.119 584.359 753.632C587.537 754.217 587.406 751.486 590.844 752.335C591.315 754.322 590.187 754.702 590.196 756.218C587.522 756.3 586.135 755.091 583.063 755.57C579.254 756.664 583.006 761.527 580.47 763.351C578.704 759.728 577.885 755.133 575.282 752.335C573.312 753.169 573.766 756.429 570.094 755.57C570.831 745.971 568.432 739.505 566.212 732.883C552.984 730.896 548.687 737.833 542.211 742.609C540.078 740.194 539.155 736.577 538.321 732.883C546.921 730.02 550.399 722.038 555.18 715.366C552.012 711.833 549.392 707.745 543.507 706.935C539.624 703.645 539.73 697.557 537.671 691.373C536.414 687.589 532.727 684.257 531.836 679.694C530.483 672.821 534.041 665.939 530.538 660.89C528.31 657.687 523.867 657.486 521.46 655.054C517.706 658.855 515.016 667.698 507.186 663.492C505.216 658.466 507.372 658.255 508.483 653.757C507.21 647.475 501.747 645.368 498.107 641.445C498.561 638.219 501.569 637.545 500.7 633.007C499.644 630.078 494.247 630.906 492.925 633.003Z" fill="#F6F6F6" stroke="#666666" stroke-width="2"/>
<path d="M728.988 166.722C724.165 169.664 720.411 166.462 717.309 164.129C712.917 164.704 712.226 168.984 708.886 170.614C706.375 169.664 705.773 166.813 704.346 164.778C698.584 167.227 699.369 176.231 697.205 182.295C697.804 184.937 700.017 185.967 701.096 188.131C698.431 188.471 696.257 189.329 695.26 191.366C695.705 197.234 695.478 201.481 695.91 208.225C692.863 210.592 688.913 212.051 688.127 216.656C683.256 213.696 675.052 216.396 670.618 217.953C669.564 212.522 666.581 209.021 666.727 202.391C663.956 198.427 651.87 196.814 649.218 200.446C646.884 200.625 646.09 199.255 644.032 199.149C636.728 204.093 629.352 202.513 619.39 202.391C615.524 204.069 618.304 208.706 616.805 212.118C615.711 212.118 614.632 212.118 613.554 212.118C611.317 207.384 608.528 198.313 604.468 193.313C601.494 192.715 601.34 194.935 598.633 194.61C598.243 181.269 585.987 180.337 574.64 182.299C573.117 176.034 569.695 171.672 564.912 168.673C564.297 165.253 566.892 165.025 568.155 163.487C564.986 158.445 565.438 149.771 559.076 147.923C560.609 145.993 564.249 146.173 565.562 144.032C564.014 141.122 565.879 138.497 565.562 134.946C565.457 131.632 561.55 133.115 561.671 131.056C561.274 128.113 563.267 124.717 564.914 121.978C564.356 118.306 560.927 116.717 562.969 112.251C562.912 109.721 560.351 109.689 559.078 108.361C561.016 91.9232 549.911 77.503 535.734 90.2041C534.29 91.5015 533.65 94.6454 531.843 96.0493C530.677 96.9402 528.942 96.4463 527.953 97.3372C523.454 101.382 518.641 106.902 509.788 105.768C507.714 114.757 511.483 134.145 501.358 134.308C498.301 134.348 500.003 132.331 496.817 130.41C493.081 128.165 488.387 128.058 486.442 123.925C478.953 127.466 472.605 132.135 471.528 142.089C467.272 141.627 467.994 137.923 464.394 138.191C459.328 138.58 459.06 148.719 453.371 149.87C451.676 142.268 437.67 138.345 432.621 145.332C425.041 137.558 420.089 127.158 420.948 110.956C426.751 105.969 431.624 96.8034 424.19 90.2041C425.131 82.5048 431.306 80.0315 432.621 72.6969C442.501 60.1821 460.238 63.0107 470.88 53.2427C473.927 50.4464 475.321 45.9803 478.661 43.507C484.149 39.4627 491.808 39.3487 497.465 35.7261C510.069 42.2836 531.233 44.9507 541.569 37.0235C550.437 30.2304 552.754 24.427 566.219 22.1094C576.506 20.3427 580.996 27.9774 589.556 27.9451C593.487 27.928 598.448 24.1591 603.823 23.405C608.393 22.7724 611.7 24.4346 614.206 20.8119C621.446 22.2139 628.279 24.0299 633.66 27.2973C636.757 26.5109 638.345 24.2085 640.144 22.1094C651.971 21.4046 657.871 14.7654 668.678 13.031C668.807 25.8935 667.827 36.9988 671.919 48.0567C672.236 50.7484 668.183 49.0692 668.036 51.2993C668.093 68.8084 660.312 83.6655 648.576 91.5053C647.919 94.5277 647.383 97.6659 645.981 99.936C646.169 101.256 647.733 101.209 647.927 102.529C655.782 102.221 656.705 92.9396 664.138 92.8028C670.217 92.6888 672.43 98.2244 677.755 101.233C685.01 100.69 689.711 102.685 694.616 104.476C704.682 112.143 701.472 133.073 713.428 138.852C724.509 138.731 733.401 137.572 735.476 147.93C732.685 153.55 731.671 160.973 728.988 166.722Z" fill="#F6F6F6" stroke="#666666" stroke-width="2"/>
<path d="M696.565 220.552C704.694 230.474 698.761 237.298 692.016 243.897C690.872 245.016 690.882 246.41 690.718 246.49C684.786 249.579 675.601 244.894 671.914 251.03C660.664 245.339 652.509 258.707 660.89 265.944C660.59 274.025 661.838 280.558 666.726 283.453C662.334 285.513 658.781 285.309 653.757 284.111C650.548 287.247 644.013 289.924 644.031 294.479C644.046 298.508 652.372 300.558 652.461 306.152C652.494 308.373 650.087 308.778 650.516 311.988C649.114 310.149 646.027 310.003 644.033 308.745C642.152 310.666 644.283 314.087 644.033 316.526C635.1 315.764 626.296 307.659 618.095 313.933C617.073 316.315 620.737 317.263 619.392 317.824C607.875 319.972 605.791 301.661 604.471 289.291C602.104 287.118 597.995 286.688 595.392 284.751C592.442 291.956 587.934 297.608 581.775 301.61C576.855 291.795 571.181 280.042 566.861 268.539C564.073 261.123 559.453 253.591 558.431 248.437C555.481 233.595 563.18 227.936 570.752 221.842C570.752 219.686 570.752 217.522 570.752 215.357C569.236 212.762 564.924 212.973 562.971 210.826C563.425 207.559 561.867 206.303 562.323 203.036C564.926 202.175 568.345 202.152 570.754 201.09C573.47 196.024 574.865 189.637 578.535 185.529C582.911 184.491 584.954 186.834 590.208 185.529C590.225 186.161 591.002 186.032 591.513 186.176C593.458 189.63 595.016 193.48 596.046 197.857C598.014 197.897 601.817 199.81 602.529 197.2C604.144 199.681 607.578 202.388 605.779 206.278C608.868 207.3 609.064 211.206 609.67 214.709C616.227 218.339 623.435 214.092 620.695 206.278C627.73 205.621 639.08 207.713 644.688 203.036C646.795 203.304 648.092 204.388 649.228 205.629C652.828 202.411 655.882 202.654 662.847 203.036C665.675 209.211 664.038 219.466 669.98 221.192C673.498 222.214 678.49 218.299 683.596 218.598C688.889 218.915 691.596 222.351 696.565 220.552Z" fill="#F6F6F6" stroke="#666666" stroke-width="2"/>
<path d="M470.228 337.282C467.886 333.351 468.193 326.776 466.337 322.36C462.325 318.591 457.081 316.062 452.721 312.634C456.815 306.359 461.199 300.362 465.69 294.477C462.164 284.758 464.936 275.243 464.392 265.944C464.003 259.128 460.38 251.492 459.204 243.897C458.532 239.568 459.447 234.68 458.557 230.918C456.676 223.048 448.578 211.781 448.828 200.441C458.224 199.031 466.442 196.444 476.064 195.253C483.383 189.823 478.746 172.436 486.438 167.37C496.473 162.068 507.773 167.07 516.923 166.072C533.03 164.321 539.943 143.206 531.837 127.804C539.174 120.631 532.324 109.087 529.244 101.216C537.553 98.5019 538.144 88.069 549.994 88.8953C553.391 94.1973 557.063 101.021 555.83 108.997C559.219 111.664 558.894 118.043 561.018 121.966C560.725 124.05 558.497 124.204 557.127 125.209C560.499 129.553 555.621 134.644 557.775 139.483C558.408 142.133 560.936 138.867 561.665 141.428C559.509 144.46 554.339 144.475 554.532 149.859C555.683 151.513 558.698 151.31 560.368 152.454C558.755 156.101 564.201 159.158 564.258 161.532C564.308 163.907 560.748 165.877 561.016 168.665C561.396 172.622 565.385 173.967 569.446 176.448C568.352 182.51 572.089 183.75 573.987 186.822C571.181 189.846 569.997 194.506 568.151 198.495C564.074 198.528 561.179 199.743 557.775 200.441C559.04 204.363 559.145 209.447 560.37 213.409C561.893 215.776 566.23 215.33 567.503 217.95C564.139 224.313 557.621 227.53 555.182 234.817C553.049 255.04 566.278 272.103 572.049 287.342C573.153 290.284 573.046 294.046 573.987 296.42C574.781 298.43 579.157 306.545 580.472 306.804C582.32 307.153 593.724 296.728 594.736 295.125C595.701 293.601 595.912 290.666 596.682 289.289C598.31 289.832 599.235 291.065 601.222 291.234C600.753 300.062 606.928 309.19 603.167 315.227C600.589 315.648 600.565 313.517 597.979 313.929C593.059 317.301 589.476 326.452 592.143 333.391C587.305 330.464 579.824 333.877 575.932 335.984C569.9 335.538 566.416 332.143 561.665 332.741C556.639 333.366 552.766 340.726 546.749 343.117C543.474 344.415 541.636 342.591 538.968 345.71C542.38 351.149 541.132 352.568 539.616 359.329C527.28 358.225 520.519 362.684 514.974 368.398C513.337 362.034 511.011 356.369 502.645 356.734C500.879 353.499 500.246 350.387 500.05 347.008C496.403 341.14 488.647 339.396 479.301 339.225C475.676 338.433 474.954 335.426 470.228 337.282Z" fill="#F6F6F6" stroke="#666666" stroke-width="2"/>
<path d="M490.981 661.536C489.886 648.033 473.667 653.837 465.691 649.217C460.203 654.403 452.089 655.111 446.886 649.866C449.603 648.495 449.635 642.083 446.238 641.443C440.621 641.662 438.117 644.984 433.269 645.983C429.404 643.996 429.493 638.071 426.784 634.958C422.44 636.424 421.492 633.638 418.353 632.357C414.909 632.372 414.178 635.112 409.915 634.301C406.412 638.573 406.665 646.622 400.187 647.919C400.018 643.113 397.495 640.674 394.351 638.841C391.888 640.049 389.716 641.557 389.156 644.676C387.777 636.903 382.524 632.186 378.788 625.224C380.239 623.212 381.884 621.396 382.678 618.748C379.964 612.814 376.324 607.804 371.654 603.817C368.492 603.259 367.35 604.71 365.169 605.124C363.427 600.113 369.407 595.478 369.06 590.208C368.687 584.598 364.058 581.713 357.386 580.472C360.654 569.473 369.261 563.814 373.598 553.887C380.091 552.793 382.562 555.735 385.919 557.777C396.473 557.12 406.068 557.12 404.723 543.511C411.792 541.256 415.246 530.162 407.316 526.652C405.567 527.485 403.717 528.232 400.831 527.949C399.68 521.173 403.126 519.002 405.371 515.628C405.848 500.666 399.657 492.382 390.457 487.088C390.457 485.79 390.457 484.495 390.457 483.197C397.362 481.907 402.153 476.508 408.614 476.712C415.569 476.93 421.153 484.314 428.724 484.493C430.703 480.188 433.376 477.644 433.912 472.819C434.276 469.455 431.949 465.696 432.614 462.444C434.236 454.499 449.969 447.286 455.309 441.044C463.489 443.947 473.92 450.447 483.849 450.122C490.998 449.887 496.493 443.922 502.646 442.341C506.09 443.217 508.045 445.592 511.077 446.882C516.694 445.577 520.456 442.423 525.351 440.396C526.316 432.08 522.23 428.812 517.57 426.13C521.031 420.195 528.358 426.033 533.132 428.075C535.134 443.168 544.287 451.105 549.343 463.741C553.177 473.313 558.01 481.444 560.367 490.976C558.219 493.149 555.04 494.291 555.827 499.407C557.757 501.952 562.181 502.3 566.851 501.352C566.193 513.966 567.362 526.165 574.632 532.487C572.58 534.318 569.679 535.314 568.796 538.323C566.015 538.728 566.153 536.207 563.608 536.378C561.216 536.361 560.739 538.266 559.717 539.628C555.842 537.229 551.215 535.584 552.584 527.947C551.475 527.972 550.907 527.461 550.639 526.65C546.019 528.255 543.749 533.961 546.108 538.978C543.605 545.342 540.58 551.178 538.318 557.777C538.035 561.092 541.293 560.849 541.561 563.613C532.659 563.824 519.804 571.126 527.294 581.122C529.192 581.293 529.279 579.655 531.185 579.824C536.04 583.618 543.96 584.348 551.287 585.66C547.744 592.987 547.962 600.016 548.044 609.012C538.673 604.108 526.466 602.05 522.106 592.144C514.77 599.383 506.349 602.195 493.566 603.169C492.472 607.732 495.067 608.591 496.161 610.96C491.476 611.552 489.206 615.895 490.325 618.75C487.544 618.686 485.405 617.266 483.849 619.39C485.065 626.596 489.968 630.129 489.685 638.843C493.722 638.996 493.657 635.041 497.458 634.96C489.393 642.904 500.766 647.703 504.592 653.109C502.453 657.317 501.795 659.44 503.294 664.782C499.759 662.315 497.044 660.005 490.981 661.536Z" fill="#F6F6F6" stroke="#666666" stroke-width="2"/>
<path d="M471.526 145.97C476 145.533 476.851 140.036 477.362 134.297C481.059 133.235 482.671 130.091 485.793 128.452C491.288 130.6 495.277 137.684 500.707 138.18C511.74 139.192 514.187 121.628 512.38 108.999C513.936 109.396 517.089 108.188 517.575 109.647C520.332 108.302 521.992 105.861 525.356 105.109C531.266 109.324 533.835 121.774 527.949 127.156C532.205 135.254 533.056 148.199 527.949 155.696C521.141 167.871 495.154 156.977 483.855 164.775C476.6 169.638 479.178 184.318 474.767 192.01C464.959 193.015 456.764 195.625 447.532 197.198C445.716 177.615 431.069 170.863 429.375 151.158C434.734 144.04 449.283 143.206 451.422 153.751C458.094 152.421 462.188 148.523 463.743 142.078C468.105 142.598 467.489 146.367 471.526 145.97Z" fill="#F6F6F6" stroke="#666666" stroke-width="2"/>
<path d="M463.097 323.657C465.391 329.372 464.183 338.579 469.582 341.174C478.231 342.504 489.602 342.422 496.817 347.667C495.301 355.733 500.951 361.472 509.138 361.924C510.508 365.524 511.222 369.786 511.083 374.893C492.944 368.352 485.161 391.874 466.339 390.455C461.241 390.075 455.859 384.993 446.885 386.564C441.965 387.423 439.55 391.403 435.212 392.4C426.498 394.41 420.516 392.14 415.102 394.993C410.968 397.174 407.036 402.483 406.024 409.259C404.662 418.41 404.793 420.454 400.188 428.721C388.306 417.317 404.711 403.724 397.595 389.805C393.672 385.525 386.79 384.188 381.383 381.374C382.949 371.713 391.928 369.435 393.057 359.327C391.799 356.043 388.914 354.39 386.571 352.194C372.313 351.538 360.584 348.353 354.796 339.225C357.041 338.009 358.768 336.282 359.984 334.039C362.78 334.476 361.143 339.356 364.522 339.225C368.236 339.907 367.189 335.838 369.062 334.687C380.021 333.754 385.582 327.424 391.759 321.708C401.761 320.356 406.837 323.929 410.564 328.849C414.608 325.323 418.88 322.016 422.892 318.466C426.661 323.336 431.127 332.384 437.159 332.092C444.089 331.752 444.235 319.48 449.478 315.225C454.52 317.537 458.159 321.249 463.097 323.657Z" fill="#F6F6F6" stroke="#666666" stroke-width="2"/>
<path d="M489.692 826.917C486.992 824.331 483.199 826.398 479.956 826.917C474.371 820.789 467.927 814.936 457.261 820.424C456.288 819.662 455.68 818.553 454.018 818.479C450.882 818.585 449.592 820.53 447.533 821.731C444.533 820.612 443.253 817.783 441.697 815.238C439.315 815.447 438.107 816.843 435.861 817.191C432.368 814.62 431.015 809.928 430.675 804.212C427.507 800.25 422.991 797.622 422.893 790.586C426.897 793.286 429.304 797.575 435.861 797.729C437.879 796.659 437.484 792.167 437.807 791.236C441.551 789.234 443.31 794.218 445.588 795.776C451.252 795.379 457.941 790.296 457.261 785.4C456.725 781.582 452.892 782.912 451.425 778.917C454.66 777.942 458.04 781.008 461.151 782.157C467.061 779.889 462.035 773.235 460.504 769.189C461.89 768.412 464.037 768.402 464.394 766.596C463.883 761.7 459.928 760.256 456.613 758.165C457.043 751.129 459.159 746.015 454.668 741.953C455.268 735.187 464.605 731.044 460.504 723.797C468.22 720.976 464.339 708.93 458.558 706.935C456.191 706.514 455.105 707.367 454.018 708.242C445.086 705.526 445.451 694.753 451.425 688.773C448.532 682.441 454.733 678.841 454.018 674.514C453.289 670.088 447.096 670.306 444.94 665.428C445.791 662.387 445.605 658.32 445.588 654.403C450.451 653.43 450.021 657.759 452.721 658.943C456.837 656.794 463.971 657.655 465.69 653.107C472.004 655.516 475.969 656.268 484.494 655.702C486.204 658.538 486.943 662.339 489.034 664.778C495.009 663.838 498.971 666.334 503.301 668.678C511.009 668.289 519.455 667.932 522.115 659.592C524.043 660.913 526.241 661.959 527.951 663.492C526.638 682.897 534.784 696.295 540.921 710.18C545.703 710.368 547.973 713.067 550.647 715.368C547.082 722.605 542.038 728.369 533.788 730.937C534.875 737.406 537.931 741.921 539.624 747.797C548.695 744.97 550.64 735.031 563.616 736.118C566.04 742.141 566.388 750.215 566.859 758.165C561.947 761.902 555.794 764.398 554.538 771.791C551.595 769.109 547.794 767.283 541.569 767.891C542.696 769.586 545.663 775.034 548.054 777.627C545.72 778.314 544.779 780.398 543.514 782.157C544.341 784.144 543.716 787.573 546.107 788.003C542.574 788.69 540.539 791.261 536.381 791.893C535.57 798.654 526.152 796.992 526.005 802.926C525.908 806.735 529.596 805.527 529.896 810.059C529.459 812.63 526.645 812.848 524.708 813.942C524.286 816.518 526.418 816.552 526.005 819.128C523.728 818.594 522.333 817.183 520.17 816.543C516.733 816.342 517.755 820.604 515.631 821.731C509.868 818.528 503.69 817.823 499.41 823.028C498.195 822.078 495.115 822.994 494.222 821.731C492.275 823.011 489.042 823.028 489.692 826.917Z" fill="#F6F6F6" stroke="#666666" stroke-width="2"/>
<path d="M311.99 356.088C306.541 354.889 304.663 361.698 301.614 364.518C292.518 372.957 270.942 367.446 261.41 373.597C257.567 372.252 259.951 364.68 257.519 361.924C253.904 360.335 253.403 363.236 250.386 363.869C244.565 351.783 231.428 361.584 224.439 366.464C224.406 363.4 226.935 362.904 227.681 360.628C225.736 359.988 224.788 358.333 221.846 358.683C223.977 353.423 225.89 350.14 222.493 345.066C226.158 336.434 232.641 327.924 232.229 318.471C232.068 314.93 229.157 312.571 229.627 309.393C230.138 305.956 235.286 301.773 239.362 300.962C246.689 299.511 253.783 304.488 260.112 304.205C262.958 304.083 265.737 300.922 269.84 300.314C274.85 299.568 280.159 302.552 282.809 302.26C287.25 301.773 294.351 293.231 302.263 294.479C306.697 308.209 329.077 324.113 343.125 311.986C344.722 310.608 345.167 307.713 347.015 305.5C348.919 303.223 352.868 302.258 354.148 300.314C356.791 296.302 355.21 290.457 356.741 285.398C358.364 280.056 366.713 276.734 361.929 268.539C365.155 264.639 366.331 258.585 371.008 257.515C378.585 255.789 391.951 266.732 395 256.868C398.114 246.809 384.187 240.453 382.679 232.225C380.662 221.177 388.564 218.502 389.157 205.63C390.802 202.298 394.491 201.01 393.712 195.254C399.806 193.205 398.406 187.36 400.188 182.293C401.436 178.735 405.691 176.44 406.674 171.91C407.671 167.322 405.701 163.722 407.321 158.293C416.318 160.732 420.169 154.346 425.486 151.16C426.037 151.038 426.094 151.411 426.133 151.808C425.275 165.434 435.52 172.689 439.75 181.636C445.303 193.374 444.963 206.99 449.476 220.552C451 225.132 454.778 228.204 455.312 234.169C456.188 243.944 459.431 254.409 460.5 263.999C461.562 273.482 458.158 283.873 461.797 293.829C453.984 305.468 444.258 315.204 437.805 328.205C428.533 326.883 429.456 315.358 420.946 313.283C420.67 319.93 412.5 318.672 411.21 324.307C407.773 318.885 397.13 315.975 389.155 319.121C383.496 324.917 378.211 331.085 367.115 331.449C365.406 331.248 364.984 332.34 365.17 334.044C363.825 331.921 362.349 329.943 358.685 330.154C355.799 331.151 356.39 335.632 352.849 335.99C350.028 334.692 349.671 330.948 347.661 328.856C336.734 325.599 328.703 330.973 324.309 339.23C325.72 347.264 331.191 350.246 338.583 346.364C343.391 349.274 338.866 355.134 339.88 359.332C340.95 363.799 345.368 362.655 346.366 367.113C340.384 368.312 336.476 371.944 330.802 368.411C326.045 369.059 325.832 374.256 320.418 374.247C316.456 368.441 318.133 357.433 311.99 356.088Z" fill="#F6F6F6" stroke="#666666" stroke-width="2"/>
<path d="M484.495 446.232C474.283 446.969 463.939 440.711 455.963 437.153C452.695 439.319 447.743 441.53 444.297 444.286C439.628 447.991 429.666 456.533 428.726 461.146C427.42 467.525 433.112 473.638 427.428 479.95C420.198 480.355 415.569 473.19 409.264 472.817C402.877 472.435 397.811 477.802 391.107 479.303C383.934 476.588 378.714 469.016 372.302 467.629C373.218 464.436 375.034 462.151 376.841 459.848C390.037 458.122 396.312 449.48 402.778 441.044C402.852 437.729 403.118 434.218 401.481 432.613C403.508 427.594 407.706 423.996 409.262 417.697C410.753 411.708 409.311 404.041 414.45 399.533C418.836 395.697 427.483 397.538 435.857 395.642C439.683 394.774 444.059 390.414 447.53 389.807C453.366 388.784 461.124 391.516 465.039 394.347C481.923 393.074 491.066 380.608 503.946 377.487C512.578 377.723 515.066 384.102 523.408 384.62C528.985 390.715 525.953 405.42 534.431 408.613C543.85 410.437 555.272 410.25 559.721 417.044C574.67 418.349 576.881 433.635 590.199 437.803C598.257 440.324 608.428 436.781 616.802 442.989C616.931 448.306 612.368 448.946 611.606 453.365C606.078 453 603.557 453.94 601.223 457.905C598.402 462.711 593.41 468.532 594.737 476.062C581.719 476.977 571.717 477.811 561.019 481.898C557.151 474.717 555.32 466.262 551.291 457.905C548.599 452.32 543.371 448.194 540.917 442.989C538.364 437.583 539.465 431.31 536.376 426.777C533.029 421.857 525.604 421.614 520.822 418.996C517.661 421.021 514.947 423.502 512.376 426.13C521.269 431.025 525.605 439.974 512.376 442.989C508.672 442.381 506.905 439.813 503.946 438.451C497.238 439.349 491.968 445.688 484.495 446.232Z" fill="#F6F6F6" stroke="#666666" stroke-width="2"/>
<path d="M289.94 741.306C287.809 743.752 283.765 745.293 281.51 747.797C277.796 751.898 276.233 757.605 271.782 756.867C268.239 744.522 280.326 743.574 281.51 732.233C281.867 728.804 280.18 726.266 280.212 720.56C275.746 716.806 269.747 714.593 264.641 711.474C260.954 695.279 257.46 678.889 248.439 668.019C238.986 664.29 233.257 656.825 227.032 649.862C232.073 636.616 223.117 611.353 236.118 605.118C238.996 606.121 240.202 608.805 240.665 612.259C244.776 610.103 247.345 606.406 246.494 599.273C250.749 597.702 255.961 597.077 260.76 596.032C272.448 576.983 247.913 563.187 256.22 540.264C257.89 535.652 262.494 532.727 264.001 528.591C265.743 523.792 267.025 515.347 266.594 509.779C266.011 502.281 256.324 493.282 262.703 487.732C268.246 488.55 272.722 492.15 278.265 491.622C283.736 491.103 287.668 484.806 295.774 485.137C302.049 485.397 303.969 488.638 310.041 492.27C313.728 490.843 316.826 492.441 319.769 491.622C327.396 489.515 326.309 481.271 330.8 475.41C334.958 469.972 340.243 469.21 343.769 465.036C348.024 464.429 348.755 467.103 352.199 465.684C354.127 464.801 353.333 461.201 353.497 458.551C363.297 453.656 368.046 443.709 376.842 437.801C377.4 447.381 388.262 447.448 393.053 446.88C388.27 457.238 366.109 453.64 369.708 470.224C376.177 473.49 382.143 477.244 387.217 481.896C386.706 484.344 386.083 487.391 387.217 489.679C396.499 493.594 401.524 501.749 402.131 514.321C398.298 518.04 395.428 524.34 398.241 531.188C402.213 533.41 406.662 528.821 408.615 532.487C406.402 540 398.914 542.23 399.537 552.589C395.54 554.096 390.021 551.163 387.215 554.533C380.829 546.978 365.767 549.848 365.816 561.018C360.506 565.653 356.616 571.709 354.143 579.182C351.694 579.676 351.039 578.396 348.955 578.533C342.633 584.361 330.887 594.704 335.338 609.651C336.643 614.052 341.409 614.273 343.769 618.746C348.552 639.374 334.464 648.103 335.988 669.324C330.711 670.671 327.574 673.564 321.714 671.264C316.494 684.216 327.096 692.46 325.604 703.695C322.888 704.211 321.406 705.97 318.471 706.288C318.673 696.569 311.37 694.373 304.853 691.372C303.175 700.279 300.103 707.796 293.181 711.474C299.019 720.976 296.984 733.223 289.94 741.306Z" fill="#F6F6F6" stroke="#666666" stroke-width="2"/>
<path d="M296.425 481.248C292.85 481.079 290.994 484.23 286.699 482.545C282.387 484.004 283.238 486.947 279.566 487.731C271.857 489.386 260.437 479.002 257.519 489.036C252.639 488.503 249.145 486.597 243.253 487.084C245.999 483.032 253.685 478.07 250.386 472.177C250.11 469.949 252.323 470.224 252.979 468.927C249.761 462.515 250.872 459.556 251.033 450.122C248.505 447.415 245.942 448.428 242.603 446.232C242.174 443.646 244.313 443.622 243.9 441.044C243.454 438.895 241.647 438.101 239.36 437.801C236.427 438.757 236.288 442.51 233.517 443.637C229.909 442.664 227.883 441.182 224.438 442.989C224.957 441.773 225.525 440.614 225.736 439.099C224.974 433.66 217.169 431.008 218.603 423.535C219.511 418.843 223.791 411.546 224.438 405.37C224.657 403.361 224.009 401.544 224.438 400.182C226.319 394.248 232.966 389.645 233.517 384.621C230.354 380.656 230.914 372.964 227.031 369.704C233.929 363.179 243.583 357.311 250.384 367.759C253.229 368.439 252.508 365.563 254.924 365.814C254.567 372.225 257.891 374.957 260.11 378.783C271.223 370.159 292.793 376.952 303.557 367.759C307.05 364.777 305.641 360.951 311.347 359.978C315.183 364.306 314.257 377.252 319.77 378.783C323.782 379.902 328.224 374.818 330.801 371.65C336.508 376.984 345.79 370.943 350.256 368.407C350.256 362.79 346.211 361.209 343.123 358.679C345.7 352.948 344.259 344.956 339.88 342.467C336.523 342.353 334.724 343.797 332.097 344.413C329.561 344.348 329.527 341.787 328.207 340.522C330.971 333.454 337.593 330.576 345.716 332.092C352.41 346.576 364.617 355.55 385.92 355.436C386.592 357.138 388.49 357.625 389.155 359.327C387.743 370.01 377.005 371.38 377.491 383.967C383.424 386.684 390.817 387.932 394.998 392.398C398.362 402.821 392.323 408.383 391.108 417.695C392.899 426.377 403.647 436.363 396.294 444.283C390.758 441.631 387.848 443.819 381.38 441.688C380.876 437.296 382.223 434.741 382.677 431.314C373.129 431.922 372.1 441.049 363.872 442.985C362.22 449.964 356.245 452.647 350.904 455.954C350.231 457.656 350.125 459.934 350.256 462.439C348.31 461.571 345.296 461.784 342.482 461.792C333.129 467.798 325.46 475.475 321.715 487.082C310.853 493.05 304.871 481.662 296.425 481.248Z" fill="#F6F6F6" stroke="#666666" stroke-width="2"/>
<path d="M273.081 760.118C284.915 754.005 291.684 742.835 299.668 732.882C300.802 724.613 300.266 717.539 297.073 712.123C302.869 709.488 306.25 704.429 306.801 696.552C314.103 697.266 314.768 704.593 316.527 710.827C321.254 709.709 324.812 707.431 328.856 705.64C331.97 692.971 321.423 687.597 324.308 675.162C330.543 677.221 334.506 672.147 339.88 671.264C337.57 647.457 353.075 639.034 347.013 616.793C344.752 613.429 340.659 611.905 338.582 608.363C335.9 593.57 344.241 589.816 348.958 582.417C354.875 581.688 356.277 585.472 361.927 585.02C367.43 588.407 364.254 597.282 360.63 600.574C361.245 604.069 361.992 607.439 364.52 609.012C367.227 609.555 367.584 607.757 369.708 607.715C374.288 609.829 376.34 614.481 378.786 618.748C378.154 621.348 375.958 622.386 374.246 623.934C376.459 629.931 380.245 634.357 383.974 638.84C383.617 644.386 385.547 647.643 389.155 649.216C392.754 648.916 391.164 643.428 394.998 643.381C397.146 645.998 396.385 651.511 400.186 652.467C405.024 648.867 411.16 646.574 411.209 638.193C413.755 638.136 415.254 637.049 417.045 636.247C420.288 636.679 420.732 639.912 425.483 638.84C426.407 644.068 429.342 649.566 433.914 649.866C437.447 650.1 438.673 645.901 442.992 646.631C441.144 656.196 439.717 670.834 450.126 675.164C450.58 678.634 446.915 678.002 446.883 680.999C446.704 683.326 448.082 684.128 448.18 686.187C446.617 691.261 441.655 695.72 442.345 701.109C443.025 706.436 449.421 709.173 453.368 712.125C455.807 713.202 456.318 709.108 457.259 710.827C460.323 711.654 461.489 714.378 461.149 718.608C460.015 719.857 458.725 720.936 456.611 721.203C460.486 730.297 452.396 733.937 450.775 741.305C456.271 747.992 448.984 761.934 459.854 764.648C454.74 766.529 457.755 773.97 460.501 776.977C456.522 776.597 449.242 771.975 446.885 778.916C447.517 782.832 451.48 783.398 453.37 786.057C452.398 789.406 449.276 790.605 446.885 792.533C446.471 786.844 436.298 785.554 433.268 789.94C434.015 790.709 433.998 792.233 433.916 793.84C428.428 792.835 427.472 787.313 421.595 786.697C421.384 782.378 419.853 779.353 419.65 775.024C415.581 775.381 411.73 781.316 407.321 783.455C409.599 787.68 413.449 790.305 415.102 795.136C407.775 794.26 409.849 783.956 404.728 780.86C404.922 778.096 408.172 777.682 406.673 775.024C405.961 772.933 402.16 773.922 400.188 773.081C400.026 769.091 395.876 764.187 391.757 762.055C395.047 757.971 388.07 757.54 390.46 752.337C390.298 750.927 387.021 749.347 386.569 750.384C386.715 748.017 387.023 745.699 384.624 743.251C382.815 744.905 379.582 745.124 380.084 749.086C376.493 748.317 376.322 750.944 373.598 751.032C373.72 755.011 376.152 756.696 376.841 760.118C372.375 759.324 374.474 765.095 371.005 765.304C371.725 762.2 369.237 762.306 367.115 762.053C364.18 766.675 365.242 772.144 361.927 776.975C357.387 776.035 362.309 772.534 362.575 770.492C361.416 767.971 359.032 766.673 356.089 765.951C356.089 764.435 356.089 762.92 356.089 761.404C355.052 760.285 353.171 760.002 350.901 760.114C347.408 764.426 349.224 773.115 350.901 777.623C348.941 776.73 348.584 777.931 345.715 777.623C348.065 781.238 345.852 785.679 347.013 789.934C344.338 786.342 341.078 783.345 338.582 779.559C335.989 779.348 334.982 780.717 332.097 780.208C329.536 775.636 328.767 769.264 326.901 763.997C316.21 763.25 311.97 772.41 307.447 775.67C306.343 772.961 310.64 764.662 310.69 758.809C304.263 758.541 297.827 757.424 293.183 758.809C284.558 761.394 282.37 773.888 274.378 776.327C276.306 770.566 273.949 765.079 273.081 760.118Z" fill="#F6F6F6" stroke="#666666" stroke-width="2"/>
<path d="M158.295 900.194C150.124 892.582 141.192 885.734 127.809 883.327C127.266 879.337 123.328 878.737 121.324 876.192C129.519 867.917 119.029 862.617 111.598 860.63C115.682 852.427 121.438 843.185 131.052 841.177C135.923 840.165 139.247 842.49 143.381 839.88C146.283 838.039 147.085 834.084 149.866 832.097C154.374 828.871 159.245 829.504 163.485 826.261C168.923 820.029 163.095 811.752 164.782 804.214C167.561 801.686 171.469 802.343 174.508 804.214C177.597 803.412 178.051 799.976 179.696 797.731C174.654 790.491 170.601 784.08 172.563 771.143C170.521 767.342 166.653 765.382 168.023 758.167C178.902 754.202 195.064 745.513 205.634 755.574C215.33 758.985 222.947 751.691 228.331 751.034C233.194 750.441 239.096 754.567 245.847 755.574C256.077 757.114 263.25 755.557 269.192 760.76C271.495 765.963 272.492 772.528 270.49 778.918C271.599 780.4 275.442 779.162 277.623 779.566C286.247 772.629 288.574 759.4 306.803 762.057C305.684 767.845 303.828 772.912 301.615 777.629C302.459 780.028 307.2 778.519 308.748 780.214C314.649 776.834 314.698 767.578 324.968 768.541C324.96 772.009 326.533 773.89 326.905 776.977C323.784 778.818 322.447 782.457 318.475 783.453C318.368 788.762 322.891 789.42 324.31 793.189C323.193 794.226 321.951 795.149 322.365 797.729C322.34 799.706 323.735 800.25 324.31 801.619C325.454 801.247 328.129 802.398 328.21 800.971C329.255 803.815 330.877 806.078 334.696 806.157C333.391 810.924 337.338 810.437 337.938 813.291C337.065 813.712 336.73 814.675 336.641 815.893C335.782 816.273 329.411 814.432 327.563 818.477C327.806 820.61 331.007 819.784 330.805 822.377C326.93 827.679 310.922 823.967 314.586 834.688C309.016 835.288 306.245 833.091 301.617 832.751C300.791 834.673 304.771 837.363 303.562 841.819C298.156 838.09 280.753 825.737 281.515 840.522C277.558 847.809 271.075 852.56 269.842 862.569C267.71 863.899 264.85 864.49 262.061 865.162C264.257 868.242 266.016 873.69 262.061 876.186C266.177 880.287 266.916 887.762 273.734 889.164C275.873 888.921 276.977 887.648 278.272 886.562C276.975 894.571 269.68 902.183 265.304 909.266C266.423 912.688 271.479 912.177 271.789 916.4C272.722 916.042 273.37 915.387 273.734 914.454C273.888 917.551 277.893 919.504 276.977 921.587C273.653 921.888 273.816 918.702 270.492 919.004C264.859 922.984 257.012 927.522 248.444 924.84C246.767 922.609 246.117 919.384 246.499 915.104C239.487 918.354 231.099 914.893 230.28 907.971C224.638 909.025 220.755 911.854 217.959 915.752C222.214 919.384 219.613 922.237 219.904 929.378C218.145 932.36 212.835 931.809 212.771 936.503C202.931 937.898 199.963 946.182 193.317 950.77C193.649 955.213 192.684 958.349 189.426 959.2C184.01 956.833 182.705 950.358 180.348 944.934C181.298 943.07 183.68 942.649 184.238 940.403C184.7 930.856 178.621 927.856 170.622 926.777C170.378 923.949 172.477 923.445 172.567 920.942C171.383 917.374 167.265 916.726 165.434 913.808C168.743 908.404 167.861 898.216 158.295 900.194Z" fill="#F6F6F6" stroke="#666666" stroke-width="2"/>
<path d="M229.627 383.971C227.414 389.759 224.35 394.687 220.548 398.887C223.305 408.986 215.271 416.436 214.713 423.537C214.186 430.216 219.032 433.086 221.846 439.101C221.57 441.418 220.119 442.562 220.548 445.586C224.821 447.71 229.838 444.631 234.822 447.531C232.909 451.367 234.951 455.158 238.065 455.962C240.278 454.714 241.089 452.072 241.955 449.486C246.608 452.712 237.44 455.84 238.713 460.502C239.742 464.311 244.256 463.088 248.441 465.042C250.662 469.039 243.665 470.982 247.793 474.768C245.929 480.257 241.065 482.745 238.715 487.737C239.29 488.889 240.28 489.635 240.667 490.98C246.95 490.454 251.773 490.948 256.871 492.925C260.486 502.693 265.657 514.762 260.762 527.951C257.819 535.878 248.709 541.326 251.034 551.943C238.259 547.331 230.178 552.388 221.196 552.593C203.104 553.005 197.462 539.413 197.851 524.061C197.973 519.408 200.657 514.942 200.444 510.434C200.275 506.77 197.308 503.926 197.851 499.411C198.241 496.234 202.657 494.037 203.039 490.332C203.558 485.346 200.566 483.571 195.906 480.604C196.189 475.481 198.938 472.831 202.392 470.878C204.255 464.224 203.389 455.5 197.851 452.721C195.777 452.153 195.824 453.719 195.258 454.666C190.606 451.756 191.894 442.898 187.476 439.752C184.299 425.526 185.977 410.45 178.397 400.836C181.533 386.766 174.685 373.698 176.452 363.225C177.732 364.758 177.975 367.319 178.397 369.711C180.449 371.283 180.943 366.979 184.233 367.765C189.413 369.507 189.307 375.149 193.959 376.196C209.173 379.6 208.818 351.052 217.952 345.718C219.549 347.152 220.455 349.268 221.194 351.554C218.867 353.167 216.185 362.513 221.842 362.577C221.259 365.017 220.326 367.118 219.897 369.711C220.619 372.45 223.261 373.27 226.382 373.601C225.282 376.838 227.478 381.88 229.627 383.971Z" fill="#F6F6F6" stroke="#666666" stroke-width="2"/>
<path d="M127.81 653.105C127.574 648.681 132.057 644.684 132.35 640.136C132.747 634.067 126.812 627.954 126.514 621.331C126.239 615.198 130.63 612.935 128.459 607.065C123.718 604.254 117.386 607.333 112.897 603.815C110.15 601.676 110.952 597.565 108.357 594.089C104.062 588.335 91.4807 589.005 88.2551 581.768C84.7617 573.939 89.3094 564.293 85.6621 555.182C87.8999 550.944 90.5993 547.148 92.7953 542.861C111.892 538.477 115.224 555.442 124.571 562.963C127.658 563.02 127.141 559.479 128.461 557.777C131.696 560.818 133.592 565.186 138.189 566.863C141.261 565.816 140.693 561.156 142.737 559.073C147.002 561.246 145.761 566.481 150.52 566.863C154.783 567.205 155.579 563.159 158.95 560.37C173.053 567.454 176.742 584.955 184.24 598.631C195.775 591.577 205.218 582.427 222.499 581.122C225.628 586.163 232.729 584.338 237.421 585.662C235.176 590.728 227.775 595.056 232.881 601.881C222.919 607.758 226.356 624.487 225.74 639.492C225.594 643.115 223.47 647.573 223.795 649.868C224.353 653.789 231.374 661.629 236.123 665.43C238.563 667.39 242.884 667.941 245.202 669.978C257.352 680.636 255.732 699.111 262.061 713.424C266.163 717.096 271.74 719.317 276.975 721.855C279.787 734.265 274.082 741.786 267.897 747.145C267.411 751.091 268.934 753.03 268.545 756.871C263.786 751.976 257.901 753.725 247.795 752.339C240.458 751.326 233.747 746.909 228.981 747.145C222.074 747.485 219.01 754.536 208.231 752.339C204.81 751.634 202.864 748.498 200.448 747.798C186.482 743.714 178.036 752.272 166.729 754.924C163.675 753.879 161.502 751.942 158.949 750.384C158.909 740.226 156.986 728.604 154.408 723.149C158.867 721.099 167.799 723.004 168.675 716.665C169.965 707.326 154.579 709.711 153.113 703.696C152.212 700.032 161.226 697.251 159.598 690.07C158.367 684.671 151.808 686.204 147.925 683.585C145.907 676.524 142.811 670.544 138.839 665.428C133.725 665.282 134.948 671.475 129.76 671.264C129.403 667.825 131.567 667.671 131.706 664.778C131.911 660.419 128.013 656.834 127.81 653.105Z" fill="#F6F6F6" stroke="#666666" stroke-width="2"/>
<path d="M138.833 950.774C128.117 950.352 130.063 958.895 125.864 964.4C126.837 965.802 129.115 965.908 129.107 968.29C127.249 968.591 125.54 969.044 125.217 970.876C125.046 978.406 132.268 978.535 136.89 981.269C136.088 982.388 134.238 979.607 132.35 981.269C128.63 988.06 133.841 996.021 132.998 1003.32C131.677 1002.69 130.437 1001.98 129.107 1001.37C127.47 1001.88 127.453 1004.03 126.512 1005.25C125.296 1002.81 124.803 999.619 123.27 997.48C116.792 998.907 118.762 1007.97 118.082 1013.69C113.234 1015.72 110.511 1011.19 108.354 1008.5C102.347 1009.53 101.845 1005.07 98.6273 1003.32C90.3354 1004.29 79.3592 994.694 72.6896 1005.9C70.4024 1004.94 66.6506 1002.73 63.6112 1004.6C62.1276 1009.82 60.3039 1014.7 57.7755 1018.87C54.793 1021.42 50.7962 1020.32 47.4015 1021.47C44.6299 1022.4 42.432 1025.86 38.9633 1027.3C33.7184 1029.47 28.7584 1028.67 25.3466 1031.19C17.9855 1036.65 14.9955 1047.24 5.24269 1049.35C3.18538 1047.74 2.18806 1045.06 2 1041.57C15.5046 1039.06 13.6885 1029.37 18.8593 1015.63C20.512 1011.24 24.4367 1007.25 23.3976 999.418C36.5051 989.836 21.5264 964.392 31.8282 954.664C36.0834 950.654 41.7729 952.808 43.4996 945.588C55.0096 944.558 58.3017 935.318 62.9615 927.429C69.5115 927.722 75.9057 927.836 78.5253 924.196C77.1556 919.868 77.9079 912.441 78.5253 907.977C93.9998 900.543 100.726 884.364 118.082 878.789C125.676 887.622 140.501 889.244 149.215 896.953C145.009 906.803 138.159 914 132.996 922.893C133.7 926.734 136.863 928.103 138.184 931.323C134.941 935.003 131.941 938.908 128.456 942.347C130.5 946.319 136.117 946.927 140.784 944.94C139.054 945.804 139.937 949.275 138.833 950.774Z" fill="#F6F6F6" stroke="#666666" stroke-width="2"/>
</svg>
