<svg width="600" height="800" viewBox="0 0 934 934" fill="none" xmlns="http://www.w3.org/2000/svg">
<path d="M615.793 614.556C615.793 614.556 620.33 608.306 620.33 599.783C620.33 591.26 614.091 595.806 607.853 594.669C601.615 593.533 599.913 585.578 594.242 582.737C588.571 579.896 591.973 576.487 591.973 574.782C591.973 573.078 594.469 570.378 594.01 568.704C593.759 567.789 588.47 565.591 588.47 565.591L584.811 562.915L578.345 559.234L572.959 552.456C572.959 552.456 585.899 551.736 596.868 553.572C612.851 556.513 615.795 561.57 625.836 565.594C634.346 568.989 641.149 568.36 648.052 575.377C654.955 582.394 661.682 585.261 671.548 585.99C681.413 586.719 660.996 585.009 674.1 585.99C687.203 586.971 686.986 593.585 691.002 605.381C694.19 614.711 698.006 623.916 699.989 633.624C700.767 637.421 703.327 645.746 698.508 646.073C693.136 646.425 687.538 647.708 682.367 645.444C673.932 641.772 672.502 630.832 664.393 626.657C660.452 624.645 655.934 624.57 651.667 623.941C646.27 623.161 641.776 620.898 636.932 618.534C631.936 616.094 621.719 614.962 616.227 614.804" fill="#F6F6F6" id="UPLKO" name="Lucknow"/>
<path d="M615.793 614.556C615.793 614.556 620.33 608.306 620.33 599.783C620.33 591.26 614.091 595.806 607.853 594.669C601.615 593.533 599.913 585.578 594.242 582.737C588.571 579.896 591.973 576.487 591.973 574.782C591.973 573.078 594.469 570.378 594.01 568.704C593.759 567.789 588.47 565.591 588.47 565.591L584.811 562.915L578.345 559.234L572.959 552.456C572.959 552.456 585.899 551.736 596.868 553.572C612.851 556.513 615.795 561.57 625.836 565.594C634.346 568.989 641.149 568.36 648.052 575.377C654.955 582.394 661.682 585.261 671.548 585.99C681.413 586.719 660.996 585.009 674.1 585.99C687.203 586.971 686.986 593.585 691.002 605.381C694.19 614.711 698.006 623.916 699.989 633.624C700.767 637.421 703.327 645.746 698.508 646.073C693.136 646.425 687.538 647.708 682.367 645.444C673.932 641.772 672.502 630.832 664.393 626.657C660.452 624.645 655.934 624.57 651.667 623.941C646.27 623.161 641.776 620.898 636.932 618.534C631.936 616.094 621.719 614.962 616.227 614.804" stroke="#666666" stroke-width="2" stroke-linecap="round" stroke-linejoin="round"/>
<path d="M41.2532 110.759C46.0227 110.885 51.4448 108.646 55.5364 111.891C56.1891 112.419 62.9416 117.449 62.7408 117.952C65.4017 112.067 73.4846 113.928 78.5302 114.154C82.3959 114.33 84.379 108.797 86.1111 105.83C87.6674 103.189 90.253 101.227 92.8134 99.2656C88.1946 96.7758 88.8472 89.256 88.2699 84.8548C87.1152 76.329 82.6219 72.4056 89.6003 64.7349C95.0977 58.7241 100.018 54.172 102.679 46.1743C105.44 37.8749 106.118 25.6521 118.493 27.8904C103.833 19.2892 87.0148 17.5538 75.9948 2.94177C73.4846 15.0891 64.4729 22.5838 56.9171 31.688C53.3777 35.9383 50.2901 40.6917 49.1354 46.1743C47.8551 52.2606 41.1026 46.1743 38.0903 51.7073C35.6554 56.1588 35.2036 61.1636 29.7564 62.2199C24.2338 63.3014 23.3553 69.0355 23.2047 73.7385C23.0289 78.6176 23.4306 83.3709 20.6191 87.6464C16.8287 93.3805 14.6197 98.8632 11.3062 104.799C21.0459 108.898 30.6851 110.508 41.2532 110.759Z" fill="#F6F6F6" stroke="#666666" stroke-width="2" id="UPSAH" name="Saharanpur" />
<path d="M26.5683 163.523C29.4049 165.284 31.6139 168.252 34.9274 169.157C39.6466 170.465 44.0647 167.145 48.5078 169.71C51.3945 171.37 52.4488 174.992 55.8376 174.187C60.2808 173.156 64.5984 171.546 69.0666 170.591C78.5803 168.553 80.0865 176.878 88.0188 178.362C96.4281 179.946 104.285 177.633 111.665 173.986C115.506 172.1 118.87 172.024 122.861 173.533C130.392 176.4 131.345 173.684 126.601 168.025C119.748 159.801 121.907 149.691 121.53 139.631C121.355 134.677 122.283 133.595 123.765 129.747C125.371 125.572 126.199 119.738 122.76 117.072C120.074 114.984 117.891 111.665 114.853 110.105C118.468 106.232 115.431 101.429 116.334 96.9771C110.31 98.0333 104.561 100.75 98.361 100.599C95.2985 100.523 93.3907 98.0836 91.1817 100.775C88.8974 103.541 88.1945 102.233 86.0608 105.83C82.2453 112.318 81.3667 114.33 73.9866 113.853C69.8949 113.601 64.6737 113.576 62.6906 117.977C64.1716 114.205 49.4868 110.13 47.5539 110.306C36.057 111.338 24.4597 110.231 13.7159 105.83C5.55769 102.485 3.87583 121.473 2.79643 127.685C0.637632 139.908 2.72112 149.666 5.15605 161.562C12.1345 158.871 20.2174 159.625 26.5683 163.523Z" fill="#F6F6F6" stroke="#666666" stroke-width="2" id="UPMUZ" name="Muzaffarnagar" />
<path d="M121.556 132.313C120.677 145.592 119.522 159.877 128.559 170.314C130.617 172.703 129.613 179.519 129.513 184.222C129.387 189.453 128.885 194.558 127.379 199.588C143.42 200.016 157.552 204.92 173.718 201.449C179.165 200.267 186.52 200.594 188.955 195.539C190.461 192.421 190.863 190.434 190.788 187.013C194.478 185.957 196.21 183.065 197.139 179.67C198.595 174.313 200.402 167.346 204.996 163.775C207.079 162.14 209.615 161.134 212.25 160.807C216.342 160.279 214.911 157.11 218.375 156.507C224.124 155.501 241.796 153.287 230.148 145.491C221.086 139.43 212.049 133.947 203.138 127.534C197.088 123.183 190.888 118.53 186.796 112.168C183.106 106.433 181.148 99.6429 175.977 94.9147C171.082 90.4632 166.991 90.765 161.242 93.0536C155.77 95.2165 150.247 93.28 147.034 99.0393C143.972 104.547 137.822 104.145 134.86 108.923C132.776 112.293 130.919 121.397 125.095 118.505C124.995 121.775 125.773 130.829 121.556 132.313Z" fill="#F6F6F6" stroke="#666666" stroke-width="2" id="UPBJN" nam="Bijnor" />
<path d="M200.352 170.364C198.243 176.777 195.884 181.304 193.248 186.661C198.946 186.636 199.825 193.779 200.126 198.029C200.603 204.643 204.017 208.139 205.724 214.15C207.556 220.689 198.243 221.77 195.783 226.121C192.369 232.182 196.135 238.294 187.173 239.903C181.5 240.935 175.726 240.582 170.003 240.884C166.012 241.085 169.702 260.778 169.25 264.802C168.773 269.027 166.589 272.674 165.936 276.874C164.983 283.01 165.359 282.18 169.878 285.45C175.35 289.423 178.362 295.007 185.617 295.786C193.198 296.616 199.097 293.196 206.326 292.114C209.74 285.953 212.351 284.67 219.605 285.073C223.923 285.324 225.68 286.858 226.985 281.828C227.638 279.364 227.111 276.522 226.609 274.107C225.479 268.775 223.396 261.381 218.852 257.86C216.969 257.232 216.543 255.798 217.522 253.484C216.568 249.812 217.923 248.58 221.588 249.762C226.81 249.712 231.93 251.196 234.064 245.814C237.679 236.735 236.474 230.296 230.6 222.701C226.609 217.545 226.132 211.107 228.416 204.995C229.822 201.248 232.884 201.776 234.717 198.079C236.499 194.483 238.131 190.509 241.193 187.768C238.834 188.12 236.022 188.522 233.788 187.365C229.571 185.152 232.282 180.852 228.14 179.066C224.45 177.456 222.442 173.759 220.007 170.792C216.718 166.793 212.551 166.893 214.886 160.681C208.51 160.43 202.36 164.177 200.352 170.364Z" fill="#F6F6F6" stroke="#666666" stroke-width="2" id="UPMRB" name="Moradabad" />
<path d="M233.035 201.298C225.153 201.324 226.408 216.74 229.22 220.89C236.198 231.176 237.955 237.238 232.633 249.159C227.236 250.039 217.622 247.071 217.497 253.51C217.396 258.137 220.233 258.59 222.392 262.513C225.881 268.851 229.822 279.263 225.053 285.852C231.479 287.261 231.127 288.191 236.75 285.022C240.541 282.884 244.657 281.552 248.498 279.59C256.882 275.264 266.371 267.946 272.772 261.029C277.24 256.201 275.157 248.605 279.826 243.349C282.687 240.13 286.076 237.565 288.612 234.044C291.498 230.07 293.632 224.99 297.975 222.324C296.092 215.156 287.206 215.357 281.734 212.39C277.993 210.378 274.579 207.837 270.764 205.951C265.041 203.16 262.329 205.901 261.953 198.985C261.602 192.521 259.644 188.045 252.69 187.114C240.34 185.429 238.332 191.767 233.035 201.298Z" fill="#F6F6F6" stroke="#666666" stroke-width="2" id="UPRAM" name="Rampur"/>
<path d="M286.402 236.81C282.185 241.538 277.24 244.732 275.834 251.321C274.353 258.162 273.6 260.451 267.877 265.104C262.505 269.48 257.409 274.233 251.51 277.88C245.235 281.728 237.754 283.362 232.081 288.216C238.783 291.31 242.925 296.541 244.632 303.683C245.862 308.814 244.783 323.3 250.883 322.797C259.192 322.093 263.534 322.672 269.634 328.582C274.278 333.109 281.984 326.369 287.858 328.381C296.293 331.273 285.499 339.321 290.846 343.621C294.837 346.841 294.234 344.175 297.699 341.861C301.313 339.446 305.204 339.472 309.396 339.346C310.099 331.524 309.823 312.109 322.449 321.691C322.951 317.994 324.734 310.952 320.567 308.537C319.638 302.124 323.177 298.98 327.495 294.956C330.081 292.542 332.515 290.002 331.687 286.255C331.21 284.041 330.557 281.929 330.306 279.64C328.072 279.54 325.261 278.785 324.558 276.295C325.462 273.604 324.508 272.649 321.671 273.403C319.738 273.026 318.408 271.969 317.454 270.284C314.718 265.531 311.379 264.601 312.76 258.464C313.89 253.409 316.651 248.932 317.705 243.852C318.784 238.571 317.73 233.038 319.864 227.957C315.22 226.926 310.451 226.951 305.731 226.926C299.682 226.851 299.431 227.655 298.05 222.299C292.678 225.568 290.444 232.283 286.402 236.81Z" fill="#F6F6F6" stroke="#666666" stroke-width="2" id="UPBAE" name="Bareilly" />
<path d="M312.409 264.651C315.722 266.185 316.149 269.178 318.333 271.668C319.889 273.428 322.324 273.705 324.533 273.654C323.931 276.32 325.11 278.433 327.696 279.263C338.515 282.683 327.194 294.78 323.353 298.855C319.814 302.602 319.839 306.249 322.148 310.222C325.01 315.152 318.76 324.18 326.993 322.345C330.005 321.665 333.143 321.615 336.206 321.741C340.523 321.917 339.092 322.671 340.548 326.092C342.255 330.141 345.694 334.794 350.715 333.737C350.213 321.464 348.355 297.195 365.525 294.629C372.202 293.623 376.294 298.603 382.017 293.045C386.435 288.77 391.556 284.092 396.602 290.932C398.635 283.211 408.726 290.907 409.605 281.049C410.132 275.189 409.63 268.348 402.3 267.87C403.078 263.268 404.183 258.64 406.141 254.365C407.069 252.302 408.224 250.341 409.605 248.53C408.099 245.839 406.467 243.223 404.609 240.759C399.991 234.697 400.392 232.182 392.686 235.15C387.841 237.036 383.348 238.495 380.838 243.374C378.679 247.574 378.478 250.617 373.232 250.592C370.847 250.592 368.487 250.466 366.128 250.265C366.328 248.454 366.404 246.065 364.998 244.606C363.391 242.947 360.856 243.374 358.873 242.569C358.07 242.267 357.518 241.714 357.191 240.935C356.036 238.017 352.547 238.872 349.585 239.576C349.435 235.527 349.786 231.478 349.635 227.429C346.523 226.725 343.31 226.851 340.172 227.278C333.093 228.234 326.968 229.567 319.839 228.008C317.68 233.088 318.76 238.646 317.68 243.902C316.199 250.894 311.329 257.206 312.409 264.651Z" fill="#F6F6F6" stroke="#666666" stroke-width="2" id="UPPIB" name="Pilibhit" />
<path d="M409.128 285.626C405.865 288.191 401.447 285.877 398.233 288.166C394.719 290.656 399.087 294.956 400.091 297.924C402.476 304.916 401.447 314.598 398.986 321.414C395.623 330.719 385.055 328.129 385.607 340.176C385.883 346.262 384.829 345.759 379.607 348.199C376.896 349.481 371.951 351.292 370.621 354.31C370.445 352.65 371.048 351.317 372.378 350.336C367.86 352.65 362.764 355.366 360.078 359.868C356.287 366.181 361.032 371.487 363.442 377.171C364.521 379.711 364.747 382.453 364.847 385.169C369.014 384.917 373.231 384.867 377.323 385.747C385.13 387.382 390.602 392.89 397.229 396.889C397.756 390.702 401.271 386.426 406.693 383.811C411.688 381.396 417.663 375.662 421.403 380.868C424.214 384.792 427.829 387.684 432.674 384.565C434.557 383.358 435.862 381.321 435.736 379.007C440.305 378.605 444.848 379.384 449.342 380.114C454.613 380.969 461.893 382.755 466.587 379.208C471.482 375.511 475.072 372.468 481.699 373.298C487.623 374.028 493.196 376.719 498.542 379.208C501.053 380.39 503.563 381.598 506.148 382.604C510.466 384.289 510.014 389.545 510.792 393.695C519.603 373.022 508.659 351.468 497.488 334.039C492.116 325.614 485.188 317.29 483.531 307.154C481.648 295.635 487.497 284.343 493.848 275.138C498.216 268.826 497.94 268.398 493.221 262.337C490.409 258.716 487.221 255.371 483.632 252.504C475.272 245.864 465.357 242.846 455.04 240.759C443.669 238.47 431.318 237.162 420.123 240.985C408.576 244.933 404.208 256.804 402.35 267.845C411.764 268.449 409.755 279.112 409.128 285.626Z" fill="#F6F6F6" stroke="#666666" stroke-width="2" id="UPLMP" name="Lakhimpur Kheri"/>
<path d="M495.781 331.424C505.571 346.338 516.315 364.621 513.83 383.207C512.6 392.538 508.96 396.084 516.34 404.132C521.787 410.067 521.611 415.927 521.988 423.598C522.289 429.835 526.808 434.488 527.008 439.392C527.234 444.497 530.372 444.321 529.293 449.427C528.238 454.507 529.996 454.23 533.886 455.362C541.091 457.5 542.371 463.687 542.12 470.452C541.995 473.721 541.568 476.966 541.442 480.21C541.191 486.196 547.141 477.217 549.073 475.834C554.37 472.036 565.867 465.296 564.612 457.349C563.407 449.804 563.909 444.648 560.771 437.154C558.863 432.601 552.261 421.133 555.299 416.229C559.215 409.967 567.022 404.258 554.27 403.755C548.873 403.528 550.931 398.096 550.027 393.468C549.174 389.092 547.768 384.842 545.986 380.768C544.505 377.423 544.153 373.424 541.919 370.456C539.961 367.841 536.899 366.181 536.823 362.609C536.698 357.655 542.195 359.893 546.011 359.717C547.442 356.85 549.626 354.335 551.835 352.047C557.533 346.111 563.708 341.509 572.142 341.031C565.315 320.207 555.173 300.615 543.752 281.954C534.389 266.663 522.214 252.327 502.483 258.741C503.387 259.093 504.065 260.074 504.969 260.476C496.183 271.542 486.117 283.186 483.581 297.572C481.272 310.65 489.029 321.137 495.781 331.424Z" fill="#F6F6F6" stroke="#666666" stroke-width="2" id="UPBAH" name="Bahraich" />
<path d="M546.011 359.767C541.467 359.969 534.941 357.68 537.1 364.571C538.104 367.765 541.819 369.601 543.199 372.745C545.183 377.297 546.864 382.352 548.396 387.055C549.425 390.224 550.153 393.468 550.579 396.788C551.157 401.139 549.073 403.553 554.295 403.755C569.783 404.383 555.901 410.721 554.872 417.386C553.416 426.842 561.926 438.486 564.361 447.415C575.858 436.65 580.2 455.261 589.689 454.054C597.571 453.048 594.483 436.097 594.86 430.967C601.738 430.967 622.573 446.71 618.255 428.502C617.251 424.201 613.26 421.561 609.444 419.976C606.231 418.643 604.273 419.674 604.273 415.6C604.298 412.607 605.026 409.614 606.106 406.823C610.122 396.36 619.787 392.06 624.506 382.503C629.401 372.594 641.575 375.059 650.863 375.31C655.532 372.292 654.403 369.953 652.495 364.395C650.386 358.258 646.546 352.902 641.4 348.953C631.007 341.006 617.678 341.056 605.202 341.559C583.213 342.489 558.085 335.573 546.011 359.767Z" fill="#F6F6F6" stroke="#666666" stroke-width="2" id="" name=""/>
<path d="M649.658 375.285C643.056 375.285 632.79 373.097 627.393 378.077C624.732 380.541 623.878 384.389 621.971 387.357C619.561 391.129 615.017 392.89 612.181 396.335C608.817 400.41 599.152 416.581 606.934 419.071C616.222 422.064 620.515 428.25 616.825 437.782C625.61 439.543 626.313 448.924 632.589 453.652C617.804 462.957 636.957 468.39 642.329 473.621C646.194 477.393 650.788 478.676 655.557 475.155C659.549 472.212 659.273 463.687 662.937 463.737C661.758 454.155 662.109 445.201 668.686 437.33C675.413 429.307 687.513 433.884 696.374 433.331C694.592 430.413 694.792 426.767 695.37 423.547C696.223 418.844 699.085 419.825 701.369 416.053C704.231 411.35 704.231 405.087 708.247 401.038C708.222 401.592 708.222 402.17 708.197 402.723C710.908 399.529 714.673 397.618 718.815 397.014C723.836 396.285 722.556 392.286 720.372 388.061C716.782 381.12 709.151 376.618 702.022 374.053C692.684 370.683 683.622 372.845 674.033 373.248C669.565 373.424 665.147 372.695 660.678 372.72C656.687 372.77 653.198 375.285 649.658 375.285Z" fill="#F6F6F6" stroke="#666666" stroke-width="2"/>
<path d="M708.172 402.723C708.172 402.17 708.197 401.617 708.222 401.038C704.206 405.088 704.206 411.35 701.344 416.053C700.139 418.04 698.382 419.549 696.098 420.177C695.019 424.302 693.964 429.407 696.349 433.331C682.794 434.161 670.92 429.106 664.444 444.648C661.632 451.388 662.034 456.695 662.913 463.737C669.138 463.838 674.56 466.579 677.447 472.212C679.053 475.331 678.024 478.098 682.016 477.494C685.756 476.916 688.643 475.708 692.031 474.124C698.809 470.955 704.131 476.362 709.503 479.833C715.201 483.505 722.179 484.209 727.802 488.157C730.563 486.9 733.751 486.598 736.764 486.548C740.705 486.472 742.06 483.429 746.353 483.052C744.068 475.935 747.407 474.803 750.118 469.396C753.381 462.857 751.198 455.689 758.653 451.439C762.594 449.175 768.719 448.144 770.602 443.441C772.71 438.235 770.853 430.413 768.292 425.71C759.783 410.268 724.087 384.012 708.172 402.723Z" fill="#F6F6F6" stroke="#666666" stroke-width="2"/>
<path d="M810.565 418.241C795.754 418.819 770.752 411.3 771.154 435.091C771.38 449.1 762.393 445.73 755.038 454.306C750.796 459.235 752.98 466.453 748.888 471.131C747.533 472.69 742.11 483.228 746.905 483.002C744.646 475.306 767.539 479.808 770.853 480.084C770.953 485.416 769.773 491.125 775.597 493.69C781.521 496.281 787.746 497.739 793.344 501.16C797.938 503.951 797.336 503.323 802.105 500.229C805.594 497.941 809.586 496.482 813.225 494.47C820.48 490.521 820.681 485.039 823.944 478.299C825.877 474.3 828.964 474.25 829.241 469.597C829.492 465.548 829.943 461.473 832.102 457.927C834.713 453.677 840.863 455.287 844.051 451.061C833.859 451.288 833.006 438.939 832.353 431.495C832.127 428.904 831.274 414.141 828.839 413.965C822.388 413.513 816.915 417.989 810.565 418.241Z" fill="#F6F6F6" stroke="#666666" stroke-width="2"/>
<path d="M841.44 453.677C835.366 456.67 831.776 455.261 829.943 463.41C828.939 467.937 830.27 471.357 826.781 474.451C823.668 477.167 822.865 481.266 821.584 484.989C818.472 494.068 809.385 495.476 802.105 500.204C799.093 502.166 794.624 503.65 799.444 505.989C801.904 507.196 802.281 511.245 802.557 513.584C803.335 520.224 803.46 526.209 805.117 532.773C809.761 532.396 814.405 532.874 819.024 533.201C821.308 533.402 823.567 533.503 825.852 533.503C831.098 533.503 828.337 532.321 830.42 528.825C837.173 517.507 855.774 543.739 859.363 546.958C865.689 552.642 872.743 546.857 880.575 547.234C886.373 547.511 904.648 552.239 907.635 544.543C909.016 540.972 904.874 538.105 901.912 537.753C900.18 537.627 898.448 537.627 896.716 537.753C892.524 537.904 895.41 536.345 893.201 533.88C892.197 532.849 890.942 532.396 889.486 532.547C888.758 530.233 888.331 527.869 888.181 525.455C887.679 518.564 890.691 513.835 882.357 514.011C874.324 514.162 863.154 514.54 861.698 504.103C860.819 497.815 865.388 487.202 858.836 482.901C852.059 478.45 851.255 480.286 851.28 471.533C851.306 463.963 843.223 458.833 844.227 451.036C844.553 451.036 841.365 453.702 841.44 453.677Z" fill="#F6F6F6" stroke="#666666" stroke-width="2"/>
<path d="M847.64 533.503C844.176 530.887 836.143 523.77 831.525 527.592C830.571 528.473 829.943 529.529 829.642 530.812C828.462 534.861 826.605 533.679 822.488 533.477C816.714 533.201 810.916 532.371 805.117 532.823C806.297 537.426 810.363 551.082 803.736 553.673C797.285 556.188 788.324 554.654 789.604 564.89C790.859 575 800.272 571.705 806.573 577.59C809.359 580.181 811.895 583.274 813.702 586.619C816.539 591.926 813.175 592.127 811.167 596.88C815.61 596.226 817.894 590.442 822.94 589.461C828.286 588.405 832.679 591.724 835.491 595.975C840.938 604.199 853.163 613.756 863.932 610.235C861.12 607.594 858.736 604.601 857.43 600.954C863.405 601.432 880.123 599.043 880.198 590.844C880.223 587.55 878.968 581.715 876.885 579.049C874.399 575.855 868.45 577.112 864.986 576.157C857.581 574.094 843.448 570.825 849.021 560.237C851.23 556.062 855.924 556.842 859.765 555.936C863.128 555.131 863.831 552.491 866.166 550.403C857.029 548.517 854.393 538.608 847.64 533.503Z" fill="#F6F6F6" stroke="#666666" stroke-width="2"/>
<path d="M851.632 609.329C847.089 606.613 843.047 602.891 838.102 600.904C838.805 602.539 839.407 604.199 839.884 605.909C835.893 606.16 832.529 606.236 829.969 609.581C826.429 614.233 824.522 615.114 819.401 617.428C816.564 618.71 815.234 625.224 817.995 627.211C821.534 629.751 827.082 627.739 827.71 634.052C828.488 641.722 819.024 642.929 826.705 649.091C831.927 653.291 838.202 655.278 844.101 658.221C847.49 659.906 849.247 662.094 849.975 665.816C851.506 673.562 853.891 681.409 855.021 689.205C858.987 687.57 863.857 687.596 865.94 683.194C867.647 679.598 866.744 674.618 870.484 672.254C875.755 668.909 885.068 672.355 883.939 679.422C890.917 680.252 892.649 673.512 898.498 671.55C906.029 668.985 913.384 675.071 920.714 675.725C933.993 676.907 937.532 662.345 925.358 657.164C910.296 650.751 896.138 643.055 882.081 634.479C874.927 630.103 876.433 622.131 870.685 616.346C868.024 613.68 865.338 609.883 861.598 610.838C858.134 611.744 854.795 611.215 851.632 609.329Z" fill="#F6F6F6" stroke="#666666" stroke-width="2"/>
<path d="M839.432 656.133C833.206 653.467 827.081 650.399 822.663 645.117C819.35 650.55 814.53 648.035 808.882 646.425C803.636 644.941 798.766 645.042 793.394 645.47C789.805 645.746 785.914 646.149 782.701 647.884C777.278 650.801 780.818 655.429 772.911 653.668C773.789 658.422 758.301 653.995 754.611 659.05C764.451 665.262 745.574 674.618 739.55 674.065C740.152 677.209 741.232 688.124 737.667 688.149C740.654 691.117 739.826 691.946 744.093 691.192C748.11 690.488 752.226 690.337 756.192 691.343C760.686 692.5 764.376 695.317 768.919 696.322C773.287 697.278 777.831 697.278 782.199 698.234C800.975 702.283 796.683 716.518 798.666 730.904C807.451 726.326 814.555 720.844 824.094 717.675C835.215 713.978 836.194 705.628 842.795 697.354C845.632 693.808 849.674 692.802 853.062 690.312C857.003 687.394 852.46 679.321 851.431 674.694C849.096 664.407 849.774 660.559 839.432 656.133Z" fill="#F6F6F6" stroke="#666666" stroke-width="2"/>
<path d="M788.751 700.648C781.596 696.675 773.162 698.133 765.656 695.417C756.594 692.122 750.896 689.582 741.031 691.846C741.633 692.701 744.771 693.003 745.951 692.776C746.051 694.537 746.905 696.021 748.135 697.228C750.269 699.366 753.934 700.95 754.26 704.345C754.662 708.419 751.474 711.563 748.11 713.122C743.642 715.185 741.884 721.824 738.37 722.076C743.591 726.075 757.749 749.64 746.302 750.621C741.182 751.074 742.663 753.463 742.863 758.292C743.014 762.165 743.391 766.013 743.29 769.886C743.215 772.778 742.387 775.821 743.039 778.713C743.792 782.134 746.93 784.649 746.88 788.295C745.022 788.346 743.265 788.748 741.558 789.452C746.83 795.715 752.352 801.776 761.038 802.103C768.242 802.354 776.877 799.915 783.554 803.511C776.877 797.425 776.952 784.85 774.266 776.676C770.727 765.811 772.961 753.639 778.208 743.654C780.191 739.907 783.027 736.612 787.044 734.978C789.93 733.796 793.068 733.393 795.955 732.161C800.172 730.375 798.114 728.439 798.189 724.415C798.44 714.38 798.566 706.106 788.751 700.648Z" fill="#F6F6F6" stroke="#666666" stroke-width="2"/>
<path d="M751.875 799.512C747.005 796.192 743.516 787.465 737.868 791.489C736.864 784.976 732.069 782.486 725.894 783.366C718.288 784.448 712.891 786.032 704.984 784.523C698.985 783.366 699.612 783.693 697.027 788.145C695.646 790.559 693.387 792.294 690.851 793.351C685.103 795.765 677.698 795.363 672.175 792.495C671.698 796.997 672.652 801.826 670.544 806.051C668.711 809.698 666.502 812.112 666.352 816.463C672.251 816.841 682.317 817.997 686.333 812.364C693.713 811.056 698.156 814.552 698.683 821.619C701.093 824.637 711.661 824.587 707.645 832.157C705.235 836.684 698.056 836.256 694.165 834.37C693.738 838.52 691.228 847.448 697.78 846.241C697.93 850.063 697.604 853.911 697.729 857.734C699.888 857.684 702.499 858.061 703.779 860.048C708.222 866.939 698.759 878.634 696.876 885.147C696.299 887.159 695.947 889.197 695.771 891.259C692.935 890.63 689.872 890.404 689.772 893.749C689.672 897.471 697.177 899.734 698.934 904.06C700.24 907.279 698.206 913.039 703.603 912.712C702.901 917.616 706.791 919.401 710.933 920.106C713.996 920.634 718.74 919.98 719.619 923.149C720.573 926.594 723.886 928.631 727.024 929.788C734.63 932.63 744.319 932.706 752.101 930.467C763.121 927.273 757.071 917.213 760.586 909.518C762.519 905.242 767.238 908.486 767.539 903.783C767.84 898.955 773.965 900.212 777.153 900.036C776.35 894.302 769.346 890.253 775.145 884.77C778.609 881.501 785.763 879.79 781.345 873.83C775.446 865.857 783.856 863.368 785.035 856.477C785.788 852.075 775.496 841.286 785.01 839.576C798.49 837.136 802.105 821.77 793.47 811.76C789.629 807.309 783.755 802.304 777.731 801.851C769.547 801.248 759.155 804.467 751.875 799.512Z" fill="#F6F6F6" stroke="#666666" stroke-width="2"/>
<path d="M666.929 812.666C667.732 810.251 669.414 808.289 670.543 806.051C672.652 801.826 671.698 796.997 672.175 792.495C677.145 795.061 683.471 795.564 688.843 794.055C694.767 792.37 697.453 783.592 701.72 784.02C710.029 784.875 715.728 785.454 723.911 783.718C730.588 782.31 736.713 783.894 737.868 791.489C740.453 789.653 743.666 788.346 746.879 788.295C746.93 782.637 742.436 779.065 743.064 772.753C743.415 769.207 743.265 765.686 743.064 762.114C742.763 757.059 740.579 751.099 746.302 750.621C752.477 750.093 750.143 741.265 748.461 736.286C747.156 732.463 742.562 722.529 737.868 722.101C737.893 725.371 740.278 727.86 740.83 731.004C735.885 732.589 731.14 728.64 726.22 730.727C722.304 732.387 719.493 736.26 715.276 737.317C711.059 738.373 708.799 735.254 706.892 732.136C704.356 728.036 700.792 726.829 696.123 726.729C694.064 726.829 692.031 726.527 690.073 725.899C685.228 724.113 688.14 724.717 685.052 727.332C682.668 729.369 678.4 728.565 675.564 728.539C670.794 728.514 665.824 729.973 661.105 728.967C655.206 727.709 651.114 728.967 645.391 728.615C641.374 728.389 625.761 720.718 629.401 731.457C631.484 737.593 639.115 740.511 642.78 745.591C648.529 753.538 640.37 758.996 634.672 763.447C625.434 770.691 624.958 784.397 615.519 792.143C621.016 791.716 619.385 794.558 619.41 799.386C624.355 799.814 629.35 799.588 634.27 800.015C634.446 804.693 633.994 809.371 634.17 814.049C636.881 814.2 639.592 814.351 642.303 814.527C642.328 817.243 642.328 819.959 642.353 822.675C647.7 821.77 648.102 829.114 652.896 827.982C653.449 823.832 651.917 819.758 652.62 815.633C654.704 815.608 656.787 815.684 658.871 815.86C664.669 816.287 665.121 818.148 666.929 812.666Z" fill="#F6F6F6" stroke="#666666" stroke-width="2"/>
<path d="M625.36 778.99C627.82 773.457 629.652 767.346 634.622 763.447C638.689 760.253 644.086 757.688 644.663 751.904C645.492 743.755 635.024 739.58 630.832 734.123C628.773 731.457 627.945 727.584 631.409 725.622C633.618 724.365 635.777 719.888 638.086 717.373C640.672 714.581 639.116 709.124 642.806 707.439C649.659 704.295 642.329 699.416 640.019 694.864C636.831 688.576 641.4 683.32 635.35 677.988C630.957 674.115 626.615 678.441 622.473 675.901C619.059 673.813 617.829 676.228 614.942 672.355C611.88 668.23 609.269 664.458 604.65 661.867C599.655 659.076 593.931 659.126 588.384 659.05C583.79 658.975 577.715 655.328 573.548 658.371C569.582 661.289 567.248 666.998 565.315 671.374C562.478 677.762 557.081 674.367 552.211 677.133C561.248 678.743 560.094 688.602 568.879 689.608C574.578 690.261 580.15 691.695 585.823 692.475C588.158 692.827 590.518 692.978 592.877 692.952C593.229 695.618 593.103 698.334 591.572 700.648C590.769 702.409 589.438 703.339 587.555 703.44C584.242 703.641 584.97 706.206 583.389 708.269C581.18 711.161 581.707 712.494 577.766 713.45C572.695 714.682 567.122 712.796 561.951 713.248C555.575 713.802 548.697 714.959 542.472 716.442C545.007 723.459 545.911 731.054 545.158 738.474C550.103 737.92 557.508 737.468 558.336 744.158C558.964 749.338 555.073 753.916 555.6 759.046C564.537 759.776 568.051 756.204 572.77 765.057C576.435 771.898 586.602 768.729 592.701 769.257C596.969 769.634 590.267 788.723 599.379 792.018C611.503 796.444 620.615 789.679 625.36 778.99Z" fill="#F6F6F6" stroke="#666666" stroke-width="2"/>
<path d="M542.547 716.518C537.401 717.725 533.861 719.813 528.841 716.895C524.875 714.581 521.511 710.884 516.817 710.054C508.232 708.52 502.282 706.408 497.136 698.989C506.048 694.939 494.3 688.979 489.807 688.048C482.954 686.615 481.899 683.194 480.795 676.731C480.569 680.755 479.866 684.854 478.285 688.602C476.477 692.827 472.26 694.663 470.478 698.335C466.838 705.854 456.822 707.565 450.07 711.739C442.74 716.292 442.966 723.51 443.342 731.457C443.543 735.607 444.246 739.002 446.932 742.372C450.798 747.201 455.19 742.246 455.693 750.068C456.747 748.106 456.998 745.566 456.822 743.378C459.834 743.277 462.847 743.328 465.859 743.629C465.031 746.698 462.169 746.949 460.788 749.59C459.508 752.055 459.885 754.972 459.734 757.613C459.307 764.001 458.127 770.439 454.513 775.821C459.96 777.406 463.198 772.577 467.641 770.59C471.984 768.628 472.511 771.998 476.628 772.854C485.69 774.715 495.304 773.306 504.441 772.929C501.278 765.912 507.403 761.285 509.964 755.425C511.369 752.231 510.767 749.062 508.709 746.27C510.064 745.013 511.671 744.434 513.528 744.56C517.871 744.661 516.214 747.377 517.118 750.797C519.603 746.346 523.168 741.869 528.941 743.554C529.142 749.037 533.811 754.268 539.635 753.664C538.681 748.332 543.626 744.359 541.919 738.851C549.349 738.574 544.379 721.649 542.547 716.518Z" fill="#F6F6F6" stroke="#666666" stroke-width="2"/>
<path d="M444.849 716.291C450.396 706.81 465.583 708.369 470.453 698.309C472.712 693.631 477.532 691.544 479.264 685.81C480.092 683.094 483.079 671.273 477.381 670.997C472.863 670.77 474.269 675.146 471.081 670.167C469.725 668.029 468.018 666.067 465.91 664.634C461.466 661.59 455.944 661.54 450.748 661.54C440.079 661.565 423.863 660.434 418.441 649.192C416.659 645.52 420.349 644.438 421.729 641.697C424.767 635.611 406.266 637.22 402.551 636.944C397.23 636.541 392.837 641.496 388.845 645.293C385.281 648.663 389.624 653.09 391.556 656.234C394.619 661.213 394.669 666.973 390.954 671.625C389.172 673.838 386.862 675.599 384.377 676.982C380.762 678.994 381.44 679.9 380.687 683.873C379.382 690.664 377.625 691.544 372.428 695.694C369.341 698.158 367.785 711.161 371.575 712.418C371.625 709.425 376.57 707.64 378.729 706.81C382.821 705.251 388.394 702.358 388.695 707.74C389.172 715.612 398.861 726.703 406.417 729.52C407.823 737.87 399.564 738.297 395.924 743.705C392.636 748.609 399.74 748.433 395.698 753.337C392.561 754.544 387.113 757.059 386.511 760.631C388.921 760.907 391.331 760.957 393.765 760.756C396.953 761.31 398.158 760.128 397.355 757.26C398.359 753.614 402.451 751.753 405.94 752.884C412.442 754.972 406.317 765.51 411.161 765.837C416.634 766.214 416.659 759.373 416.182 755.626C415.906 753.413 415.404 751.149 414.575 749.062C417.211 747.05 422.257 745.968 423.863 749.891C427.252 742.447 429.11 744.761 432.398 750.571C434.858 754.896 442.288 752.583 446.179 752.96C445.526 748.181 438.749 744.484 448.664 744.585C443.418 737.769 440.029 724.54 444.849 716.291Z" fill="#F6F6F6" stroke="#666666" stroke-width="2"/>
<path d="M370.897 697.63C372.428 694.361 376.595 694.059 378.654 691.116C380.009 689.18 380.26 686.036 380.687 683.823C381.44 679.849 380.762 678.969 384.377 676.932C387.59 675.146 390.628 672.682 392.385 669.387C396.501 661.792 390.678 656.359 387.741 649.795C385.456 644.69 396.05 639.761 398.711 636.541C391.732 635.686 386.812 633.096 382.67 627.261C380.813 632.467 379.281 635.485 374.838 630.304C372.202 627.211 370.721 623.162 369.642 619.289C368.312 614.485 369.818 611.014 364.546 610.813C359.074 610.612 353.878 608.6 350.288 604.375C349.108 606.739 346.899 605.934 344.464 605.984C345.669 613.001 348.38 621.502 344.565 628.192C338.942 638.05 331.386 633.423 323.328 631.034C318.96 629.751 314.316 629.726 309.798 629.852C307.514 629.927 305.204 629.977 302.92 630.028C297.347 630.078 299.883 632.543 299.205 637.195C298.377 642.955 282.612 646.727 276.989 645.872C276.814 651.38 275.985 656.812 276.01 662.345C276.035 666.017 276.161 669.689 276.061 673.336C275.935 678.617 276.839 676.857 281.257 678.34C292.929 682.213 303.723 687.696 316.4 684.578C328.801 681.534 334.499 676.907 346.397 684.98C353.978 690.136 364.396 700.17 361.183 710.432C364.295 710.557 367.433 711.161 370.42 712.066C369.692 707.539 368.889 701.956 370.897 697.63Z" fill="#F6F6F6" stroke="#666666" stroke-width="2" id="UPGRM" name="Hamirpur"/>
<path d="M360.354 700.497C354.857 687.998 339.344 676.127 325.563 681.283C316.902 684.527 309.372 686.413 300.059 684.653C291.674 683.068 284.294 678.315 275.91 676.957C275.383 684.25 270.865 688.451 268.756 695.04C267.149 700.07 259.167 698.762 260.522 706.558C261.602 712.695 272.597 710.884 273.174 716.241C273.877 722.83 281.834 720.919 286.428 721.321C287.683 728.59 257.912 748.709 278.044 751.929C278.747 748.257 274.605 743.529 279.274 741.139C283.692 738.876 288.863 741.567 293.457 741.391C293.105 738.323 293.908 732.739 298.326 735.229C300.008 736.185 301.289 737.82 302.142 739.53C303.774 742.799 305.882 742.045 309.497 742.196C316.501 742.472 323.504 742.07 330.483 741.768C335.403 741.542 333.771 739.48 333.922 735.129C334.223 727.106 334.7 722.529 342.732 724.893C349.51 726.879 362.061 718.228 357.518 710.608C363.166 709.652 362.664 705.779 360.354 700.497Z" fill="#F6F6F6" stroke="#666666" stroke-width="2" id="UPMAN" name="Mahoba" />
<path d="M268.204 697.781C268.781 692.198 273.098 688.274 274.881 683.169C277.516 675.674 275.86 666.545 276.061 658.749C276.211 652.662 280.202 646.35 273.048 645.243C265.041 644.011 256.556 644.916 248.724 643.382C238.558 641.37 241.219 627.789 233.161 624.998C227.563 623.061 220.81 626.029 216.242 621.477C212.978 623.614 208.385 635.938 207.807 640.062C205.623 638.05 203.163 637.623 202.184 640.842C201.13 644.262 203.289 648.99 199.423 649.317C199.197 654.373 205.799 657.592 204.996 662.722C203.866 670.141 192.871 665.69 188.453 669.261C182.404 674.14 176.881 674.14 169.376 673.109C163.452 672.279 154.766 670.896 153.687 678.843C153.059 683.571 156.197 690.412 149.319 689.054C139.403 687.092 141.186 694.486 140.734 701.906C140.458 706.382 139.88 711.261 141.387 715.587C142.19 717.901 143.822 719.787 146.357 720.19C149.67 720.718 150.725 724.968 151.503 728.514C159.41 729.093 166.439 729.369 174.045 726.779C173.944 719.335 172.162 713.273 164.004 712.544C160.464 712.242 151.904 709.451 159.636 707.464C167.819 705.376 167.619 695.618 175.676 693.732C180.948 692.475 183.634 695.442 184.337 700.472C184.914 704.572 193.549 705.452 195.432 700.824C196.21 698.888 196.386 696.624 196.587 694.587C203.013 695.342 203.138 694.386 203.364 688.501C203.54 683.848 207.054 685.533 210.543 682.892C213.455 680.704 215.966 678.013 219.43 676.63C222.542 681.71 216.242 684.628 215.915 689.356C215.564 694.486 220.358 698.284 220.509 703.314C216.317 703.49 211.02 703.515 207.707 706.533C202.084 711.639 206.251 715.964 210.845 719.033C211.899 714.682 210.468 710.608 215.79 710.079C221.086 709.526 220.057 713.299 219.078 717.197C218.325 720.19 216.267 722.252 213.531 723.56C212.401 726.905 213.229 731.708 217.472 728.263C220.459 725.823 219.48 724.691 223.546 723.006C225.781 722.076 229.847 720.517 231.178 723.711C232.081 725.899 230.55 728.187 231.203 730.4C232.081 733.393 234.893 732.086 234.19 736.436C237.78 736.587 240.616 734.097 244.13 733.846C248.197 733.519 252.013 736.26 255.954 736.864C262.129 737.845 263.384 735.732 262.982 729.897C265.718 729.621 265.568 726.427 265.267 724.44C263.911 716.241 253.268 699.19 268.204 697.781Z" fill="#F6F6F6" stroke="#666666" stroke-width="2" id="UPJHA" name="Jhansi"/>
<path d="M151.478 728.54C151.528 729.646 151.553 730.728 151.603 731.834C147.461 730.954 145.955 733.62 144.098 736.688C143.345 737.92 142.366 739.077 140.859 739.354C137.722 739.907 138.876 742.12 138.701 745.239C138.199 753.865 128.308 770.087 117.313 767.321C116.485 775.394 124.468 786.434 127.103 793.828C128.735 798.381 130.442 803.536 129.839 808.441C129.237 813.395 123.313 814.149 123.539 817.997C123.915 824.26 131.295 823.128 135.462 825.19C140.859 827.856 140.709 834.269 140.056 839.4C139.68 842.267 139.102 845.084 138.801 847.951C138.299 852.78 140.709 852.126 145.177 852.729C150.599 853.434 148.591 848.353 149.896 844.43C151.051 840.959 153.411 838.344 156.398 836.307C157.954 844.631 169.451 839.802 172.99 846.719C176.103 852.805 174.572 862.613 183.508 863.695C181.751 853.434 196.938 856.753 196.336 864.877C202.937 862.965 207.581 857.332 213.757 854.59C219.379 852.101 215.79 843.047 222.844 839.626C220.534 836.835 218.702 833.565 215.915 831.176C213.832 829.39 207.807 828.032 211.698 824.335C212.853 823.405 214.183 823.078 215.664 823.354C216.016 821.116 216.317 818.878 216.543 816.639C216.668 812.716 214.66 811.408 212.426 808.742C209.74 805.523 211.472 804.115 205.975 805.397C202.285 806.278 198.745 807.812 194.905 807.862C189.583 807.963 192.219 801.625 192.947 797.903C194.026 792.37 195.582 786.837 195.758 781.178C196.059 771.822 192.52 772.376 185.793 769.282C180.722 766.943 181.877 759.826 182.077 755.374C182.303 750.546 182.956 745.113 181.4 740.435C180.872 738.801 179.893 737.241 178.161 736.688C177.208 736.411 176.229 736.411 175.275 736.613C173.919 733.569 174.045 730.049 173.994 726.804C166.414 729.395 159.385 729.118 151.478 728.54Z" fill="#F6F6F6" stroke="#666666" stroke-width="2" id="UPLAL" name="Lalitpur" />
<path d="M230.801 624.319C239.11 626.456 237.805 635.259 243.378 640.716C247.293 644.539 253.017 643.583 257.962 643.684C264.212 643.81 270.865 644.464 276.964 645.847C282.738 646.727 287.357 644.212 292.553 642.2C296.343 640.741 298.502 642.049 299.205 637.17C299.883 632.517 297.348 630.053 302.92 630.002C309.673 629.952 316.727 629.072 323.328 631.008C328.073 632.417 332.717 636.189 337.838 634.026C346.548 630.329 351.167 606.337 341.151 605.934C327.044 605.356 324.558 593.736 313.94 587.575C305.782 582.821 297.097 576.735 296.82 566.902C288.587 566.223 280.479 564.512 272.446 562.702C268.681 561.846 264.915 560.916 261.1 560.337C258.464 559.96 253.243 561.57 254.146 558.124C249.026 558.2 243.202 555.861 242.901 561.746C242.65 566.348 241.671 570.85 241.369 575.453C240.993 581.312 239.06 577.263 235.746 580.759C233.939 582.671 233.839 585.336 232.709 587.575C231.153 590.618 229.396 588.279 228.592 592.529C227.814 596.604 229.345 600.301 226.358 603.193C221.262 608.122 222.392 617.453 216.217 621.477C220.509 625.752 225.655 622.986 230.801 624.319Z" fill="#F6F6F6" stroke="#666666" stroke-width="2" id="UPJAL" name="Jalaun" />
<path d="M268.956 537.35C270.412 525.404 276.813 514.917 279.098 503.197C279.675 500.229 279.725 497.262 280.077 494.294C280.453 491.075 278.043 492.383 275.483 491.326C273.349 490.446 271.667 488.912 270.237 487.126C267.325 488.157 264.94 488.082 262.179 486.648C257.861 484.41 254.723 482.499 250.029 485.24C245.436 487.931 241.821 491.704 236.022 490.371C231.253 489.264 226.182 485.969 221.237 488.258C214.886 491.201 212.652 486.372 206.652 487.151C208.61 487.805 209.414 487.227 209.037 485.366C203.992 486.498 197.314 487.302 199.925 493.187C201.13 495.929 210.619 506.24 210.594 506.316C212.777 507.875 214.836 509.61 216.995 511.22C216.417 514.716 219.053 516.627 221.965 517.633C226.333 519.142 231.981 519.394 232.859 524.977C233.838 531.189 232.508 536.194 235.922 542.003C237.302 544.367 238.909 546.606 240.239 549.02C242.875 553.874 240.641 558.275 246.615 558.124C250.155 558.049 253.845 559.86 254.723 555.76C255.326 552.968 255.652 550.101 256.355 547.31C257.987 541.022 262.681 538.256 268.956 537.35Z" fill="#F6F6F6" stroke="#666666" stroke-width="2" id="UPETW" name="Etawah" />
<path d="M300.284 561.67C304.602 553.019 304.928 541.902 309.572 533.603C310.275 532.245 311.355 531.365 312.811 530.912C313.564 528.447 313.815 525.957 314.216 523.442C315.07 517.834 319.287 515.369 324.207 513.408C323.63 510.742 316.199 504.756 313.84 502.719C310.827 500.129 307.388 499.751 303.598 499.274C297.322 498.444 292.402 495.124 286.428 493.464C277.743 491.075 280.403 496.356 279.073 503.222C277.843 509.56 275.383 515.52 273.149 521.556C271.266 526.662 270.865 536.696 265.944 537.954C255.075 540.72 256.406 551.158 253.669 559.834C268.179 559.683 282.361 565.694 296.82 566.901C296.77 564.236 297.147 561.947 300.284 561.67Z" fill="#F6F6F6" stroke="#666666" stroke-width="2" id="UPARA" name="Auraiya" />
<path d="M198.695 490.22C188.428 490.622 179.994 490.471 171.233 484.586C168.296 482.599 164.405 480.336 163.451 476.614C162.372 472.439 163.276 468.314 158.883 465.824C151.628 461.725 143.043 467.207 138.198 458.154C135.312 452.772 131.622 436.298 138.625 433.783C133.203 428.301 131.094 423.874 122.409 426.264C116.61 427.873 109.331 432.048 107.498 438.235C105.289 438.335 101.951 438.964 100.068 437.304C97.8087 435.292 93.5915 438.637 90.5792 439.518C82.1699 441.982 74.338 439.266 65.9036 439.442C74.4635 442.033 63.5691 449.93 64.4979 454.859C54.6829 452.419 53.2269 467.157 57.8709 467.358C65.3514 467.711 77.3503 466.881 79.1074 476.614C74.6894 476.387 66.3555 475.13 64.2218 480.436C62.6403 484.36 55.9631 482.473 51.771 482.448C47.5538 482.423 47.3028 483.882 43.6127 485.542C37.3121 488.359 27.8485 507.925 40.4499 507.12C39.496 492.684 53.5282 494.093 63.795 494.973C66.6065 495.224 69.443 495.451 72.2796 495.35C72.0035 491.175 71.3759 485.743 75.8441 485.542C78.8062 485.416 81.944 485.24 84.7806 486.397C87.6924 487.604 89.1986 490.999 91.9347 492.03C96.8046 493.866 102.578 487.101 107.348 486.523C111.74 485.994 107.749 498.519 116.409 496.482C116.535 492.684 117.74 488.912 119.623 485.642C125.07 485.869 122.886 484.41 125.748 481.291C129.563 477.091 130.065 481.971 131.697 484.787C133.429 487.805 136.065 490.396 139.629 490.974C135.086 492.785 135.261 499.726 140.207 500.833C144.926 501.889 149.519 499.953 154.163 499.601C158.632 499.248 162.849 500.984 166.89 502.618C175.325 506.014 183.131 506.089 192.118 505.536C198.318 505.159 195.13 501.286 202.285 502.568C205.372 503.121 208.083 504.48 210.593 506.29C211.095 504.429 206.05 502.694 204.443 500.808C201.833 497.79 200.151 493.967 198.695 490.22Z" fill="#F6F6F6" stroke="#666666" stroke-width="2" id="UPAGR" name="Agra" />
<path d="M70.6984 439.694C81.141 441.152 89.4248 440.7 99.064 436.122C95.5999 430.942 94.5958 424.151 94.0436 418.09C93.5917 412.884 97.8591 406.974 95.8509 402.07C94.4954 398.8 95.1732 394.424 91.2823 391.305C86.0359 387.105 83.0237 383.534 84.9063 376.693C86.8894 369.526 85.1574 366.08 80.7394 360.698C77.0744 356.247 80.3879 349.154 73.4848 347.469C68.2886 346.212 62.5402 346.69 57.2938 347.243C53.3025 347.645 49.3112 348.023 45.2949 348.375C40.5756 348.802 36.735 347.62 38.0152 352.524C39.3205 357.529 30.9614 362.308 29.3549 366.91C27.422 372.418 28.4261 378.479 29.9322 383.937C31.589 389.973 34.049 395.732 36.0572 401.642C37.6387 406.32 37.2621 412.708 39.4962 416.933C43.6632 424.73 63.243 421.485 64.8998 429.81C65.6529 433.607 57.9464 432.249 57.8711 433.633C57.4695 440.021 66.6569 439.115 70.6984 439.694Z" fill="#F6F6F6" stroke="#666666" stroke-width="2"/>
<path d="M76.5725 348.853C80.3629 352.122 78.2041 358.359 82.3711 362.433C86.4879 366.457 86.3624 371.437 84.9064 376.693C81.9193 387.407 93.2906 389.545 95.3992 398.825C102.779 391.029 111.49 392.991 113.021 381.07C114.226 371.689 119.021 362.207 130.091 368.771C134.132 371.16 134.358 376.04 136.165 379.913C139.203 386.452 145.729 388.941 152.482 389.872C155.369 383.937 162.046 383.71 162.473 376.014C162.623 373.248 162.322 370.481 162.598 367.715C166.188 366.105 170.229 365.326 174.17 365.829C174.246 360.396 173.367 353.53 179.316 351.116C184.789 348.878 180.396 340.226 184.814 340.553C182.981 337.912 180.772 335.448 177.911 333.939C176.404 333.134 174.798 332.656 173.091 332.455C168.598 331.902 170.355 330.795 169.953 326.696C162.523 329.663 159.962 330.594 152.306 327.878C145.328 325.413 138.776 329.034 131.948 330.066C125.145 331.097 119.799 326.092 113.347 324.533C106.018 322.747 98.2609 320.886 90.6549 321.565C84.3291 322.118 81.3921 326.469 74.9408 325.916C70.9998 325.589 67.2846 324.306 63.4691 323.401C61.009 322.797 58.3482 322.018 55.8129 321.942C51.7463 321.817 52.8508 325.916 52.9763 328.607C53.0767 330.971 51.8969 333.084 52.4993 335.473C53.0767 337.837 54.8339 339.597 54.5326 342.163C54.2816 344.3 52.8257 347.218 56.0639 347.394C59.9045 347.57 63.4942 346.338 67.2595 346.011C70.2969 345.784 74.2631 346.841 76.5725 348.853Z" fill="#F6F6F6" stroke="#666666" stroke-width="2" id="UPALM" name="Aligarh" />
<path d="M66.0547 324.86C68.7908 324.055 73.6858 326.268 77.5013 325.966C85.9859 325.262 82.9234 319.377 79.2585 314.649C72.029 305.368 67.0588 291.335 65.7032 279.514C65.1008 274.283 65.5526 268.499 65.9543 263.268C62.7914 261.91 62.3144 263.796 61.9128 260.074C61.712 258.187 60.7832 256.553 59.2519 255.421C56.1643 253.082 51.8718 252.73 48.1567 252.277C39.7223 251.221 33.0953 241.412 23.8074 246.065C17.9837 248.983 31.3381 255.019 24.2342 258.866C29.6814 262.161 28.0999 269.052 29.4555 274.434C30.9114 280.194 35.8064 284.092 39.0697 288.82C40.2495 290.53 41.3791 292.291 42.4836 294.076C45.1193 298.327 47.6044 302.778 49.462 307.406C50.3657 309.669 51.169 312.008 51.671 314.372C51.8969 315.428 52.0225 316.51 52.0225 317.591C52.0476 318.798 51.671 320.232 51.8467 321.414C51.9472 322.118 52.2735 322.646 52.1731 323.426C56.089 321.087 62.5403 322.496 66.0547 324.86Z" fill="#F6F6F6" stroke="#666666" stroke-width="2"/>
<path d="M50.039 252.478C53.1768 252.906 56.666 253.434 59.2515 255.396C60.7577 256.553 61.7116 258.162 61.9124 260.048C62.314 263.771 62.791 261.884 65.9539 263.242C66.2802 259.042 73.8862 263.469 77.6264 263.343C79.961 263.268 82.3206 263.066 84.5547 262.387C86.2365 261.859 87.7678 261.004 89.1986 259.998C90.3031 259.244 91.3574 258.439 92.3866 257.609C93.2652 256.905 94.6207 256.93 95.7503 256.854C97.5828 256.703 99.4153 256.729 101.248 256.653C101.348 254.239 101.624 251.623 102.704 249.435C104.561 245.612 108.427 245.939 111.816 247.448C119.372 250.793 127.455 256.628 134.408 261.105C134.157 252.428 132.826 244.053 129.463 236.03C128.258 233.163 126.953 230.321 125.848 227.404C122.108 227.781 118.317 227.454 114.577 227.781C107.825 228.385 99.7416 225.191 94.4952 231.076C91.0311 234.974 88.4204 241.89 81.8436 240.18C76.9236 238.897 77.3001 232.208 77.1746 228.284C76.9738 221.645 69.2423 223.43 63.6946 222.651C57.7454 221.821 52.5492 219.482 50.1896 213.572C41.7301 216.665 43.1358 222.399 42.2071 229.994C38.3915 228.008 35.4043 224.964 30.7604 225.744C25.1124 226.675 21.1713 227.982 15.8496 224.864C15.8496 224.864 21.1462 232.208 21.5227 233.44C22.4013 233.666 24.0079 232.409 25.1877 232.509C25.2881 233.867 25.0873 245.99 26.493 245.109C29.8567 245.059 32.9945 244.908 36.057 246.518C36.9356 246.97 37.8141 247.323 38.6425 247.826C42.0062 249.838 46.0226 251.95 50.039 252.478Z" fill="#F6F6F6" stroke="#666666" stroke-width="2"/>
<path d="M33.6726 225.643C36.9108 226.071 39.4461 228.561 42.2074 230.02C42.86 224.537 41.2535 217.746 47.3031 214.804C51.5956 212.691 48.4327 206.982 48.1315 202.028C47.7048 195.489 45.5962 177.482 53.9804 174.74C50.1648 170.238 46.8011 168.025 40.8267 169.283C33.2207 170.892 29.857 164.731 23.6568 162.014C17.8581 159.474 11.1056 159.298 5.20654 161.562C6.9386 170.037 7.36535 178.689 7.66657 187.29C7.9176 194.609 8.04311 201.651 10.0764 208.743C10.2019 209.195 11.708 215.156 12.0846 215.081C13.3899 214.804 15.5487 218.828 15.5236 219.784C15.4734 222.097 9.87558 221.544 16.3018 224.235C16.8289 230.045 30.0327 225.166 33.6726 225.643Z" fill="#F6F6F6" stroke="#666666" stroke-width="2"/>
<path d="M124.844 199.563C129.714 199.462 129.162 191.54 129.388 187.365C129.714 181.179 131.572 176.526 125.698 174.589C119.071 172.426 115.456 171.873 109.13 175.319C103.884 178.161 98.813 178.437 92.9642 178.563C81.6681 178.814 78.4299 167.874 66.18 171.295C55.135 174.388 49.2359 174.816 48.2067 187.466C47.4788 196.369 46.2236 210.881 52.9762 218.048C56.3901 221.67 61.5361 222.449 66.2553 222.927C71.5017 223.481 76.9991 222.122 77.1748 228.259C77.4761 237.866 83.9775 245.99 91.5836 235.024C99.6414 223.455 113.498 228.611 125.848 227.354C122.334 218.099 122.736 209.145 124.844 199.563Z" fill="#F6F6F6" stroke="#666666" stroke-width="2" id="UPMEE" name="Meerut" />
<path d="M138.701 267.392C140.86 272.9 143.42 278.131 147.21 282.709C148.164 283.865 161.343 281.627 165.184 283.01C165.861 276.698 168.522 270.989 169.2 264.827C169.953 257.986 168.045 251.221 168.096 244.38C168.146 236.86 186.772 242.997 192.37 237.917C196.26 234.396 193.072 228.259 197.064 224.436C199.9 221.72 205.598 220.714 205.925 215.936C206.201 211.786 201.883 208.24 200.754 204.392C199.323 199.513 200.854 194.131 198.093 189.503C197.039 187.718 195.357 186.636 193.248 186.661C189.332 186.661 190.863 189.302 190.512 192.32C189.859 197.576 188.127 198.255 183.534 199.236C167.393 202.732 154.591 203.26 138.224 200.695C134.634 200.142 131.019 199.664 127.38 199.563C123.137 199.437 123.991 203.21 123.489 206.756C122.485 213.798 123.338 220.714 125.848 227.354C128.158 233.515 131.22 239.3 132.676 245.738C133.53 249.486 134.007 253.334 134.233 257.181C134.534 262.06 136.944 262.89 138.701 267.392Z" fill="#F6F6F6" stroke="#666666" stroke-width="2" id="UPAMR" name="Amroha"/>
<path d="M162.899 315.479C157.578 310.801 151.804 307.833 144.826 306.525C144.449 298.628 145.277 292.416 147.461 285.374C148.516 281.929 140.433 271.793 138.726 267.392C136.065 260.602 130.768 259.948 125.246 256.175C120.778 253.132 107.122 240.457 102.729 249.435C100.57 253.836 103.633 256.553 97.6583 256.779C92.437 256.98 92.3617 258.791 88.3453 261.18C81.4422 265.28 73.2588 262.639 66.1549 261.004C64.6738 273.554 67.4351 282.734 70.1712 294.655C71.3761 299.886 72.1292 305.041 75.3172 309.543C78.3546 313.819 83.0738 317.968 83.852 323.426C91.5584 319.151 102.629 322.068 110.636 323.904C118.87 325.79 125.823 331.625 134.358 329.613C138.525 328.632 142.617 327.048 146.959 327.022C151.427 326.997 155.092 329.588 159.41 330.116C163.15 330.594 166.665 328.028 169.953 326.721C169.451 321.691 166.539 318.673 162.899 315.479Z" fill="#F6F6F6" stroke="#666666" stroke-width="2"/>
<path d="M215.614 357.73C221.137 362.66 224.224 365.3 231.83 366.105C238.081 366.784 244.658 367.74 250.381 370.481C252.766 371.613 255.477 373.323 256.23 376.039C257.46 380.365 252.49 379.083 252.565 383.433C252.64 388.363 257.661 384.314 260.849 384.339C265.216 384.364 268.806 387.281 272.672 388.941C272.546 386.602 272.647 384.289 272.898 381.975C273.425 376.593 274.705 378.655 277.416 374.883C280.102 371.16 281.106 367.438 285.072 364.772C287.231 363.339 292.528 359.994 289.39 356.951C286.604 354.235 286.955 352.424 287.507 348.299C289.465 347.167 292.001 347.067 293.858 345.709C288.536 341.157 289.842 340.327 291.248 333.838C292.829 326.444 281.784 327.601 278.019 329.11C272.094 331.474 268.831 328.33 264.614 324.507C261.602 321.791 257.912 321.842 254.096 322.37C247.971 323.2 247.419 323.2 246.565 317.164C244.507 302.099 242.047 289.574 224.977 285.852C220.911 284.947 212.903 283.488 209.514 286.908C206.577 289.876 207.556 291.637 203.088 292.819C199.398 293.8 195.934 295.384 192.118 295.862C176.204 297.748 170.706 281.074 154.666 281.753C146.809 282.105 147.16 286.581 146.508 293.146C143.621 293.649 144.65 300.716 144.675 303.281C144.7 308.512 149.143 307.204 153.386 309.116C158.808 311.53 164.983 316.057 168.196 321.137C169.752 323.577 169.953 326.469 170.079 329.286C170.305 334.492 173.794 331.826 177.885 333.989C180.019 335.121 181.801 336.781 183.333 338.642C185.868 341.76 190.211 341.383 193.976 342.942C202.109 346.262 209.138 351.921 215.614 357.73Z" fill="#F6F6F6" stroke="#666666" stroke-width="2"/>
<path d="M287.558 348.274C287.256 350.688 287.206 353.103 287.357 355.542C288.888 356.297 290.921 357.705 290.269 359.742C289.214 363.062 284.997 364.32 282.663 366.482C278.847 369.978 278.621 376.014 273.325 378.152C272.923 381.723 272.421 385.32 272.672 388.916C275.634 390.199 278.973 391.129 281.558 393.166C288.637 398.725 295.39 403.428 305.179 402.849C309.949 402.572 312.886 397.819 317.881 400.384C322.977 403 323.881 409.665 324.081 414.745C325.537 409.413 324.157 403.78 323.303 398.473C322.751 394.952 322.324 391.356 322.651 387.784C325.537 387.659 328.575 387.332 331.386 388.262C335.202 389.52 335.377 392.362 337.511 395.153C342.205 401.365 343.285 391.104 344.264 388.388C345.845 384.012 356.589 385.747 361.132 385.395C368.337 384.817 363.517 377.221 361.082 372.745C355.083 361.679 362.865 355.14 372.353 350.311C370.998 351.292 370.42 352.625 370.596 354.285C372.629 349.708 381.516 347.268 385.733 345.482C386.31 337.057 384.126 332.002 392.987 327.928C403.932 322.923 402.878 302.149 398.058 293.221C394.443 286.531 388.745 285.827 383.649 291.31C377.976 297.421 375.566 294.981 368.513 294.478C348.857 293.02 350.213 321.389 350.715 333.687C341.251 335.674 342.582 321.967 336.206 321.691C331.964 321.515 325.487 324.055 322.4 321.691C320.266 320.056 316.701 317.667 313.94 319.427C309.146 322.495 309.874 332.505 309.522 337.334C309.296 340.553 300.962 339.648 297.674 341.861C294.034 344.3 291.448 346.036 287.558 348.274Z" fill="#F6F6F6" stroke="#666666" stroke-width="2" id="UPSHN" name="Shahjahanpur" />
<path d="M345.443 385.898C343.762 388.79 343.962 397.09 340.197 396.763C336.482 396.436 336.457 391.507 333.921 389.595C331.537 387.81 328.55 387.633 325.688 387.709C320.793 387.835 322.349 390.928 322.826 395.028C323.554 401.491 325.864 408.307 324.081 414.77C324.282 420.052 326.516 453.325 322.5 454.054C326.541 460.14 329.98 464.843 337.712 466.151C345.218 467.434 350.213 469.144 354.606 475.909C356.037 478.123 357.016 480.562 357.442 483.153C358.321 488.509 356.739 488.635 362.388 489.49C366.605 487.654 371.224 487.327 375.767 487.378C380.562 487.428 385.13 489.39 386.461 484.863C389.975 472.866 405.99 493.238 412.793 491.553C415.931 490.773 414.876 488.434 416.759 486.246C418.893 483.781 422.257 482.876 425.369 482.65C429.461 482.348 431.118 479.129 435.41 478.701C439.502 478.299 442.966 478.248 445.777 474.878C447.258 473.093 448.539 470.955 450.798 469.999C453.434 468.893 459.508 470.452 459.81 467.283C460.437 461.096 451.225 458.682 447.183 456.368C441.359 452.998 435.36 450.734 428.683 449.829C424.24 449.225 419.797 450.835 419.37 445.931C419.043 442.133 417.763 438.486 416.031 435.116C412.893 428.98 408.4 423.673 404.559 417.989C402.25 414.594 400.192 411.023 398.786 407.125C397.129 402.547 398.61 397.844 394.569 395.204C387.866 390.828 382.494 386.124 374.186 385.219C364.672 384.163 355.058 386.602 345.443 385.898Z" fill="#F6F6F6" stroke="#666666" stroke-width="2" id="UPHAR" name="Hardoi"/>
<path d="M400.242 410.495C403.58 417.612 408.902 423.573 413.169 430.137C415.253 433.331 417.135 436.726 418.29 440.373C419.746 444.975 417.487 448.697 422.884 449.2C430.063 449.879 464.478 457.273 459.383 468.968C461.792 468.993 464.177 469.094 466.587 469.27C471.407 469.597 469.649 468.39 470.578 464.366C471.281 461.348 472.637 458.33 475.599 456.997C478.586 455.664 482.176 455.815 485.364 455.764C490.334 455.664 490.886 450.785 497.237 452.495C505.671 454.758 511.52 455.463 512.775 445.528C514.131 434.84 526.08 449.427 528.791 452.973C528.916 450.584 529.443 448.27 530.372 446.057C528.188 444.497 527.109 442.007 527.008 439.417C526.858 435.67 523.845 434.412 522.841 430.464C521.084 423.497 523.569 414.77 519.779 408.407C517.319 404.258 512.976 401.617 511.52 396.813C510.114 392.16 511.144 384.565 506.148 382.604C496.961 379.007 486.769 371.512 476.402 373.348C472.21 374.103 469.8 376.769 466.612 379.183C462.771 382.075 457.224 381.22 452.806 380.617C447.158 379.837 441.51 378.479 435.786 379.007C435.987 382.981 432.122 385.798 428.457 385.873C423.913 385.974 422.633 381.774 419.947 379.032C417.562 376.618 412.09 381.422 409.078 382.729C396.953 388.011 394.769 398.85 400.242 410.495Z" fill="#F6F6F6" stroke="#666666" stroke-width="2" id="UPSTP" name="Sitapur" />
<path d="M558.863 489.214C560.495 493.212 563.608 495.602 567.976 497.086C571.917 498.418 571.54 499.827 574.854 502.367C579.422 505.863 587.053 508.051 589.413 513.76C595.437 513.181 600.056 518.463 606.081 516.426C613.938 513.76 621.92 505.561 629.727 513.332C630.832 506.869 629.702 500.531 636.906 498.871C642.63 497.538 648.579 498.117 654.403 497.941C661.206 497.739 666.427 493.967 672.1 490.698C673.757 487.076 672.778 483.354 671.523 479.833C674.133 478.877 676.869 478.349 679.58 477.896C677.497 470.779 673.38 464.919 665.498 463.938C659.574 463.209 661.231 464.24 659.75 468.968C658.72 472.238 656.486 475.155 653.223 476.438C645.09 479.682 642.805 471.86 636.379 469.245C629.075 466.277 622.523 459.99 632.514 453.702C626.74 449.326 625.912 441.052 618.557 438.31C615.444 437.154 612.005 437.707 608.892 436.575C604.123 434.815 600.132 431.017 594.76 431.017C594.283 437.43 595.914 444.346 593.479 450.508C589.99 459.336 582.359 450.005 578.845 446.786C572.343 440.8 560.62 446.308 563.909 455.186C568.653 467.962 547.241 473.118 543.225 482.448C549.852 482.725 555.926 482.071 558.863 489.214Z" fill="#F6F6F6" stroke="#666666" stroke-width="2"/>
<path d="M671.547 479.808C674.208 487.302 672.953 490.295 666.401 494.093C661.682 496.834 657.114 497.941 651.666 497.966C646.771 497.966 641.751 497.74 636.931 498.871C630.48 500.38 631.434 503.851 630.38 509.686C629.15 516.476 639.617 529.026 646.345 531.541C653.373 534.182 661.983 535.842 666.075 543.211C670.819 538.331 679.304 541.626 683.772 545.801C688.517 550.227 697.353 548.492 703.327 549.422C706.641 549.951 709.829 550.957 712.841 552.44C716.104 554.05 715.401 552.264 717.861 550.127C721.35 547.058 726.496 544.644 728.329 540.092C730.94 533.477 724.338 531.038 720.146 527.995C715.853 524.901 713.268 516.526 713.443 511.346C713.619 506.089 718.84 505.31 723.133 505.461C724.689 499.802 721.099 491.226 727.852 488.132C723.911 485.366 719.242 483.731 714.673 482.373C708.975 480.663 705.034 475.633 699.511 473.596C694.817 471.86 691.504 474.803 687.337 476.362C682.241 478.248 676.643 477.972 671.547 479.808Z" fill="#F6F6F6" stroke="#666666" stroke-width="2"/>
<path d="M739.5 486.548C727.877 486.12 723.56 489.264 723.51 500.607C723.484 507.297 721.275 504.178 716.481 506.366C712.841 508.026 713.092 512.176 713.87 515.47C714.849 519.67 716.406 525.329 720.071 527.995C723.936 530.786 729.358 532.371 728.731 538.231C727.928 545.575 718.238 547.561 715.025 553.421C723.961 557.143 733.475 558.099 741.182 564.538C740.705 555.131 743.391 545.927 741.884 536.546C741.357 533.201 741.985 531.767 744.997 530.032C749.566 527.416 748.035 522.613 746.528 518.538C745.022 514.439 743.34 510.918 747.482 508.73C751.423 506.668 751.323 498.469 751.223 493.791C751.122 488.761 744.595 475.784 739.5 486.548Z" fill="#F6F6F6" stroke="#666666" stroke-width="2"/>
<path d="M750.645 487.227C752.151 491.251 751.222 496.708 750.62 500.808C750.218 503.122 749.967 505.461 749.892 507.799C746.629 508.302 744.595 509.183 744.947 512.704C745.399 517.407 749.164 521.984 747.884 526.813C746.955 530.409 741.407 530.309 741.633 534.383C742.186 544.468 740.679 554.452 741.207 564.512C744.319 567.103 741.533 571.504 745.574 572.133C749.842 572.812 754.109 573.617 758.351 574.421C765.581 575.779 772.936 576.811 779.262 580.91C783.956 583.953 785.588 589.788 790.859 589.335C795.202 588.958 802.331 589.411 805.293 593.233C810.765 600.275 817.191 593.032 813.727 586.544C809.962 579.552 804.414 574.773 796.758 572.711C792.666 571.605 791.512 571.856 790.156 567.279C789.077 563.582 789.177 558.904 792.616 556.439C797.863 552.692 805.745 556.515 806.899 548.266C808.18 539.136 803.536 530.837 803.084 521.858C802.933 518.564 803.737 505.536 798.189 505.687C796.055 499.827 784.885 496.809 779.663 495.048C770.852 492.081 771.028 488.61 770.852 480.009C765.104 479.531 759.431 478.248 753.607 478.475C751.549 478.55 747.884 478.726 746.955 481.065C745.725 484.133 749.817 485.014 750.645 487.227Z" fill="#F6F6F6" stroke="#666666" stroke-width="2"/>
<path d="M803.561 591.8C798.616 589.134 792.892 588.757 787.47 589.838C789.478 594.088 789.378 598.867 787.571 603.193C785.11 609.078 780.266 604.173 780.517 611.014C780.718 617.075 776.776 614.761 772.961 617.276C769.246 619.716 768.191 624.318 767.966 628.468C767.639 634.504 771.279 632.92 770.953 638.478C770.626 644.262 771.932 648.186 772.911 653.668C780.165 655.253 777.153 652.335 781.119 648.94C784.357 646.174 789.353 645.796 793.394 645.469C797.511 645.142 801.628 644.715 805.719 645.62C810.74 646.727 815.886 649.242 821.132 648.286C823.391 641.445 834.035 630.354 820.605 628.066C812.397 626.657 818.045 617.05 823.592 615.617C826.755 614.787 828.111 612.146 830.019 609.606C832.554 606.261 835.943 606.185 839.934 605.934C837.775 598.49 832.504 587.524 822.965 589.41C818.07 590.366 816.764 593.56 813.15 596.05C808.33 599.319 806.799 593.535 803.561 591.8Z" fill="#F6F6F6" stroke="#666666" stroke-width="2"/>
<path d="M771.003 634.655C763.598 633.398 769.045 617.302 775.572 616.421C780.793 615.717 780.617 613.403 780.417 608.801C780.291 606.185 783.78 606.06 786.04 606.211C787.621 603.57 788.776 600.602 788.976 597.484C790.357 576.358 758.226 573.943 743.541 571.856C743.843 576.257 743.491 580.658 743.089 585.034C742.562 591.07 735.709 587.373 731.568 585.537C728.053 583.978 724.689 582.067 720.999 580.935C713.745 578.697 712.64 580.457 712.841 587.549C712.992 592.303 713.444 597.031 713.017 601.784C709.277 601.935 705.486 601.432 702.8 598.565C697.981 593.384 692.333 583.827 684.174 589.838C690.023 597.081 692.182 608.575 695.219 617.251C696.876 621.98 705.486 645.595 698.508 646.073C701.771 651.254 700.265 653.517 707.118 655.429C715.678 657.843 725.317 661.666 733.274 665.564C739.927 668.809 738.747 678.24 748.286 672.983C752.955 670.418 761.314 663.301 754.586 659.025C758.502 653.693 767.489 656.46 772.961 656.259C773.338 653.643 772.158 651.229 771.405 648.814C769.999 644.162 771.254 639.408 771.003 634.655Z" fill="#F6F6F6" stroke="#666666" stroke-width="2"/>
<path d="M700.993 685.734C700.742 688.099 702.147 692.022 700.516 694.059C697.554 697.756 693.211 692.701 692.207 700.045C691.906 702.132 692.558 707.942 689.697 707.891C691.429 713.802 690.023 719.184 687.136 724.44C691.805 727.433 696.65 725.698 701.52 727.408C706.39 729.143 706.666 734.525 710.808 736.789C715.678 739.454 720.322 734.299 724.012 731.935C729.835 728.187 734.906 732.916 740.83 731.004C740.303 727.86 737.893 725.371 737.868 722.101C742.412 722.529 740.805 719.988 742.637 717.096C744.269 714.506 747.081 713.802 749.591 712.368C756.645 708.394 754.285 702.333 749.365 698.335C747.608 696.901 746.077 695.166 745.951 692.751C741.382 693.556 740.479 690.966 737.642 688.149C725.392 688.325 713.293 685.282 700.993 685.734Z" fill="#F6F6F6" stroke="#666666" stroke-width="2"/>
<path d="M689.697 707.892C685.931 707.816 683.597 705.804 681.313 703.088C677.723 698.863 673.933 696.901 668.586 695.568C659.649 693.33 644.939 690.588 639.291 682.867C638.739 689.054 638.689 693.782 642.73 698.712C644.086 700.372 645.667 702.233 645.843 704.471C646.169 708.344 643.182 706.307 641.325 708.571C638.839 711.589 640.471 715.763 636.831 718.555C630.857 723.107 633.693 725.672 639.392 727.433C645.567 729.319 650.889 726.402 656.813 727.835C662.36 729.168 666.703 728.992 672.376 728.64C675.916 728.414 682.015 729.898 685.003 727.357C690.124 722.981 691.454 713.953 689.697 707.892Z" fill="#F6F6F6" stroke="#666666" stroke-width="2"/>
<path d="M730.739 664.609C721.853 661.943 713.343 657.743 704.557 654.674C698.658 652.612 701.369 645.771 695.244 646.4C685.856 647.356 679.505 645.57 674.158 637.497C669.539 630.531 665.448 625.777 656.762 624.62C656.913 630.128 647.977 622.181 647.675 629.424C647.349 637.648 645.341 634.152 639.065 636.566C633.292 638.805 632.489 652.964 629.2 657.969C626.74 661.741 624.782 665.489 624.581 670.066C617.302 673.839 622.975 676.957 628.171 676.102C634.773 674.995 637.283 680.881 640.948 685.03C645.266 689.909 653.047 690.236 658.846 692.273C663.992 694.084 669.791 695.266 674.711 697.555C679.58 699.818 681.689 705.879 686.81 707.489C693.813 709.677 691.127 701.881 692.759 697.479C694.792 692.022 701.344 697.63 701.093 690.111C700.867 683.27 705.988 685.609 711.862 686.112C719.217 686.74 726.522 687.897 733.902 688.149C738.872 688.3 739.249 689.557 739.65 684.376C739.901 680.981 740.152 677.46 739.5 674.09C738.621 669.236 735.458 665.992 730.739 664.609Z" fill="#F6F6F6" stroke="#666666" stroke-width="2"/>
<path d="M624.606 670.041C624.857 664.458 627.744 660.409 630.556 655.831C633.618 650.852 633.919 645.419 635.852 640.062C637.233 636.189 640.998 635.837 644.638 635.535C648.981 635.183 647.525 633.196 647.7 629.349C647.901 624.268 652.746 626.481 656.938 626.356C656.386 623.489 643.433 621.753 639.793 619.917C632.037 615.994 625.108 614.988 616.423 615.189C607.311 615.39 598.224 616.472 589.112 616.246C581.48 616.044 572.619 618.534 565.842 613.881C563.783 612.473 554.42 604.727 553.14 608.726C553.04 609.053 548.32 612.121 547.843 612.548C545.434 614.812 543.124 618.031 542.522 621.326C542.045 623.967 542.823 626.683 543.35 629.223C539.71 630.279 536.899 633.373 534.288 635.913C530.121 639.987 524.925 642.728 519.754 644.514C525.678 645.57 524.85 650.374 525.879 654.825C526.381 656.938 527.837 658.145 529.945 658.623C530.673 662.647 528.213 666.118 528.213 670.066C534.213 669.538 539.233 674.266 544.731 675.8C549.952 677.259 557.207 677.687 562.302 675.247C569.833 671.625 567.674 655.58 579.271 657.516C589.84 659.277 601.186 658.019 609.696 665.564C612.206 667.777 614.063 671.148 616.046 673.813C619.259 678.164 621.845 671.475 624.606 670.041Z" fill="#F6F6F6" stroke="#666666" stroke-width="2"/>
<path d="M528.163 670.066C528.163 667.124 529.569 664.508 529.945 661.641C530.573 656.862 526.783 658.874 525.829 654.825C524.448 648.865 525.025 645.243 517.645 644.615C518.198 648.035 518.951 651.405 519.904 654.75C508.885 655.756 499.521 659.076 505.847 671.852C508.232 676.655 510.366 680.855 509.336 686.313C508.483 690.89 506.826 698.963 500.4 694.109C500.701 696.876 499.622 698.485 497.137 698.963C500.902 704.396 505.245 707.665 511.721 709.073C515.311 709.853 518.75 710.155 521.938 712.142C525.728 714.506 529.217 718.203 533.912 718.656C540.915 719.335 551.358 714.833 558.386 713.777C562.88 713.097 579.623 716.442 581.807 711.362C582.685 709.3 584.016 705.703 585.547 704.119C588.057 701.503 591.22 703.365 592.701 698.46C594.684 691.846 590.919 693.254 585.873 692.55C580.2 691.77 574.628 690.362 568.929 689.683C560.595 688.702 562.127 679.724 554.847 677.762C550.605 676.605 546.162 676.655 542.07 674.87C537.702 672.984 533.159 669.639 528.163 670.066Z" fill="#F6F6F6" stroke="#666666" stroke-width="2"/>
<path d="M506.098 695.09C514.683 690.085 506.675 674.593 504.642 669.135C500.325 657.541 510.918 655.555 519.904 654.75C518.976 651.405 518.223 648.035 517.645 644.614C515.235 644.363 513.052 643.256 511.219 641.697C507.102 638.201 504.391 632.291 504.617 626.859C489.405 628.669 483.581 614.409 469.625 613.63C461.993 613.202 454.563 615.114 447.309 611.744C444.296 610.335 441.585 608.248 439.853 605.381C436.891 606.286 434.757 604.023 433.377 601.709C431.042 597.811 429.787 589.234 424.39 590.618C416.483 592.655 410.483 598.993 403.053 602.187C392.535 606.714 374.311 623.413 388.695 633.398C394.644 637.522 403.53 636.969 410.408 637.271C418.19 637.598 425.52 637.069 418.842 644.866C410.082 655.152 443.192 661.465 448.212 661.465C453.459 661.465 459.132 661.088 464.002 663.452C466.989 664.91 469.298 667.325 471.055 670.091C474.695 675.8 474.695 668.23 478.762 671.449C483.004 674.819 479.49 682.918 484.435 686.237C487.723 688.451 492.166 687.746 495.53 689.909C498.442 691.846 501.931 697.53 506.098 695.09Z" fill="#F6F6F6" stroke="#666666" stroke-width="2"/>
<path d="M397.38 604.727C406.543 600.426 417.236 590.995 427.378 590.165C421.529 580.482 422.583 571.152 413.17 563.783C403.681 556.364 403.053 543.412 392.586 537.074C382.67 531.088 373.483 528.372 373.859 514.892C374.035 508.931 373.332 504.253 368.362 500.506C365.852 498.62 356.388 492.081 362.388 489.465C360.831 489.239 359.275 489.038 357.719 488.887C357.593 491.653 355.485 491.703 352.799 491.075C352.297 494.52 351.292 497.916 349.987 501.135C348.933 503.775 347.627 506.341 345.971 508.68C345.519 509.308 340.448 513.835 340.448 514.011C348.858 513.86 353.778 520.299 356.689 527.416C358.773 532.496 358.321 533.326 362.965 535.464C366.253 536.973 368.864 540.117 371.048 542.883C380.888 555.307 386.687 579.401 365.751 582.343C359.175 583.274 347.703 602.262 352.02 606.135C355.485 609.229 359.978 610.612 364.546 610.788C369.843 610.989 368.312 614.485 369.642 619.263C370.722 623.136 372.203 627.186 374.838 630.279C379.256 635.46 380.788 632.442 382.67 627.236C385.883 618.333 387.992 609.153 397.38 604.727Z" fill="#F6F6F6" stroke="#666666" stroke-width="2" id="UPKNR" name="Kanpur Nagar"/>
<path d="M358.295 587.675C360.831 582.645 365.048 582.57 369.968 581.916C376.52 581.036 379.381 574.371 379.984 568.436C381.139 556.867 374.788 545.097 366.178 537.627C361.885 533.93 359.777 535.615 357.668 529.831C355.735 524.549 353.099 518.765 347.978 515.822C341.653 512.226 337.084 516.476 330.582 515.194C324.533 514.012 319.337 512.528 315.421 519.67C313.011 524.046 314.818 528.598 310.952 531.943C307.413 534.986 306.434 543.965 304.802 548.316C303.572 551.636 302.844 555.106 301.69 558.426C300.485 561.872 297.171 561.67 296.895 565.015C296.468 570.171 297.196 572.384 300.209 576.207C303.999 580.986 308.743 584.557 313.99 587.6C319.964 591.071 322.048 595.924 326.792 600.552C332.264 605.884 339.87 606.186 347.05 605.934C352.622 605.683 355.911 592.454 358.295 587.675Z" fill="#F6F6F6" stroke="#666666" stroke-width="2" id="UPKAN" name="Kanpur Dehat"/>
<path d="M300.962 498.896C304.728 499.5 309.02 499.399 312.309 501.562C316.802 504.505 319.488 509.484 324.031 512.502C336.959 521.003 346.975 510.34 350.966 498.494C351.769 496.08 352.422 493.615 352.799 491.1C355.459 491.754 357.593 491.704 357.719 488.912C358.045 481.795 355.635 476.262 350.715 471.131C346.297 466.503 340.574 467.157 334.901 465.548C331.487 464.567 322.751 454.029 321.822 454.18C323.454 462.63 311.204 461.423 306.284 460.342C296.845 458.279 289.34 449.477 279.123 454.054C282.788 455.563 280.755 459.914 280.78 463.536C280.805 467.082 282.663 469.647 283.24 472.992C284.445 479.984 275.734 485.165 270.212 487.126C273.626 491.352 277.994 492.357 283.215 492.86C289.616 493.464 294.712 497.916 300.962 498.896Z" fill="#F6F6F6" stroke="#666666" stroke-width="2"/>
<path d="M204.143 473.797C200.653 472.992 205.925 458.405 203.666 454.406C202.963 453.199 201.984 452.294 200.729 451.665C197.264 449.804 198.068 448.496 198.168 444.522C198.269 440.247 199.022 435.72 203.389 433.834C201.833 431.017 199.95 429.231 197.365 427.421C192.696 424.151 192.219 420.555 190.512 415.474C183.559 414.846 175.375 415.676 170.832 421.661C168.723 424.478 167.744 427.949 167.418 431.419C161.82 431.646 157.076 430.162 152.055 433.356C149.294 435.116 144.374 435.971 141.286 435.418C139.554 433.356 137.672 433.23 135.638 435.066C135.262 437.908 135.061 440.8 135.111 443.693C135.212 451.338 137.044 462.907 146.382 464.139C150.524 464.693 155.067 463.687 158.908 465.849C163.301 468.339 162.422 472.464 163.477 476.639C165.435 484.259 178.513 489.515 185.416 490.22C190.11 490.698 194.855 490.371 199.549 490.22C200.478 485.919 205.749 486.145 209.088 485.391C208.812 480.964 204.143 478.324 204.143 473.797Z" fill="#F6F6F6" stroke="#666666" stroke-width="2"/>
<path d="M144.499 434.613C141.06 432.451 143.144 426.867 140.106 424.227C136.693 421.234 135.061 425.333 133.956 420.177C133.279 416.983 131.396 413.739 133.505 410.646C141.763 398.448 168.573 403.025 170.254 386.552C170.706 382.176 168.045 370.054 174.045 368.57C174.497 363.691 168.924 365.602 165.51 366.633C160.289 368.193 163.1 374.153 162.146 378.731C161.393 382.352 158.582 384.087 155.846 386.125C151.779 389.142 152.382 390.375 146.759 388.64C137.395 385.772 137.27 378.982 133.078 371.739C130.392 367.086 121.681 364.772 117.414 368.52C113.548 371.915 113.347 378.404 112.77 383.107C112.117 388.338 108.503 391.959 103.231 394.323C100.545 395.531 97.4828 396.587 95.3993 398.775C94.2948 399.932 96.3531 406.068 95.4746 408.986C93.4162 415.801 94.0437 421.988 95.9264 428.879C97.1062 433.13 103.909 444.321 108.277 436.273C111.389 430.539 118.544 426.666 124.844 425.685C127.781 425.233 131.145 425.333 133.429 427.496C136.341 430.263 139.328 437.908 144.499 434.613Z" fill="#F6F6F6" stroke="#666666" stroke-width="2"/>
<path d="M323.981 422.541C324.207 416.506 324.784 409.313 321.546 403.905C317.53 397.241 312.936 400.46 307.564 402.371C295.063 406.798 285.825 394.374 276.061 390.325C270.689 388.111 264.714 383.383 258.665 384.515C251.812 385.823 246.239 387.055 250.933 394.449C254.347 399.806 259.945 403.604 262.832 409.287C264.99 413.513 267.325 425.66 261.125 426.591C263.535 428.276 265.091 430.665 265.242 433.633C265.417 437.556 268.003 439.241 269.76 442.913C272.622 448.924 275.057 454.607 282.412 452.948C293.331 450.508 302.92 461.725 314.417 461.071C318.534 460.845 322.776 459.009 321.847 454.155C324.357 453.727 324.006 451.791 324.157 449.452C324.634 440.498 323.63 431.52 323.981 422.541Z" fill="#F6F6F6" stroke="#666666" stroke-width="2" id="UPFBD" name="Farrukhabad"/>
<path d="M283.29 475.633C283.792 472.137 281.633 469.597 281.031 466.327C280.303 462.329 283.139 455.714 279.148 454.054C270.136 450.332 270.864 438.914 262.43 434.588C258.564 432.601 254.171 431.948 250.306 430.011C247.017 428.376 244.607 425.333 241.018 424.277C237.102 423.145 233.638 422.919 230.55 420.001C227.839 417.436 225.002 415.977 221.563 418.09C215.89 421.586 213.556 432.124 208.033 432.727C197.817 433.859 197.917 442.259 198.268 450.684C207.33 453.3 204.092 462.152 203.038 468.993C202.461 472.816 203.691 475.256 205.774 478.651C207.28 481.115 211.924 487.001 206.653 487.126C210.393 486.648 212.878 489.767 216.468 489.943C220.082 490.094 222.542 487.126 226.483 487.604C233.663 488.51 238.608 492.911 245.561 488.233C254.322 482.348 255.627 485.24 264.689 487.654C270.839 489.314 282.336 482.021 283.29 475.633Z" fill="#F6F6F6" stroke="#666666" stroke-width="2"/>
<path d="M523.419 445.554C520.658 443.416 516.591 441.731 513.027 442.309C513.303 446.861 510.918 448.094 510.316 451.489C509.161 458.053 499.07 452.621 495.104 451.992C491.891 451.464 489.33 452.57 488 455.664C484.987 455.764 481.925 455.664 478.913 456.091C471.834 457.097 470.503 463.284 469.775 469.496C473.842 469.798 483.004 471.257 483.808 476.463C484.611 481.744 479.063 477.494 482.502 484.234C485.464 490.069 488.025 496.105 490.51 502.141C493.372 509.057 495.806 516.099 500.852 521.758C504.743 526.109 509.989 538.206 503.94 542.28C508.634 543.613 513.73 545.65 517.118 549.322C520.106 552.566 523.545 551.158 527.912 550.755C532.054 550.353 536.573 549.951 540.614 551.233C545.685 552.868 544.806 552.893 549.751 549.422C553.492 546.807 548.622 537.124 548.019 532.874C547.191 527.14 548.095 522.235 550.379 517.004C552.513 512.05 552.488 507.523 552.663 502.241C552.839 496.809 552.814 488.007 559.792 492.232C558.06 484.385 553.14 482.599 545.861 482.499C541.342 482.423 541.267 482.499 541.593 477.997C541.844 474.652 542.221 471.307 542.145 467.962C541.995 461.147 539.208 456.293 532.155 455.01C527.486 454.13 526.808 448.194 523.419 445.554Z" fill="#F6F6F6" stroke="#666666" stroke-width="2" id="UPBAR" name="Barabanki"/>
<path d="M557.056 537.476C564.135 537.753 565.793 543.072 564.009 548.366C562.205 553.722 583.74 552.038 588.76 552.516C597.646 553.371 605.855 555.182 613.862 559.231C619.284 561.972 629.878 570.548 635.375 565.518C637.358 563.708 639.417 561.771 640.27 559.13C640.973 556.917 639.492 553.597 641.098 551.736C644.588 547.687 652.244 553.773 657.49 550.303C659.875 548.718 662.109 546.933 664.218 545.021C667.807 541.752 662.737 539.991 660.076 537.753C655.03 533.528 649.357 533.503 643.734 530.384C630.38 522.965 631.308 502.644 611.678 513.634C605.704 516.979 602.366 517.583 596.215 514.917C593.053 513.559 590.392 514.64 588.409 512C586.551 509.51 583.689 507.85 581.054 506.291C576.334 503.499 572.469 498.62 567.975 497.111C564.135 495.803 561.298 492.659 557.583 491.1C553.29 489.289 553.115 496.105 552.839 499.223C552.136 506.743 552.086 512.477 549.299 519.595C545.634 528.9 549.149 538.684 551.659 547.838C555.7 542.708 545.935 537.024 557.056 537.476Z" fill="#F6F6F6" stroke="#666666" stroke-width="2"/>
<path d="M690.098 548.341C683.647 547.737 680.735 541.55 674.058 541.148C665.573 540.62 662.511 547.712 655.382 551.56C650.788 554.05 644.713 547.511 641.073 551.736C639.467 553.597 640.973 556.917 640.245 559.13C639.09 562.701 635.852 564.889 633.342 567.43C643.257 569.09 646.746 575.704 654.327 581.161C662.686 587.172 674.459 582.645 682.216 588.027C686.006 590.643 689.044 586.342 694.039 589.461C697.303 591.498 699.386 594.29 701.67 597.257C703.804 600.024 706.415 601.457 709.929 601.759C715.753 602.237 712.966 592.001 712.816 587.575C712.64 582.092 711.912 579.225 718.313 580.306C723.007 581.111 727.224 583.626 731.517 585.563C735.659 587.424 742.512 591.121 743.039 585.06C743.466 580.382 743.817 575.679 743.466 571.001C742.562 560.765 729.659 557.973 721.351 555.609C710.356 552.44 701.67 549.448 690.098 548.341Z" fill="#F6F6F6" stroke="#666666" stroke-width="2"/>
<path d="M447.033 595.799C450.773 591.926 456.396 591.649 459.433 586.669C462.32 581.966 460.513 576.484 458.354 571.906C462.722 571.705 487.221 575.452 485.389 568.436C482.979 559.181 475.574 558.049 469.6 552.063C464.278 546.731 461.015 540.167 455.994 534.886C452.881 531.591 449.392 529.856 445.853 527.24C442.364 524.65 441.861 517.96 447.71 519.318C446.254 511.622 439.703 501.889 434.431 496.08C433.477 494.973 432.298 494.244 430.892 493.841C427.302 492.911 429.16 492.508 425.922 490.698C422.508 488.786 426.449 484.184 428.03 482.574C424.114 482.448 419.495 483.052 416.784 486.221C413.672 489.842 413.32 493.716 407.245 490.723C402.802 488.535 389.674 473.923 386.486 484.812C385.281 488.962 383.775 487.554 379.256 487.403C375.842 487.302 372.403 487.202 369.015 487.654C363.065 488.459 357.392 490.597 363.166 496.407C366.304 499.55 370.897 501.21 372.805 505.46C375.491 511.421 372.203 518.337 375.19 524.247C379.809 533.402 392.008 534.458 398.535 541.777C402.526 546.228 403.631 552.39 406.894 557.319C409.931 561.897 414.751 564.261 418.441 568.134C422.407 572.309 421.88 577.766 423.662 582.872C425.219 587.348 428.331 591.045 430.314 595.321C431.846 598.59 433.603 604.878 437.87 605.532C444.02 606.538 444.045 598.867 447.033 595.799Z" fill="#F6F6F6" stroke="#666666" stroke-width="2" id="UPUNNAO" name="Unnao" />
<path d="M428.256 491.351C428.507 493.414 435.862 497.941 437.996 501.638C441.51 507.699 446.38 512.125 447.736 519.318C443.067 518.237 441.937 522.713 444.523 525.958C447.409 529.579 452.706 531.365 456.019 534.861C462.069 541.249 465.759 549.9 473.365 555.182C487.824 565.267 487.548 549.271 498.292 545.348C511.671 540.469 505.697 528.02 499.045 519.62C491.891 510.591 489.129 498.016 484.209 487.73C482.402 483.957 479.641 482.323 482.628 479.305C483.808 478.097 484.209 476.588 483.255 475.105C481.297 472.036 476.653 470.502 473.265 469.823C467.817 468.767 461.567 468.691 456.07 469.018C449.518 469.396 448.639 472.866 444.121 476.538C439.276 480.487 432.825 477.62 428.005 482.549C425.445 485.24 422.181 490.672 428.256 491.351Z" fill="#F6F6F6" stroke="#666666" stroke-width="2" id="UPLKO" name="Lucknow"/>
<path d="M25.7651 244.833C25.263 245.738 23.9075 245.562 23.3804 246.367C24.1836 245.562 26.0663 245.839 26.3173 244.556C26.4931 243.676 26.1165 243.022 25.6396 242.393C25.9157 243.248 26.1667 244.104 25.7651 244.833Z" fill="#F6F6F6" stroke="#666666" stroke-width="2"/>
<path d="M24.1586 240.054C24.1837 240.13 24.2339 240.205 24.2841 240.281C24.2339 240.079 24.2339 239.853 24.259 239.627C24.3845 238.847 24.8364 238.067 24.6858 237.363C24.4598 237.766 24.2339 238.118 24.0833 238.495C24.0331 239.023 24.008 239.576 24.1586 240.054Z" fill="#F6F6F6" stroke="#666666" stroke-width="2"/>
<path d="M23.1543 250.24L22.9033 249.511C22.9033 249.762 23.0037 250.014 23.1543 250.24Z" fill="#F6F6F6" stroke="#666666" stroke-width="2"/>
<path d="M25.3887 241.387C25.4138 241.589 25.4891 241.815 25.5644 242.016C25.6146 242.092 25.6648 242.167 25.6899 242.242L25.3887 241.387Z" fill="#F6F6F6" stroke="#666666" stroke-width="2"/>
<path d="M253.92 372.819C248.422 368.544 240.264 367.513 233.562 366.733C213.831 364.394 204.393 340.451 183.005 340.979C182.453 347.191 184.009 349.203 177.985 352.347C172.964 354.912 174.897 364.469 174.471 368.996C171.283 369.775 170.725 372.851 170.739 375.957C172.091 376.064 177.713 376.502 178.959 376.502C180.378 376.502 183.216 378.208 184.352 380.199C185.487 382.19 188.893 380.768 190.596 379.915C192.299 379.062 194.002 379.63 195.705 380.768C197.408 381.905 200.814 382.758 203.652 382.758C206.49 382.758 209.329 383.612 210.747 383.896C212.167 384.181 214.438 385.602 215.856 388.161C217.276 390.721 221.817 392.996 224.088 390.152C226.358 387.308 227.777 385.603 229.764 387.877C231.751 390.152 237.711 392.143 239.982 391.858C242.252 391.574 248.78 389.868 248.78 389.868C248.78 389.868 248.95 389.937 249.263 390.064C249.344 388.397 251.03 387.549 254.322 386.425C250.732 385.721 259.492 377.145 253.92 372.819Z" fill="#F6F6F6" stroke="#666666" stroke-width="2"/>
<path d="M259.868 404.986C256.956 401.691 253.694 398.673 251.309 394.926C249.889 392.701 249.208 391.194 249.263 390.065C248.95 389.937 248.78 389.868 248.78 389.868C248.78 389.868 242.252 391.574 239.981 391.859C237.711 392.143 231.751 390.153 229.764 387.878C227.777 385.603 226.358 387.309 224.087 390.153C221.816 392.997 217.275 390.721 215.856 388.162C214.437 385.603 212.166 384.181 210.747 383.897C209.329 383.612 206.49 382.759 203.652 382.759C200.813 382.759 197.407 381.906 195.704 380.768C194.001 379.631 192.298 379.062 190.596 379.915C188.893 380.768 185.487 382.19 184.351 380.2C183.216 378.209 180.378 376.503 178.958 376.503C177.712 376.503 172.09 376.064 170.738 375.958C170.746 377.867 170.969 379.787 170.931 381.194C170.78 386.677 170.454 391.178 167.04 395.68C160.563 397.164 154.389 399.881 148.439 402.773C144.473 404.684 136.491 407.249 133.905 411.072C131.345 414.845 133.754 423.043 137.244 423.396C141.938 423.873 142.164 427.872 142.942 431.595C143.72 435.166 146.958 436.826 150.372 435.04C152.581 433.883 154.514 432.072 157.075 431.695C161.894 430.991 167.09 434.336 168.245 428.929C169.851 421.409 188.979 407.853 191.716 418.819C193.247 424.98 196.887 426.263 201.003 430.362C203.363 432.726 202.334 434.461 205.873 433.606C210.542 432.499 210.743 433.732 212.851 429.507C214.91 425.382 217.973 421.006 221.964 418.541C227.361 415.222 229.871 420.88 234.214 422.867C238.205 424.678 242.196 424.402 245.811 427.118C251.81 431.595 259.767 432.123 265.441 436.75C266.017 432.827 264.838 429.382 261.499 427.068C270.085 425.785 263.408 408.985 259.868 404.986Z" fill="#F6F6F6" stroke="#666666" stroke-width="2"/>
<path d="M525.979 641.873C529.249 641.854 535.58 634.195 535.261 633.875C535.261 633.875 534.694 631.602 532.425 629.898C530.157 628.193 523.351 629.33 523.351 629.33C523.351 629.33 524.486 624.784 526.187 624.784C527.888 624.784 525.62 624.784 520.516 624.784C515.411 624.784 517.68 620.807 517.68 620.807C517.68 620.807 522.217 612.284 523.351 609.443C524.486 606.602 523.918 600.92 523.918 600.92L522.217 598.079L527.888 587.851C527.888 587.851 526.754 575.351 526.754 569.669C526.754 563.987 527.321 550.918 527.321 550.918C527.321 550.918 523.846 551.258 520.633 551.384C517.42 551.51 513.278 545.977 509.839 544.418C504.316 541.903 501.881 543.11 496.76 546.002C488.928 550.403 488.15 563.079 476.503 557.093C476.327 559.633 480.519 559.231 482.402 561.695C484.36 564.261 485.314 567.555 485.916 570.674C476.804 574.421 467.792 571.454 458.379 571.906C461.667 578.873 462.245 585.764 455.492 590.794C452.856 592.781 449.367 593.359 447.033 595.773C444.045 598.867 444.698 603.947 439.878 605.406C447.183 617.503 461.667 611.869 472.838 614.007C485.615 616.447 490.058 628.594 504.642 626.859C504.341 634.228 509.763 643.935 517.796 644.614C520.306 644.841 523.143 642.326 525.979 641.873Z" fill="#F6F6F6" stroke="#666666" stroke-width="2" stroke-linecap="round" stroke-linejoin="round"/>
<path d="M538.706 631.838C537.326 633.02 535.261 634.277 535.261 634.277C535.261 634.277 534.694 631.603 532.425 629.898C530.157 628.193 523.351 629.33 523.351 629.33C523.351 629.33 524.486 624.784 526.187 624.784C527.888 624.784 525.62 624.784 520.516 624.784C515.412 624.784 517.68 620.807 517.68 620.807C517.68 620.807 522.217 612.284 523.351 609.443C524.486 606.602 523.919 600.92 523.919 600.92L522.217 598.079L527.888 587.851C527.888 587.851 526.754 575.351 526.754 569.669C526.754 563.987 527.321 550.918 527.321 550.918C533.188 550.247 539.821 549.101 545.434 552.34C547.869 550.177 552.362 549.146 552.362 545.248C552.362 543.487 550.228 540.167 551.283 538.583C552.914 536.118 559.893 537.401 561.826 538.784C564.06 540.394 564.636 543.236 564.661 545.676C562.13 552.543 567.728 551.459 573.177 552.213C575.841 556.06 575.352 555.634 578.173 559.287L584.962 562.85L588.571 565.691C588.571 565.691 594.145 568.073 594.111 568.504C593.88 571.392 591.974 573.078 591.974 574.783C591.974 576.487 588.571 579.896 594.242 582.737C599.913 585.578 601.615 593.533 607.853 594.669C614.092 595.806 620.33 591.26 620.33 599.783C620.33 608.306 615.793 614.556 615.793 614.556C609.772 615.475 606.627 615.904 604.6 615.793C594.484 616.396 583.389 617.503 573.272 616.522C565.39 615.742 562.038 609.449 554.37 607.557C553.99 607.463 553.92 608.464 552.923 609.036C548.066 611.823 543.35 616.824 542.522 621.326C542.045 623.941 542.823 626.683 543.35 629.223C541.643 629.801 540.087 630.656 538.706 631.838Z" fill="#F6F6F6" stroke="#666666" stroke-width="2" stroke-linecap="round" stroke-linejoin="round"/>
</svg>
