<svg xmlns="http://www.w3.org/2000/svg" width="702" height="1095" viewBox="0 0 702 1095" fill="none">
<path d="M369.471 1.25L369.721 9.25V14.5L367.721 17L365.471 22.5L369.471 24.5L370.471 30.5L375.471 34L374.721 36L377.971 37.75L382.471 37.25L383.721 41.75L386.471 44.5L390.471 46.75L391.221 49L389.221 54.5L392.971 56.25L393.471 61L393.221 64.75L397.471 66.75L400.721 71.25L397.971 75.5L400.221 80L400.971 84.75L402.221 90.75V97L400.221 103.25L398.971 109.5L398.221 114L395.221 118.75L394.221 120.25L393.971 124.5L391.221 129L389.721 134.75L391.971 135.75L395.471 138.25L398.721 137.75L400.971 137.5V134.5L403.971 132.25L408.221 133.25L411.721 131.25L410.221 129.5L412.721 131.25L412.971 135.5L407.471 138.5L403.971 142.25V144.25L406.471 147L411.221 145.25L411.971 150L414.471 150.75L417.221 146.75L417.721 143.5L418.971 141.75L421.471 144.5L426.221 141.75L426.971 140.75L430.971 142L433.971 138L434.471 134.75L434.721 130C434.721 130 434.971 133 435.971 129.5C436.971 126 436.971 126 436.971 126L438.971 121.5L441.471 120L440.221 115.5L442.971 113.5L441.471 110.5L439.971 106.25L439.221 105L443.221 101L446.471 102.25L448.721 101.5L449.721 99L446.971 97.5L444.221 95L444.721 91.25L446.471 89.25L446.221 85L445.471 80.25L446.721 76.25L449.221 73.25H450.971L454.221 71.75L456.721 71.25L457.971 72.25L454.971 68L452.721 64L453.221 59.5L448.971 55.25L446.971 52.75L442.971 51L443.221 45.5L440.221 44.25L438.221 43L441.971 40L442.721 38.5L441.471 36.75L442.721 35.5L441.721 31.5L443.971 28.5L445.721 26L442.221 24.75L438.971 24.25L436.471 22.75L432.721 24L430.471 22.75L427.221 20.25L424.971 22.5L424.221 18.75L421.971 18.25H418.721L416.721 16.5L414.721 18.5L409.471 20L406.471 19.5L406.221 16.5L401.721 17L398.221 18.5L395.721 22.5L392.221 21L385.471 17.25L382.971 16.75L382.721 11.5L380.721 9L380.471 5.25L379.471 2.5L376.221 1.5L371.471 1L369.471 1.25Z" fill="#F6F6F6" stroke="#666666" stroke-width="2" id="WBDAR" name="Darjeeling"/>
<path d="M445.721 26L441.721 31.5L442.721 35.5L441.471 36.75L442.721 38.5L438.221 43L443.221 45.5L442.971 51L446.971 52.75L453.221 59.5L452.721 64L456.739 67.2762L459.027 68.584C459.027 68.584 461.48 68.584 461.643 68.584C461.806 68.584 461.806 66.6223 461.806 66.6223C461.806 66.6223 462.624 66.7858 463.768 66.2954C464.912 65.805 464.912 65.805 464.912 65.805L467.201 65.6415L468.509 64.4972L468.999 63.6798L471.288 63.3529L473.577 64.6606H475.538L476.192 63.5163L476.846 60.7373H478.971L480.442 57.7948C480.442 57.7948 481.587 56.16 481.587 55.0157C481.587 53.8714 482.895 51.7462 482.895 51.7462L483.385 49.1306H485.02L485.347 51.5827L486.654 53.2175L485.183 54.8522L486.328 55.9965L489.597 55.3426C489.597 55.3426 491.395 55.1792 493.193 55.3426C494.992 55.5061 494.992 55.5061 494.992 55.5061H498.588L501.367 54.6887H503.165L502.511 51.5827L502.838 47.4959L504.473 46.3516L507.252 45.2073L507.743 42.4282L511.503 42.5917L514.282 43.2456L517.388 45.3707C517.388 45.3707 517.224 46.5151 518.859 47.0055C520.494 47.4959 520.494 47.4959 520.494 47.4959L522.128 45.8612L521.311 41.4474L521.474 37.0336L522.619 32.2928L521.638 28.0425V24.1191L520.33 20.1958L520.82 18.3976L517.224 19.0515L515.753 16.7628L512.974 17.0898L509.377 14.9646L506.435 13.4933L502.184 13.1664L501.531 9.89692L497.28 13.9838L493.684 12.1856L492.049 7.93523L489.107 5.81008L486.164 5.48313L484.529 8.42566L482.404 9.4065L479.952 8.42566L477.99 6.95439L476.356 4.33881L472.269 4.82923L470.634 3.84839L468.509 4.82923L465.403 5.15618L462.46 6.3005C462.46 6.3005 461.643 8.26218 461.153 8.58913C460.662 8.91608 460.662 8.91608 460.662 8.91608L459.027 7.28134L460.989 11.3682L459.027 13.1664L456.902 16.1089L454.287 17.5802L451.181 18.2341L450.363 20.6862L449.382 23.9557L445.721 26Z" fill="#F6F6F6" stroke="#666666" stroke-width="2" id="WBKAL" name="KALIMPONG"/>
<path d="M442.971 113.5L441.471 110.5L439.221 105L443.221 101L446.471 102.25L448.721 101.5L449.721 99L444.221 95L444.721 91.25L446.471 89.25L445.471 80.25L446.721 76.25L449.221 73.25L454.221 71.75L456.721 71.25L452.721 64L459.027 68.5839L461.68 68.9194L461.806 66.6222L464.912 65.8049L467.201 65.6414C467.201 65.6414 466.711 64.0067 468.999 63.6797C471.288 63.3528 471.288 63.3528 471.288 63.3528L473.577 64.6606H475.538L476.846 60.7372H478.971L480.442 57.7947L482.895 51.7461L483.385 49.1305H485.02L485.347 51.5826L486.654 53.2174L485.183 54.8521L486.328 55.9964L489.597 55.3425L494.992 55.506H498.588L503.165 54.6887L502.511 51.5826L502.838 47.4958L504.473 46.3515L507.252 45.2072L507.743 42.4281L511.503 42.5916L514.282 43.2455L517.388 45.3706L520.494 47.4958L523.252 50.106L524.962 47.9681L527.771 43.1015L530.093 40.6992L533.086 42.6233L535.865 46.2578L534.427 51.6255L537.01 53.1171L540.98 55.4091L544.359 53.4582L548.055 51.3242L550.19 52.8363L552.365 53.4294V55.6041L552.563 57.9766L555.923 57.1857L558.691 58.9651L560.273 58.7674L560.075 62.9191L562.843 65.0938L562.25 68.0593L563.238 69.6409L561.657 72.0133L562.448 74.5835L561.459 77.9444L560.471 78.1421L561.064 79.526L560.866 82.2938L558.494 82.8869L558.098 85.6547L559.68 87.6318L558.494 90.9927L557.9 92.5743L557.505 95.3421L557.11 98.1099L555.33 101.471L554.144 105.227L552.958 109.379L553.156 112.147L555.528 115.112L557.505 117.485L559.087 116.694L562.645 117.682H564.622L564.82 119.659L563.831 120.846L562.052 122.229L564.227 123.613L563.436 125.59L565.413 127.567L567.39 130.335L567.588 132.115H562.645L560.866 130.731L558.691 128.556L555.33 130.731L553.749 132.115H550.783L547.225 129.94H542.875L539.91 128.358C539.91 128.358 541.096 130.731 540.7 131.521C540.305 132.312 540.305 132.312 540.305 132.312C540.305 132.312 539.712 135.08 539.317 135.475C538.921 135.871 538.921 135.871 538.921 135.871L535.56 136.662L537.537 139.627L536.549 143.384H533.583L530.618 142.395L533.385 145.756L532.792 147.931L528.443 148.326L527.652 150.698L527.059 153.466L525.675 157.42L522.512 158.013L519.546 160.781L515.988 162.165H513.615L509.464 159.397L507.382 158.195L505.905 160.386L504.521 162.561L504.719 166.712L506.3 170.469L504.917 172.248L506.498 176.597L504.719 178.772L500.962 179.365L498.59 181.54L495.031 179.365L493.252 185.692L488.705 184.11L491.077 181.935L491.868 177.784L492.659 176.202L491.275 173.632L494.438 172.446L497.997 175.213L503.335 172.248L502.346 167.503L500.567 168.096L497.404 170.073C497.404 170.073 499.776 173.236 497.404 171.259C495.031 169.282 495.031 169.085 495.031 169.085L494.043 164.538V160.979L492.659 161.77L493.45 158.211L492.264 155.246L489.298 156.234L486.333 153.664L484.949 154.455L483.762 151.885L481.588 151.687L482.774 147.733L481.39 144.372L477.238 144.174H475.854L477.041 147.338L474.075 148.721L471.9 146.744L469.528 147.535L470.714 143.581L468.935 140.616L466.365 143.186L463.992 142V138.639L461.62 137.452V136.662L457.864 137.057V133.301L456.084 131.324L453.514 130.731L451.933 132.51L450.153 132.905L446.99 128.754L445.804 125.986L446.397 123.416L445.211 119.857L444.618 116.298L445.211 113.728L442.971 113.5Z" fill="#F6F6F6" stroke="#666666" stroke-width="2" id="WBJAL" name="Jalpaiguri"/>
<path d="M561.656 72.0133L562.447 74.5835L561.459 77.9444L560.47 78.1421L560.866 82.2938L558.493 82.8869L558.098 85.6547L559.679 87.6318L557.9 92.5743L557.109 98.1099L555.33 101.471L552.958 109.379L553.155 112.147L557.505 117.485L559.086 116.694C559.086 116.694 560.668 117.682 562.645 117.682C564.622 117.682 564.622 117.682 564.622 117.682L564.82 119.659L562.052 122.229L564.227 123.613L563.436 125.59L565.413 127.567L567.39 130.335L567.587 132.115L571.541 131.126L571.739 132.905L573.914 131.917L577.67 134.092L577.868 135.278C577.868 135.278 579.449 135.278 580.636 134.289C581.822 133.301 582.02 133.301 582.02 133.301L583.799 134.882L587.16 134.685L588.939 136.266L591.509 137.255L593.882 138.243L597.44 137.452L600.406 138.441L602.581 137.255L603.371 136.069L606.93 136.464L610.093 135.871L612.268 138.046L614.443 140.813L615.827 142L618.792 140.22L620.769 139.43L622.548 140.418L623.932 139.43C623.932 139.43 626.7 138.441 626.502 137.452C626.305 136.464 626.305 136.464 626.305 136.464H630.061L633.027 137.848L635.794 139.43C635.794 139.43 636.387 137.255 638.76 138.639C641.132 140.023 641.132 140.023 641.132 140.023L642.319 141.407L643.505 143.384L642.516 144.174L643.9 146.547L643.307 149.117L646.47 150.896L647.459 147.535L650.424 146.349L652.204 149.71L654.971 151.489L655.367 153.071L656.751 148.919L660.507 147.931C660.507 147.931 662.879 147.931 662.682 146.744C662.484 145.558 662.682 145.558 662.682 145.558L664.461 145.163L667.229 145.756L669.997 147.733L672.171 145.954V145.163L674.544 145.361L673.951 142.79L675.335 142.988L678.102 144.372L677.509 140.616L679.486 138.836H682.056L684.231 139.627L687.394 139.43L691.348 139.232H692.93L691.348 136.464L696.093 137.848L697.675 138.441L697.873 135.08L696.489 132.708L697.082 130.731L695.896 127.765L697.873 125.986L697.675 122.625L697.873 118.869L696.884 116.694L700.245 114.915L698.663 111.751L699.454 108.193L696.093 106.809V105.029L698.861 102.855L697.675 99.2961L698.663 95.3421L696.489 90.795L693.128 90.9927L687.988 89.4111L684.627 91.3881L680.475 92.9697L677.707 88.2249L677.509 85.457L674.544 87.2364L670.59 86.8409L666.438 86.4455L663.275 85.0616L661.496 88.818L659.519 90.795L655.367 90.0042L653.39 89.4111L654.774 86.0501L656.948 85.2593L658.728 82.6892L659.321 78.9329L655.565 77.3513L654.378 78.7352L651.808 75.9674H648.25L645.482 75.1766L643.9 73.595L641.528 72.0133L639.551 72.2111L638.167 70.6294C638.167 70.6294 635.004 71.2225 633.62 72.4088C632.236 73.595 632.236 73.595 632.236 73.595L629.073 75.572L626.502 74.1881L624.328 71.0248L622.351 67.8616L618.397 68.4547H613.256L613.059 66.28L611.477 62.5237L607.918 63.3145L604.558 66.0823L602.185 67.6639L600.01 65.4892L598.033 67.2685L594.672 69.2455L592.498 72.4088L587.753 73.3973L585.974 71.6179L582.613 72.0133L580.043 73.595L578.263 75.9674L576.089 72.4088L572.53 73.9904L571.541 75.572H567.785L566.401 73.1996L563.238 69.6409L561.656 72.0133Z" fill="#F6F6F6" stroke="#666666" stroke-width="2" id="WBALI" name="Alipurduar"/>
<path d="M506.498 176.598L504.916 172.248L506.3 170.469L504.719 166.712L504.521 162.561L507.382 158.195L513.615 162.165H515.988L519.546 160.781L522.512 158.014L525.675 157.42L527.652 150.699L528.443 148.326L532.792 147.931L533.385 145.756L530.618 142.395L533.583 143.384H536.549L537.537 139.627L535.56 136.662L538.921 135.871L540.305 132.312L539.91 128.358L542.875 129.94H547.224L550.783 132.115H553.749L558.691 128.556L562.645 132.115H567.588L571.542 131.126L571.739 132.906L573.914 131.917L577.67 134.092L577.868 135.278L582.02 133.301L583.799 134.883L587.16 134.685L588.939 136.266L593.882 138.243L597.441 137.453L600.406 138.441L602.581 137.255L603.372 136.069L606.93 136.464L610.094 135.871L612.268 138.046L615.827 142L620.769 139.43L622.549 140.418L623.933 139.43L626.305 136.464H630.061L635.795 139.43L637.376 137.848L641.133 140.023L643.505 143.384L642.517 144.174L643.9 146.547L643.307 149.117L646.471 150.896L647.459 147.535L650.425 146.349L652.204 149.71L654.972 151.489L655.367 153.071L656.751 148.919L660.507 147.931L662.682 145.558L664.461 145.163L667.229 145.756L669.997 147.733L672.172 145.954V145.163L674.544 145.361L673.951 142.791L675.335 142.988L678.103 144.372L677.51 140.616L679.487 138.837H682.057L684.232 139.627L692.93 139.232L691.349 136.464L697.675 138.441L698.071 140.418L700.048 139.034L700.245 141.604L698.268 143.581L693.326 142.791L692.14 144.768L693.721 146.152L692.14 147.535L694.314 148.524L696.094 147.931L697.477 152.28L693.326 152.873C693.326 152.873 697.477 156.432 695.5 156.037C693.523 155.641 693.523 155.641 693.523 155.641L691.151 157.223L691.744 160.584L688.779 157.42L686.406 159.991L684.232 160.386L685.418 165.526L682.057 168.096L679.289 168.492L680.871 171.26L679.684 172.643H674.149L676.323 175.411V178.772L673.16 179.168L671.579 176.4V178.97L674.94 182.529C674.94 182.529 671.974 184.901 673.16 186.087C674.346 187.273 674.346 187.273 674.346 187.273L677.114 188.657L673.951 189.844L674.149 193.007L669.799 193.995L666.834 190.239L668.02 189.053L671.183 189.844L669.206 186.087L668.218 182.924L667.822 185.889L665.648 188.46L662.88 187.669L660.31 185.494L660.507 189.053L662.88 191.821C662.88 191.821 655.96 193.798 658.926 193.402C661.891 193.007 661.891 193.007 661.891 193.007L664.264 197.158C664.264 197.158 665.648 199.926 662.484 198.147C659.321 196.368 659.321 196.368 659.321 196.368H656.158L654.379 200.915L655.169 205.067L657.937 206.648C657.937 206.648 660.31 203.287 659.519 205.264C658.728 207.241 658.728 207.241 658.728 207.241L656.949 208.823L654.379 210.602L657.542 212.381L659.914 208.427C659.914 208.427 664.066 211.195 662.88 212.579C661.694 213.963 661.694 213.963 661.694 213.963L664.461 216.929L663.275 218.51L659.519 218.906L655.96 221.476L654.181 224.046L653.192 225.232L651.808 229.581L654.379 233.14L652.204 235.117C652.204 235.117 652.204 235.513 649.831 236.699C647.459 237.885 649.634 239.664 647.459 237.885C645.284 236.106 645.284 236.106 645.284 236.106C645.284 236.106 643.11 233.733 644.494 231.954C645.877 230.175 645.877 230.175 645.877 230.175C645.877 230.175 644.494 230.372 642.714 229.779C640.935 229.186 640.935 229.186 640.935 229.186C640.935 229.186 640.144 230.965 637.969 230.57C635.795 230.175 635.795 230.175 635.795 230.175L633.818 232.152C633.818 232.152 634.411 231.756 630.852 230.57C627.293 229.384 627.096 229.384 627.096 229.384L626.107 224.244L624.526 222.464L622.746 224.244L620.176 227.011C620.176 227.011 622.351 228.593 620.572 229.581C618.792 230.57 618.792 230.57 618.792 230.57L613.652 229.581L609.896 228.395L607.326 225.034L603.569 221.871L599.418 223.453L600.011 219.499L596.848 219.894L595.859 217.917L597.045 215.742L594.277 213.765L591.905 210.998L589.73 208.032C589.73 208.032 590.323 208.23 587.951 208.23C585.579 208.23 585.579 208.23 585.579 208.23L582.613 208.625L578.857 205.857L576.88 202.101V199.729L573.914 197.356L576.484 191.821L573.321 186.285L570.949 181.54L567.983 178.772C567.983 178.772 565.413 178.575 567.39 176.993C569.367 175.411 569.367 175.411 569.367 175.411L572.135 176.598L573.321 170.864L570.356 169.678L568.972 172.643L567.39 173.434C567.39 173.434 568.972 170.271 567.39 170.073C565.808 169.876 565.808 169.876 565.808 169.876L567.785 165.526L564.82 161.77L565.018 157.223L562.052 156.827L559.482 155.246L555.528 156.827L554.144 153.664L551.376 152.676L547.62 152.083L546.434 147.931L542.084 144.372L539.316 145.558C539.316 145.558 541.293 146.152 540.503 148.129C539.712 150.106 539.712 150.106 539.712 150.106L537.142 149.71L534.967 151.292L536.549 152.873L535.56 154.257H532.792L534.572 157.223L534.769 161.177L534.572 162.165L538.526 164.34L541.491 162.758L542.48 164.933L540.7 167.503L543.073 169.085L543.27 164.933H547.224L546.434 168.492L549.795 169.48L547.422 171.26L546.236 175.016H548.806L549.597 177.191L552.562 176.4L553.749 172.446L554.737 173.83V176.598C554.737 176.598 556.714 179.761 557.703 177.586C558.691 175.411 558.691 175.411 558.691 175.411L561.459 178.179L560.47 180.156L560.668 182.726L558.691 183.715L558.889 186.087L554.935 185.692L551.969 185.494L548.411 185.692L544.852 187.471L540.7 185.099L539.119 181.145L536.944 177.784H533.583L529.629 178.377L527.059 176.993L525.477 180.749V184.11L528.047 186.68L529.431 188.064L525.28 189.053L520.535 187.076L517.174 185.494L516.185 180.156V175.411L512.824 174.027L510.057 175.411L506.498 176.598Z" fill="#F6F6F6" stroke="#666666" stroke-width="2" id="WBCOC" name="COOCHBEHAR"/>
<path d="M414.471 150.75L417.221 146.75C417.221 146.75 416.471 145.25 417.721 143.5C418.971 141.75 418.971 141.75 418.971 141.75L421.471 144.5L426.221 141.75L426.971 140.75L430.971 142L432.212 144.823L431.933 146.501L434.589 148.458L435.987 149.716L435.567 144.404L436.266 142.307H439.621C439.621 142.307 439.342 145.382 440.46 144.264C441.579 143.146 441.579 143.146 441.579 143.146L443.396 143.565L446.052 146.361L448.009 144.264L450.945 146.78L453.042 145.522L456.257 147.06L457.096 148.738L459.892 151.533V154.749L462.827 158.244L463.666 162.158L464.505 165.932L462.129 169.288L459.053 166.771L458.354 169.288L454.58 167.47L452.762 164.395C452.762 164.395 453.461 166.212 451.923 167.191C450.386 168.169 450.386 168.169 450.386 168.169L450.525 171.524L448.429 172.643L444.794 171.384L444.095 173.621L445.772 176.557L441.718 176.138L439.621 178.095L438.363 179.912L435.148 183.826L435.707 187.042L435.427 188.999L436.686 191.934L434.729 195.15L432.632 196.548L428.577 198.365L425.642 198.784L423.545 201.72L418.372 201.301H416.415L414.458 205.914L410.684 206.333C410.684 206.333 411.103 204.935 409.146 207.172C407.189 209.409 407.189 209.409 407.189 209.409C407.189 209.409 405.371 208.011 405.791 211.087C406.21 214.162 406.21 214.162 406.21 214.162L405.511 216.539L403.554 219.474L404.672 222.55L407.328 224.926L407.189 227.443L405.931 228.142L406.769 231.217C406.769 231.217 409.425 232.335 408.587 233.314C407.748 234.293 407.748 234.293 407.748 234.293C407.748 234.293 407.748 234.572 404.952 234.852C402.156 235.131 403.694 235.131 402.156 235.131C400.618 235.131 400.618 235.131 400.618 235.131L400.059 238.906L398.521 241.282L397.263 243.519L398.242 246.315L396.285 246.734L395.865 249.95L394.327 252.466L392.93 251.068L391.671 253.584L392.51 256.66L394.188 260.574L395.026 263.37C395.026 263.37 393.629 264.908 395.026 265.607C396.424 266.306 396.424 266.306 396.424 266.306C396.424 266.306 396.844 266.026 395.586 268.123C394.327 270.22 394.327 270.22 394.327 270.22L395.586 272.737L397.683 275.113L398.102 278.888L402.436 278.748L403.274 282.243L405.791 279.167H407.608L408.726 275.672L410.264 276.231C410.264 276.231 410.544 278.748 411.103 278.748C411.662 278.748 411.662 278.748 411.662 278.748L414.039 277.769C414.039 277.769 413.619 275.532 414.738 276.371C415.856 277.21 415.856 277.21 415.856 277.21L418.093 274.414L420.889 273.715L424.384 274.414V280.705L427.319 281.264L428.997 283.081L431.653 285.738C431.653 285.738 430.255 287.415 433.331 287.835C436.406 288.254 436.406 288.254 436.406 288.254L439.901 289.792L443.256 292.588L442.976 296.082L445.213 297.201L447.59 300.416L452.483 301.954L456.117 301.534L457.935 305.029L456.956 308.384L456.676 312.998C456.676 312.998 456.397 315.235 454.999 317.052C453.601 318.869 453.461 318.03 453.461 318.03C453.461 318.03 449.407 317.891 450.246 316.632C451.085 315.374 450.945 315.374 450.945 315.374L448.848 313.697L447.31 314.116L446.332 316.632L443.536 316.493L441.998 318.45L440.88 321.386L439.062 322.364L437.804 323.762L434.868 323.902L433.75 325.859L434.449 328.795L431.094 331.031L428.997 331.73L427.18 333.408L426.9 336.344L424.104 338.021L422.147 338.301L422.846 340.258L424.523 341.237V343.753V345.99L423.125 348.646L421.168 348.786L420.19 346.689L418.233 346.549L416.275 347.248L414.738 348.925L415.996 350.323L414.877 351.721L416.136 354.377L414.318 357.313L412.361 355.915L410.124 354.238L409.006 353.539L408.307 356.894L409.985 358.991L411.383 359.13L410.544 360.668L408.167 362.066L409.705 364.163V365.701L408.307 368.217L410.124 368.637L413.619 368.357L417.114 367.239L418.792 369.755L422.147 370.873L423.685 370.454C423.685 370.454 426.341 370.873 425.782 371.992C425.222 373.11 425.222 373.11 425.222 373.11C425.222 373.11 425.362 374.228 423.405 374.927C421.448 375.626 421.448 375.626 421.448 375.626L420.19 372.691L416.415 372.411L415.437 374.228L413.619 376.885L411.942 378.143L409.427 374.892L405.868 374.299L404.287 376.671C404.287 376.671 402.705 377.66 403.891 379.044C405.077 380.427 405.868 377.462 405.077 380.427C404.287 383.393 404.287 383.393 404.287 383.393L401.123 385.37L400.135 380.032L397.169 379.044L397.96 375.88L400.135 375.683C400.135 375.683 402.507 373.31 400.53 372.124C398.553 370.938 398.553 370.938 398.553 370.938C398.553 370.938 396.972 369.356 398.751 366.588C400.53 363.821 400.53 363.821 400.53 363.821L399.344 359.867L394.797 357.692L397.367 355.913V353.738C397.367 353.738 398.949 351.761 397.565 351.168C396.181 350.575 396.181 350.575 396.181 350.575L394.402 347.214L392.029 344.446L390.843 341.085L389.854 335.352L388.47 333.968L390.645 333.375L388.47 330.607L383.923 328.234L382.342 324.478L381.946 321.315L381.749 317.756L383.726 315.384L383.923 310.639L386.493 310.046L383.33 308.069L385.505 305.499L384.121 301.94L384.912 299.963L383.33 297.591C383.33 297.591 381.946 302.335 380.167 299.172C378.388 296.009 378.388 296.009 378.388 296.009C378.388 296.009 376.806 291.462 374.236 292.846C371.666 294.23 371.666 294.23 371.666 294.23L370.084 290.473L366.723 288.694L364.549 282.763C364.549 282.763 362.967 281.577 360.595 283.158C358.222 284.74 358.024 284.74 358.024 284.74L359.211 279.204L357.827 276.437L356.047 272.483L358.815 270.901L360.397 267.935L357.431 265.365L354.861 267.342L351.105 265.168L343.79 265.365L342.999 262.202L343.395 258.05C343.395 258.05 339.441 258.643 340.627 256.469C341.813 254.294 341.813 254.294 341.813 254.294L345.965 252.91L344.581 248.561L345.174 245.595L344.581 241.048L346.756 236.501V233.338L349.326 230.768L352.884 229.977L353.477 227.209L355.652 224.046C355.652 224.046 356.443 225.034 357.629 223.65C358.815 222.266 358.815 222.266 358.815 222.266L359.408 221.673L359.804 223.453L361.583 226.616L364.944 224.243L366.526 223.453L369.491 222.662L366.328 219.301L368.898 218.708C368.898 218.708 374.236 217.719 371.27 216.533C368.305 215.347 368.898 210.602 368.898 210.602L371.468 209.02L373.643 210.8L374.434 207.043L378.19 205.066L379.969 203.089L382.342 204.276L384.714 202.892L386.889 203.287L390.052 200.124C390.052 200.124 389.657 200.322 391.831 197.554C394.006 194.786 394.006 194.786 394.006 194.786L397.96 194.391L398.158 190.832C398.158 190.832 397.762 188.064 400.333 188.064C402.903 188.064 399.542 189.646 402.705 188.064C405.868 186.482 405.671 186.482 405.671 186.482L406.066 183.912L411.404 182.924L413.579 178.574L416.742 175.411L417.928 172.643L420.103 172.446C420.103 172.446 420.696 174.423 421.487 173.236C422.277 172.05 422.277 171.853 422.277 171.853L423.661 169.085L421.091 165.131L419.707 162.956L418.521 164.933H415.753L412.788 162.165L415.16 159.397L417.73 156.827L420.103 155.839L417.335 153.466L415.753 152.478L414.471 150.75Z" fill="#F6F6F6" stroke="#666666" stroke-width="2" id="WBUDNP" name="Uttar Dinajpur"/>
<path d="M456.677 312.998L453.461 318.03C453.461 318.03 448.308 318.307 449.626 316.84C450.945 315.374 450.945 315.374 450.945 315.374L448.848 313.697L447.31 314.116L446.332 316.632L443.536 316.493L440.88 321.386L439.062 322.364L437.804 323.762L434.868 323.902L433.75 325.859L434.449 328.795L431.094 331.031L428.997 331.73L427.18 333.408L426.9 336.344L424.104 338.021L422.147 338.301L422.846 340.258L424.524 341.237V345.99L423.126 348.646L421.168 348.786L420.19 346.689L418.233 346.549L416.276 347.248L414.738 348.925L415.996 350.323L414.878 351.721L416.136 354.377L414.318 357.313L409.006 353.539L408.307 356.894L409.985 358.991L411.383 359.13L410.544 360.668L408.167 362.066L409.705 365.701L408.307 368.217L410.125 368.637L413.62 368.357L417.114 367.239L418.792 369.755L422.147 370.873L423.685 370.454L427.505 370.591L429.699 370.956L432.258 373.333L435 374.064L438.474 372.419L441.399 373.516C441.399 373.516 444.142 375.893 445.421 375.344C446.701 374.796 446.518 374.796 446.518 374.796C446.518 374.796 446.153 372.419 447.067 372.419C447.981 372.419 447.981 372.419 447.981 372.419L450.54 373.882L453.466 371.688L450.906 370.042L453.1 369.677H456.939L457.122 372.602L456.208 376.807L458.95 379.915L460.047 377.904V381.56L458.402 384.302V386.496L456.574 388.325L456.208 391.798C456.208 391.798 458.402 391.067 458.768 392.347C459.133 393.626 459.133 393.809 459.133 393.809L461.876 391.615L463.155 389.239L467.543 389.056L470.834 391.433L474.125 390.518L476.136 391.615L477.964 396.003H480.706L483.266 392.347L484.729 392.53L487.654 389.239L493.687 388.873L498.44 389.97L500.269 388.507H503.377L506.85 389.604L509.593 392.53L512.883 394.175L515.443 391.067L517.82 393.992L522.756 395.089L523.853 390.701L527.144 388.507L528.241 386.679L529.703 389.056L532.811 390.518L536.285 392.347L539.941 393.261L542.318 396.369L543.232 391.615L546.34 392.712L543.781 387.776L545.792 385.399L547.62 385.948L547.254 381.012L546.889 379.366L549.448 376.258L552.556 373.516H555.847V370.591L557.127 369.859H552.008L549.083 367.3L545.609 369.859L542.867 367.3L540.49 367.665L538.479 363.826L537.747 362.364H535.188V365.289L532.628 362.912L529.703 359.621V358.159L526.595 358.341L527.144 354.502L525.133 352.125L523.487 350.114L521.842 348.835L525.315 347.555L524.218 342.801L526.595 341.339L525.498 337.134L525.133 335.306L522.025 333.843L520.928 332.563L520.562 327.627L518.917 326.53L516.357 328.724L512.335 326.896C512.335 326.896 515.26 329.09 513.432 329.638C511.604 330.187 510.141 329.09 511.604 330.369C513.066 331.649 513.066 331.649 513.066 331.649L510.69 333.66C510.69 333.66 509.044 335.123 507.581 333.112C506.119 331.101 506.485 330.187 505.936 331.101C505.388 332.015 505.388 332.015 505.388 332.015L502.828 334.209L502.28 336.951L500.269 338.231L498.075 336.037L496.795 338.414L493.321 335.854H491.31L490.213 332.563L487.837 334.209L485.094 329.638L483.814 328.724L481.438 332.38L478.695 331.101L475.587 329.09L473.576 332.198L472.479 326.53L468.274 323.971L465.166 323.239L466.08 318.852L464.984 317.023L461.693 317.755L458.95 315.012L456.677 312.998Z" fill="#F6F6F6" stroke="#666666" stroke-width="2" id="WBDDNP" name="Dakshin Dinajpur"/>
<path d="M389.854 335.352L390.843 341.085L392.029 344.446L394.401 347.214L396.181 350.575C396.181 350.575 396.864 350.587 397.462 351.005C398.06 351.424 398.179 351.125 398.06 351.364C397.94 351.603 397.94 351.603 397.94 351.603L397.367 353.738V355.913L394.797 357.692L399.344 359.867L400.53 363.821L398.478 366.965L398 368.459V370.073L398.553 370.938L400.511 372.165L401.467 373.181L400.989 374.676L400.135 375.683L397.96 375.88L397.169 379.044L400.135 380.032L401.123 385.37L404.286 383.393L405.293 379.338C405.293 379.338 404.994 380.115 404.157 379.338C403.32 378.561 403.2 379.637 403.32 378.561C403.44 377.485 402.593 378.299 403.44 377.485C404.287 376.671 404.286 376.671 404.286 376.671L405.868 374.299L409.427 374.892L411.942 378.143L413.619 376.885L416.415 372.411L420.19 372.691L421.448 375.626L424.6 374.616L425.222 373.11L425.915 371.508L425.436 371.089L425.078 370.551L427.504 370.591L429.698 370.956L432.258 373.333L435 374.064L438.474 372.419L441.399 373.516C441.399 373.516 443.327 376.349 444.923 375.572C446.518 374.796 446.518 374.796 446.518 374.796L446.596 372.285L447.981 372.419L450.54 373.881L453.465 371.688L450.906 370.042L453.1 369.677H456.939L457.122 372.602L456.208 376.807L458.95 379.915C458.95 379.915 459.926 376.828 459.806 378.501L460.047 381.56L458.402 384.302V386.496L456.573 388.325L456.208 391.798L458.108 391.821L459.133 393.809L457.769 395.625L461.066 398.668L461.827 400.612L460.305 405.684C460.305 405.684 457.262 403.824 457.262 405.177C457.262 406.529 457.093 406.36 457.093 406.36C457.093 406.36 458.615 406.191 458.615 408.558C458.615 410.925 458.615 410.925 458.615 410.925L459.122 414.814L458.108 416.842L456.924 420.9L460.305 422.929L457.769 427.494L454.895 430.03L453.205 431.72L455.064 434.932L452.697 436.792L449.992 436.285V438.99C449.992 438.99 455.064 437.976 452.021 440.512C448.978 443.048 448.978 443.048 448.978 443.048C448.978 443.048 446.78 441.019 445.597 440.85C444.413 440.681 444.413 440.681 444.413 440.681L441.877 441.864C441.877 441.864 441.877 443.893 441.201 445.245C440.525 446.598 440.694 446.598 440.694 446.598C440.694 446.598 437.82 445.584 437.989 447.274C438.158 448.965 438.158 448.965 438.158 448.965L441.032 450.825L441.877 454.206L439.003 457.587L437.482 453.361L434.776 456.404L432.24 453.53L426.83 455.22C426.83 455.22 431.226 450.825 430.043 451.163C428.859 451.501 428.521 451.501 428.521 451.501V447.443L425.478 443.893L422.097 440.681C422.097 440.681 423.111 436.116 418.377 438.483C413.643 440.85 413.643 440.85 413.643 440.85L410.262 442.202C410.262 442.202 409.586 444.738 407.895 445.245C406.204 445.753 406.204 445.753 406.204 445.753L408.74 450.825L411.276 452.515L408.571 454.037L410.938 457.756L412.122 458.602L408.402 461.645L406.035 464.35L404.683 468.407C404.683 468.407 404.176 466.548 402.654 467.224C401.132 467.9 400.287 473.31 400.287 473.31L397.751 474.832L396.229 476.354H394.539C394.539 476.354 395.891 478.382 395.384 481.595C394.877 484.807 396.906 481.256 394.877 484.807C392.848 488.357 392.848 488.357 392.848 488.357L388.96 491.908L386.255 494.951L384.564 497.825L380.506 495.796L376.787 491.231L377.801 485.145L377.125 479.397L375.434 477.199L372.391 472.465L369.179 468.238L364.445 463.674L362.585 459.109L358.866 453.53L358.697 449.303L356.837 441.864L356.33 435.609C356.33 435.609 360.557 433.918 358.021 431.551C355.485 429.184 355.485 429.184 355.485 429.184L353.963 425.296L351.934 423.098L351.765 419.886L348.891 418.533L344.326 417.011L341.621 411.601L341.114 404.162L340.607 397.4L340.945 394.188L338.409 391.821L336.718 390.468L339.761 391.144L342.636 393.004L345.51 392.666L348.891 394.018L350.751 395.033L350.413 391.313L348.722 387.594L351.089 384.213L353.625 384.72L353.118 380.662L354.301 379.817L350.92 377.281C350.92 377.281 354.639 377.45 350.413 374.576C346.186 371.702 346.186 371.702 346.186 371.702L342.466 371.195L340.607 368.32C340.607 368.32 342.297 365.615 341.79 364.263C341.283 362.91 343.143 365.277 341.283 362.91C339.423 360.543 339.423 360.543 339.423 360.543L337.056 359.867V353.443L339.085 353.105L337.733 349.723L340.269 346.511L344.517 348.964C344.517 348.964 347.369 349.723 347.538 348.202C347.708 346.68 347.708 346.68 347.708 346.68C347.708 346.68 346.524 343.468 347.369 343.468C348.215 343.468 348.722 344.82 348.722 344.82C348.722 344.82 349.736 342.115 351.934 342.115C354.132 342.115 354.132 342.115 354.132 342.115L353.118 338.227L355.485 335.184C355.485 335.184 357.851 337.381 357.344 335.014C356.837 332.648 356.837 332.648 356.837 332.648L360.049 333.662L361.064 331.971L363.938 329.266L368.503 329.773L369.686 328.083C369.686 328.083 371.884 330.788 373.237 331.295C374.589 331.802 374.589 331.802 374.589 331.802C374.589 331.802 375.942 329.266 376.28 331.126C376.618 332.986 376.618 332.986 376.618 332.986L376.956 335.522L379.323 334H380.844C380.844 334 382.197 335.184 382.197 336.705C382.197 338.227 382.197 338.227 382.197 338.227L385.747 338.058H389.298L389.854 335.352Z" fill="#F6F6F6" stroke="#666666" stroke-width="2" id="WBMLDP" name="MALDAH"/>
<path d="M364.109 513.949L365.304 521.122L369.847 522.317L373.672 530.925L376.542 532.359L378.215 536.185L378.14 541.106L379.172 544.792L378.215 547.9L377.976 553.878L376.303 556.269L377.02 560.333L379.999 561.394L382.519 563.442V565.593L384.671 563.92L386.823 564.876L387.269 572.721L388.735 575.396L389.453 578.026L384.432 578.744L383.714 581.374L385.866 584.243L383.236 584.96L382.28 588.307L377.976 589.981L373.912 587.829L371.76 588.547L373.912 591.416L368.412 594.285L367.217 597.632L369.608 599.306L366.021 603.61L369.13 606.718L367.695 609.109L366.5 617.955L363.63 618.194L362.913 620.107L360.044 620.346L362.435 625.367L360.044 627.041L361.957 629.671L359.805 632.779L362.674 635.887V641.626L360.522 641.387L358.609 643.539L360.044 648.799L362.913 651.429L364.826 655.254L366.739 651.907L367.695 658.602L370.803 655.971L373.672 657.645L373.433 659.08L378.309 664.017L380.606 664.34L378.647 667.905L379.323 669.258L376.111 669.765L376.28 671.963L379.323 672.639L378.816 673.146V675.175L376.787 675.513L375.096 678.049L372.391 679.402L370.87 682.445L372.222 684.643L373.744 687.517V688.531L371.039 689.377L373.406 691.913L375.62 690.634L377.125 694.449L381.014 696.985L379.492 700.535L379.323 704.254C379.323 704.254 375.435 703.916 375.773 704.762C376.111 705.607 376.111 705.607 376.111 705.607C376.111 705.607 377.632 706.621 375.942 708.312C374.251 710.003 374.251 710.003 374.251 710.003L372.56 712.539L370.87 715.075L368.672 710.848L364.783 713.384L361.402 713.722L360.219 710.341H355.992L353.456 711.186L349.567 706.79L346.186 707.129L345.172 705.1L341.452 706.79L339.085 703.24L337.057 700.535L333.675 703.071L331.816 699.859L328.096 701.887L327.082 703.916L322.855 702.902L319.474 704.254L316.6 705.438L313.895 706.283L310.513 703.916L306.794 704.254L305.103 701.38H303.074L300.707 704.593L298.171 703.747L295.805 704.254L292.085 703.071L287.858 699.859L287.182 702.226L286.506 697.999L284.308 695.125L283.463 691.067L279.912 686.841L276.024 686.672L273.488 683.121L270.107 683.628L266.049 682.783L262.16 683.628L259.455 680.754L257.427 677.035L255.905 677.204L253.369 679.402C253.369 679.402 252.016 680.754 250.157 679.402C248.297 678.049 248.128 678.049 248.128 678.049H243.563H238.322L234.772 676.189L231.221 673.823L228.854 670.272L225.98 667.229L222.768 666.384L229.869 667.229C229.869 667.229 231.221 670.272 233.25 669.258C235.279 668.243 235.279 668.243 235.279 668.243L237.646 668.412L239.337 663.34L235.786 659.621L232.405 657.423L233.25 654.38L236.293 654.718L241.027 657.254L243.394 658.945L243.901 655.902C243.901 655.902 245.423 660.128 246.268 658.945C247.114 657.761 247.283 657.592 247.283 657.592L251.847 657.085H253.369C253.369 657.085 247.114 661.481 249.142 661.988C251.171 662.495 251.171 662.495 251.171 662.495L254.722 662.326L254.891 656.747C254.891 656.747 253.031 654.887 253.538 651.675C254.045 648.463 254.045 648.463 254.045 648.463L255.736 646.096L256.75 648.125L257.088 651.675C257.088 651.675 257.427 654.549 259.117 652.858C260.808 651.168 260.808 651.168 260.808 651.168L262.16 647.786L261.146 642.207L260.977 638.488L259.117 636.966L256.581 635.783L256.074 633.247L257.765 632.063L256.074 627.668L254.383 629.696L252.862 627.329L251.171 624.624L251.002 622.427L252.862 620.229L255.398 621.75C255.398 621.75 256.074 623.61 258.272 623.272C260.47 622.934 260.47 622.934 260.47 622.934L263.851 623.103L266.725 621.919L269.261 623.948C269.261 623.948 268.078 625.808 266.894 626.484C265.711 627.16 265.711 627.16 265.711 627.16L267.232 629.02C267.232 629.02 270.276 629.696 271.121 629.189C271.966 628.682 271.966 628.682 271.966 628.682L273.826 626.822C273.826 626.822 273.995 625.639 276.193 626.653C278.391 627.668 278.391 627.668 278.391 627.668L281.434 630.373L284.815 629.865C284.815 629.865 286.675 633.754 287.52 632.57C288.366 631.387 288.366 631.387 288.366 631.387L290.733 630.373L289.549 627.837L285.83 625.301L289.38 625.132C289.38 625.132 291.747 626.822 292.93 625.977C294.114 625.132 294.114 625.132 294.114 625.132L296.481 622.934L299.693 621.074V619.383L296.312 618.031V614.819L298.002 613.297L298.848 611.606H296.65L296.143 609.408L297.326 606.027H300.031L302.229 608.056L304.089 610.423L307.47 611.099H311.02L310.175 607.38L311.02 604.675L313.387 603.322L316.262 601.8L314.064 599.772L310.851 598.419L308.992 596.898L311.528 595.545C311.528 595.545 312.542 596.898 313.895 595.883C315.247 594.869 311.02 594.7 315.416 594.869C319.812 595.038 319.812 595.038 319.812 595.038C319.812 595.038 319.136 597.912 321.841 597.574C324.546 597.236 324.546 597.236 324.546 597.236L329.111 597.912L331.647 595.207C331.647 595.207 334.013 591.995 331.308 591.149C328.603 590.304 328.603 590.304 328.603 590.304L326.744 587.261C326.744 587.261 327.42 589.459 324.039 587.599C320.657 585.739 320.657 585.57 320.657 585.57L321.672 578.977L323.362 578.807L324.039 580.667L325.898 579.653C325.898 579.653 327.082 580.16 329.787 578.3C332.492 576.441 332.492 576.441 332.492 576.441L332.323 572.552C332.323 572.552 334.352 574.581 333.675 572.552C332.999 570.523 332.999 570.523 332.999 570.523L336.888 571.2L339.762 568.833L341.96 567.142L341.79 561.563L343.65 560.21L345.003 557.843L346.862 555.138L349.06 551.588L347.201 548.883L350.075 548.376L349.906 545.332L348.722 546.347C348.722 546.347 343.988 547.023 345.51 545.84C347.032 544.656 347.031 544.656 347.031 544.656V541.444C347.031 541.444 349.06 542.966 349.06 541.275C349.06 539.584 349.06 539.584 349.06 539.584L351.596 537.048L350.413 534.343L351.089 529.947L346.524 532.822L348.215 527.242L347.37 523.861L347.539 522.001L349.737 521.325L347.539 517.775L341.283 516.253L343.65 514.055V513.21L346.186 513.886L348.891 514.393L351.596 516.084L353.456 518.958L355.823 520.311L358.866 517.944L361.74 517.268L364.109 513.949Z" fill="#F6F6F6" stroke="#666666" stroke-width="2" id="WBBRBM" name="Birbhum"/>
<path xmlns="http://www.w3.org/2000/svg" d="M435.219 904.117L436.626 901.85L434.907 901.147L439.05 900.052L441.16 901.381L444.678 901.537L445.851 903.179L447.883 902.241L450.776 902.319L453.277 899.896L454.606 898.645L455.466 895.518L457.42 892.079L457.889 890.984L459.218 888.405L457.811 885.825L461.407 885.903L463.752 887.232L463.674 892.235L466.019 894.346L466.097 896.847L468.442 898.801L468.677 901.85L472.351 904.977L473.211 907.244L474.774 906.853L477.041 908.182L477.667 909.745L476.103 910.762L474.774 909.98L472.898 909.198L471.335 909.589L470.318 908.417L468.208 908.964L470.006 910.293L469.146 911.856L469.849 913.967L467.895 915.687L466.175 917.797L464.612 919.204L464.534 920.455L462.189 919.986L460.547 921.237L457.42 920.299L455.7 920.142L455.466 918.11L453.981 917.25L453.355 918.11V919.517L451.714 920.768L449.603 920.455L448.899 921.393L447.101 921.159L446.242 921.315V918.97L444.522 918.188L444.756 916.077H443.271L444.834 914.436L445.304 913.029C445.304 913.029 446.632 913.576 446.632 912.794C446.632 912.012 446.632 912.012 446.632 912.012L447.023 910.371L445.616 908.417V906.071L444.365 904.899L443.349 905.837L441.786 906.306L441.708 904.742L439.675 905.915L437.408 905.524L436.47 904.821L435.219 904.117Z" fill="#F6F6F6" stroke="#666666" stroke-width="2" id="WBKOL" name="Kolkata"/>
<path d="M222.768 666.384L225.98 667.229L228.854 670.272L231.221 673.823L234.771 676.189L238.322 678.049L248.233 677.889L251.516 679.921L253.369 679.402L255.905 677.204L257.426 677.035L259.455 680.754L262.16 683.628L266.049 682.783L270.106 683.628L273.488 683.121L276.024 686.672L279.912 686.841L283.462 691.067L284.308 695.125L286.506 697.999L287.182 702.226L287.858 699.859L292.085 703.071L295.804 704.254L298.171 703.747L300.707 704.593L303.074 701.38H305.103L306.794 704.254L304.516 704.78L305.454 707.437L303.109 707.594L300.92 709.783V712.753L298.575 713.222L298.888 716.505L297.637 717.912C297.637 717.912 296.386 714.473 296.386 715.88C296.386 717.287 296.386 717.287 296.386 717.287L294.667 718.381L295.761 720.414C295.761 720.414 293.572 720.883 293.572 722.446C293.572 724.01 293.572 724.01 293.572 724.01L294.823 725.104L293.103 726.199C293.103 726.199 291.54 726.98 292.165 727.762C292.79 728.544 290.602 728.856 292.79 728.544C294.979 728.231 294.979 728.231 294.979 728.231V731.671L296.855 733.859C296.855 733.859 294.667 733.859 295.292 734.641C295.917 735.423 295.917 735.423 295.917 735.423C295.917 735.423 295.448 736.986 295.292 737.768C295.136 738.55 295.448 737.612 295.136 738.55C294.823 739.488 294.823 739.488 294.823 739.488L291.383 737.924C291.383 737.924 288.569 738.55 289.664 739.331C290.758 740.113 290.758 737.768 290.758 740.113C290.758 742.458 290.758 742.458 290.758 742.458L287.944 740.895L285.286 739.957L284.035 737.612L280.908 737.299L277.938 736.361L275.593 734.798L273.56 732.296L269.495 730.889L260.427 724.948L257.301 722.759L252.454 718.069L248.858 715.411L245.575 713.066L241.979 714.004L237.601 712.284L234.318 710.877L231.348 710.095L226.657 707.437L221.967 704.467H219.778L216.182 702.747L214.306 700.558L210.71 701.184H207.427L205.707 702.903L202.58 701.496L200.392 701.184L198.359 701.653L194.92 702.434L191.949 701.027L190.542 697.744L187.728 697.431C187.728 697.431 185.539 697.431 184.914 695.399C184.288 693.367 184.132 693.367 184.132 693.367L183.194 691.959L181.161 693.21L179.598 692.272L177.722 691.178L174.595 689.302L174.751 686.175L175.846 682.423L176.471 679.765H178.347L178.66 675.074L175.377 670.54L174.126 666.476L173.344 663.661C173.344 663.661 175.22 665.85 175.377 664.443C175.533 663.036 174.282 662.567 175.533 663.036C176.784 663.505 176.784 663.661 176.784 663.661L177.253 667.414C177.253 667.414 179.598 667.883 180.067 667.414C180.536 666.945 179.442 668.977 180.536 666.945C181.63 664.912 181.63 664.912 181.63 664.912L184.132 663.974L185.383 661.16C185.383 661.16 185.539 660.378 186.946 660.534C188.353 660.691 188.041 661.785 188.041 661.785C188.041 661.785 187.728 662.88 188.353 664.599C188.979 666.319 188.979 666.319 188.979 666.319L190.698 664.443C190.698 664.443 189.448 661.473 189.291 660.847C189.135 660.222 189.135 660.222 189.135 660.222V655.844C189.135 655.844 191.324 652.561 192.418 652.874C193.513 653.186 191.949 652.405 193.513 653.186C195.076 653.968 195.076 653.968 195.076 653.968L197.108 658.502L199.923 660.534L203.206 658.815L203.675 655.062L206.176 656.782L209.772 659.127L209.616 657.564L215.401 660.691L218.527 662.88L219.778 664.756L222.768 666.384Z" fill="#F6F6F6" stroke="#666666" stroke-width="2" id="WBPSHMBRD" name="Paschim Bardhaman"/>
<path d="M290.758 742.458L289.118 738.715L291.383 737.924L294.823 739.488L295.917 735.423L295.057 734.016L296.855 733.859L294.979 731.671V728.231L292.556 728.7C292.556 728.7 290.914 726.98 292.009 726.589C293.103 726.199 293.103 726.199 293.103 726.199L294.823 725.104L293.572 724.01L293.494 722.055L295.761 720.414L294.666 718.381L296.386 717.287L296.621 715.724L297.637 717.912L298.888 716.505L298.575 713.222L300.92 712.753V709.782L303.109 707.594L305.454 707.437L304.516 704.779L306.793 704.254L310.513 703.916L313.894 706.283L322.855 702.902L327.081 703.916L328.096 701.887L331.815 699.859L333.675 703.071L337.056 700.535L341.452 706.79L345.171 705.1L346.186 707.128L349.567 706.79L353.456 711.186L355.992 710.341H360.218L361.402 713.722L364.783 713.384L368.671 710.848L370.869 715.075L374.251 710.003L376.825 707.047L376.11 705.607L375.965 704.31L379.323 704.254L379.492 700.535L381.013 696.985L377.125 694.449L375.62 690.634L373.405 691.913L371.038 689.377L373.743 688.531V687.517L370.869 682.445L372.391 679.402L375.096 678.049L376.787 675.513L378.815 675.175V673.146L379.323 672.639L376.279 671.963L376.11 669.765L379.323 669.258L378.646 667.905L380.606 664.34V662.666L381.562 659.319L381.084 655.971L385.149 657.406L387.54 655.254L391.365 659.08L391.843 664.579L397.342 667.687L393.995 670.078L393.517 671.513L397.821 678.925L402.363 678.685L404.276 673.425L409.536 673.186V675.816H410.971L414.557 677.968L415.514 673.425L419.1 671.034L422.208 669.839L421.226 673.355C421.226 673.355 423.415 672.495 422.946 673.276C422.477 674.058 422.477 674.058 422.477 674.058L421.773 675.7L423.65 677.185L426.542 677.81L429.278 679.608L428.574 681.094H425.682L424.197 680.859L421.93 680.234L418.959 680.077L417.396 679.999L416.38 681.719L414.816 683.829L413.018 685.862L412.315 688.442L412.08 692.585L414.483 693.831V695.821C414.483 695.821 415.81 698.032 418.684 698.032C421.558 698.032 421.558 698.032 421.558 698.032L424.433 697.368L427.307 700.464L430.402 698.032L432.613 698.474L433.498 697.147L435.93 697.59C435.93 697.59 433.94 701.569 435.709 701.569C437.478 701.569 437.478 701.569 437.478 701.569L439.91 704.886L443.005 703.117L444.995 705.107L443.226 707.76L439.91 708.866L436.814 709.75L437.257 712.182L439.468 714.172L441.458 711.74H444.332L445.658 709.529L448.533 711.519L450.965 710.192L452.955 712.182V713.951L456.492 717.71L457.377 719.7L455.387 723.459L452.513 724.785L454.281 727.438L453.839 728.544L449.196 728.323L448.975 731.418L450.965 733.187L448.533 735.177L449.417 736.946H452.734L453.176 739.378L451.628 743.137L447.648 745.348L447.869 748.001C447.869 748.001 450.744 748.664 450.744 749.549C450.744 750.433 450.744 750.433 450.744 750.433L448.754 750.875L448.975 753.307L447.869 756.403L450.302 757.508L452.292 759.94L450.744 760.604L448.312 760.383L449.196 762.151H452.07L452.955 764.584L454.281 767.679L452.734 768.785L455.387 771.438L458.04 772.543L461.357 775.197C461.357 775.197 464.452 773.428 464.452 774.975C464.452 776.523 464.452 776.523 464.452 776.523L462.02 778.513L459.367 777.85L458.704 779.619L457.377 782.051H455.387L456.271 784.262L455.829 786.694L454.945 788.463C454.945 788.463 456.493 788.242 456.05 790.232C455.608 792.221 455.608 792.221 455.608 792.221L453.839 793.769H453.176L451.849 791.337L450.965 790.232L448.533 791.337L445.216 791.558H442.784H438.804L436.814 790.232C436.814 790.232 436.151 785.81 435.046 787.357C433.94 788.905 433.94 788.905 433.94 788.905L431.508 786.473L429.076 787.799L424.433 786.694L420.674 787.136L420.011 790.232L418.021 792.443L419.789 793.106L419.347 797.749L418.021 800.623L415.588 803.498L412.935 804.824L411.609 807.699L409.176 807.478L405.639 809.246L400.775 808.141L399.89 811.015L400.775 813.447L399.227 814.332L397.679 815.88L400.553 817.648L401.217 820.302H397.9V822.292L395.689 819.859L394.584 822.292H392.373L393.699 824.503L389.941 826.714L387.951 824.503H385.297L385.518 827.156H383.086L380.654 829.146L377.117 829.367L373.137 830.914L372.695 826.492H370.041V830.472L365.84 829.588L364.072 830.693L361.418 829.588L360.092 827.598L358.544 830.03L355.006 825.387H353.016L350.142 826.714L345.057 826.271L343.73 822.292L341.519 818.312L337.981 816.543L335.77 815.216L339.529 814.553L342.403 814.774L345.941 813.668L345.278 808.804L346.826 806.593L349.921 805.267L346.604 802.613L342.846 793.769L341.961 797.749L339.087 795.98L334.444 794.875L335.107 791.116L330.243 787.799L328.916 783.156L327.368 780.724L329.801 776.523L328.253 773.87L325.157 774.091L322.725 772.101L318.967 770.332L314.987 765.247L312.555 764.363L310.344 760.383L305.479 756.403L300.394 753.75L297.077 749.549L290.758 742.458Z" fill="#F6F6F6" stroke="#666666" stroke-width="2" id="WBPURBRD" name="Purba Bardhaman"/>
<path d="M508.522 602.414L506.37 605.522H502.784L504.457 607.196L500.154 608.152L500.753 609.883L498.48 615.564L497.285 617.477L500.871 618.194L499.676 622.02L499.308 624.92L495.85 625.845L490.59 622.737L488.916 616.282L484.613 614.608H482.222L482.7 620.585L480.787 624.889H476.244L478.157 627.997L477.201 632.779L475.288 632.54L472.658 634.692V636.366L471.115 634.173L467.637 636.126V638.757L472.897 639.713L476.244 642.104V645.929L471.223 642.343L468.832 645.212L470.267 648.559L470.984 653.102L470.267 655.015L471.223 657.645L466.202 658.601L468.079 654.558L466.202 652.146H463.572L463.886 655.859L462.855 659.08L459.986 662.666L458.551 658.123L454.965 660.036L450.9 657.645H448.748L447.314 660.753H442.532L438.945 661.232L434.642 660.514L433.446 663.144H429.621V669.6L428.186 671.513L422.209 669.839L421.227 673.355L422.477 674.058L421.774 675.7L423.65 677.185L426.542 677.81L429.278 679.608L428.575 681.094H425.682L421.93 680.234L417.396 679.999L414.817 683.829L413.019 685.862L412.315 688.442L412.081 692.585L414.483 693.831V695.821L417.332 698.076L421.559 698.032L424.433 697.368L427.307 700.464L430.403 698.032C430.403 698.032 431.729 699.801 432.614 698.474L433.712 696.572L435.93 697.59L435.115 700.1L434.97 701.546L437.478 701.569L439.91 704.886L443.006 703.117L444.995 705.107L443.227 707.76L436.815 709.75L437.257 712.182L439.468 714.172L441.458 711.74H444.332L445.659 709.529L448.533 711.519L450.965 710.192L452.955 712.182V713.951L456.493 717.71L457.377 719.7L455.387 723.458L452.513 724.785L454.282 727.438L453.84 728.544L449.196 728.323L448.975 731.418L450.965 733.187L448.533 735.177L449.418 736.946H452.734L453.176 739.378L451.629 743.137L447.649 745.348L447.87 748.001L450.44 748.678L450.744 750.433L448.754 750.875L448.975 753.307L447.87 756.403L450.302 757.508L452.292 759.94L450.744 760.604L448.312 760.383L449.196 762.151H452.071L454.282 767.679L452.734 768.785L455.387 771.438L458.041 772.543L461.357 775.197L464.031 774.124L464.754 774.847L467.501 772.967L470.247 771.233L472.995 771.088L474.296 773.69V776.727L473.284 779.763L471.982 782.654L470.103 786.702L470.681 788.727L473.284 791.329L475.308 790.172L480.223 791.04L481.091 794.51L481.669 797.979L478.199 800.582L474.151 798.558L472.127 800.293V803.184V808.389L468.657 810.702H465.766L464.32 813.594V816.485L463.163 818.51L464.32 824.293L465.187 826.606L468.079 824.004L474.729 824.582L476.754 828.052L479.934 827.184L482.537 824.871L483.404 828.919H488.609L492.657 830.943L496.127 831.232L499.597 831.811L501.621 833.835L501.332 837.305L505.091 837.883L507.404 836.148L510.585 836.726C510.585 836.726 512.32 836.726 511.452 834.413C510.585 832.1 510.585 832.678 510.585 832.678L507.693 829.787C507.693 829.787 508.561 829.498 508.272 827.763C507.982 826.028 507.982 826.028 507.982 826.028L511.452 824.871L509.139 821.69L508.272 817.642L510.585 815.04L510.296 811.281L513.476 809.835L512.898 804.341L515.211 800.293C515.211 800.293 509.139 794.799 510.874 794.799C512.609 794.799 512.609 794.799 512.609 794.799L511.163 791.329L512.898 792.775L515.5 788.437L514.731 784.477L514.527 782.023L517.798 781.819L518.82 777.525L515.958 772.618L516.776 768.12L520.252 767.506L523.932 769.142L519.843 764.644L517.389 760.35L514.527 757.692L516.571 754.216L518.207 754.421L523.523 753.194L520.66 748.082L519.229 746.855L520.252 746.446C520.252 746.446 519.638 748.491 522.296 746.242C524.954 743.993 524.954 743.993 524.954 743.993L523.523 740.517L521.478 738.268L524.136 735.405C524.136 735.405 520.66 733.361 522.296 732.952C523.932 732.543 523.932 732.543 523.932 732.543V729.885C523.932 729.885 524.75 726.409 525.977 727.84C527.203 729.272 527.203 729.271 527.203 729.271L529.657 727.636C529.657 727.636 527.817 726.613 528.635 723.955C529.452 721.297 529.452 721.297 529.452 721.297L530.884 717.413L527.817 715.777L525.159 718.639L522.501 720.684C522.501 720.684 522.092 720.888 520.047 719.457C518.002 718.026 518.002 718.026 518.002 718.026C518.002 718.026 517.389 718.026 516.162 716.595C514.935 715.163 514.935 715.163 514.935 715.163L511.868 714.755L510.028 710.461L507.984 709.234L505.326 708.212L503.281 704.94L503.894 700.851L503.281 697.171L499.601 696.557L496.943 698.602L493.876 699.42C493.876 699.42 490.4 699.624 491.013 698.806C491.627 697.988 489.582 701.464 491.627 697.988C493.671 694.513 493.671 694.513 493.671 694.513L494.489 691.446H491.218H487.946L487.742 688.788L489.786 684.494L490.4 681.427C490.4 681.427 488.56 679.791 488.151 677.542C487.742 675.293 487.742 675.293 487.742 675.293L490.195 671.817L489.173 668.341L490.195 666.501C490.195 666.501 484.879 664.456 487.128 664.047C489.377 663.638 486.719 667.728 489.377 663.638C492.036 659.549 492.649 660.776 492.035 659.549C491.422 658.322 491.422 658.322 491.422 658.322L494.08 657.3C494.08 657.3 491.422 656.687 491.831 654.846C492.24 653.006 492.24 653.006 492.24 653.006C492.24 653.006 487.128 649.326 488.764 648.713C490.4 648.099 490.4 648.099 490.4 648.099L494.898 647.895L497.147 647.69L499.601 649.122L501.236 647.69L504.099 647.486L505.53 644.623L506.961 643.805L509.619 641.147L511.255 638.694L513.3 640.125L514.527 637.672L517.185 637.263L517.389 633.991L518.002 632.355L516.571 627.857L517.594 624.79L520.456 625.199L522.092 623.155L521.274 619.679L519.025 620.088L515.344 622.95C515.344 622.95 511.869 621.519 514.118 620.088C516.367 618.656 516.367 618.656 516.367 618.656L516.98 613.34C516.98 613.34 513.095 613.545 513.913 610.887C514.731 608.229 514.731 608.229 514.731 608.229L514.118 604.957V602.095H512.891L510.233 604.548L508.522 602.414Z" fill="#F6F6F6" stroke="#666666" stroke-width="2" id="WBNDA" name="Nadia"/>
<path d="M191.949 701.027L194.92 702.435L200.392 701.184L202.581 701.496L205.708 702.904L207.427 701.184H210.711L214.306 700.558L216.183 702.747L219.779 704.467H221.967L226.008 707.186L231.348 710.095L234.318 710.877L241.979 714.004L245.575 713.066L252.454 718.069L257.301 722.759L262.5 726.661L269.496 730.889L273.561 732.296L275.593 734.798L277.938 736.361L284.036 737.612L285.286 739.957L290.758 742.458L296.345 748.784L300.394 753.75L305.48 756.403L310.344 760.383L312.555 764.363L314.987 765.247L318.967 770.332L322.726 772.101L325.158 774.091L328.253 773.87L329.801 776.523L327.369 780.724L328.917 783.156L330.243 787.8L335.108 791.116L334.444 794.875L339.087 795.98L341.962 797.749L342.846 793.769L346.605 802.613L349.921 805.267L346.826 806.593L345.278 808.804L345.942 813.669L342.404 814.774L335.771 815.216L337.982 816.543L338.32 819.688L335.295 819.499L333.782 822.713L330.001 822.146L327.732 821.578L327.543 824.793L330.568 826.495L330.001 830.843C330.001 830.843 329.623 830.465 329.245 832.167C328.866 833.869 328.866 833.869 328.866 833.869L326.03 835.003L325.841 836.894L326.03 835.57L326.787 839.73L325.085 841.243L322.627 840.486L321.492 839.352L319.223 840.108L317.711 839.163L317.9 837.461L314.686 836.516L313.551 835.192L311.66 835.381L309.202 834.436C309.202 834.436 307.69 833.112 306.933 833.301C306.177 833.49 306.177 833.49 306.177 833.49L303.152 834.625L300.316 836.705L295.778 837.839L294.643 835.381H289.727L288.782 833.49L284.811 833.869L283.488 831.789L280.273 831.978L278.383 830.654H275.546L271.954 832.167H270.63L269.307 834.436L268.361 835.948L265.903 836.138L264.769 836.894L265.525 838.974L262.689 839.541L259.853 840.297L256.45 840.486L254.559 840.108L252.668 839.163L251.155 841.621L247.563 843.133L245.672 841.621L243.403 842.566L244.727 843.512L243.214 845.97L240.567 849.184L238.298 852.02H235.084H230.924L226.764 851.264H225.441L224.117 856.558L225.441 859.961L227.521 863.176L229.979 866.39L229.411 869.037L230.546 872.062L229.79 873.197L226.764 874.142L222.226 875.277L221.848 878.302L219.201 880.382L217.31 882.083L219.201 884.92L219.012 888.323L217.5 890.403L215.798 889.836L212.016 885.487L208.991 885.676L206.911 887.945L206.533 890.592L207.289 892.672L204.075 893.428L201.617 895.508L196.701 890.025L194.054 889.268L189.894 886.999L186.869 883.596L182.52 881.705L181.008 879.058L177.982 880.193L174.957 877.924L174.39 875.844L170.419 873.575H167.583L166.638 872.062L164.18 873.197C164.18 873.197 162.667 871.873 161.532 870.361C160.398 868.848 160.398 868.848 160.398 868.848L156.995 869.037L153.969 865.066L150.188 863.554L145.272 863.365C145.272 863.365 144.137 863.365 145.083 861.096C146.028 858.827 146.028 860.907 146.028 858.827C146.028 856.747 146.028 856.747 146.028 856.747L150.188 857.692L151.89 855.045L153.78 854.856L154.726 851.831L157.562 849.751L161.911 847.86V842.755L158.507 835.192L161.911 832.545L163.423 826.495L164.936 824.982C164.936 824.982 164.369 822.902 165.125 821.011C165.881 819.121 165.881 819.31 165.881 819.31L164.18 816.662L166.259 814.961L165.503 812.314L167.772 805.129L165.881 803.427L162.667 801.347C162.667 801.347 163.612 799.835 163.801 797.377C163.991 794.919 163.991 794.919 163.991 794.919L166.449 791.326L168.717 790.381C168.717 790.381 166.827 788.301 168.339 786.788C169.852 785.276 169.852 785.276 169.852 785.276L173.823 784.708L173.255 780.738L170.419 776.956L173.066 774.687L171.743 771.095L172.499 769.204L171.554 766.935L173.255 765.044L172.499 762.964V759.561L173.444 757.292L176.848 757.103L177.982 755.212L177.415 753.321L181.764 753.132L180.44 749.729L184.033 749.54L183.276 744.624L184.222 741.41L187.058 738.952C187.058 738.952 184.222 739.519 181.953 739.519C179.684 739.519 179.684 739.519 179.684 739.519C179.684 739.519 178.36 739.141 179.117 736.115C179.873 733.09 179.873 733.09 179.873 733.09L186.113 733.657L187.058 730.065L189.894 726.851L192.919 728.174L190.083 723.825L191.029 719.477L188.76 717.586L185.734 713.237L187.814 712.102L189.894 712.481L189.138 709.644L188.949 706.997L189.705 702.838L191.949 701.027Z" fill="#F6F6F6" stroke="#666666" stroke-width="2" id="WBBANK" name="Bankura"/>
<path d="M174.595 689.302L181.161 693.21L183.194 691.959L184.132 693.366L187.728 697.431L190.542 697.744L191.949 701.027L189.705 702.838L188.948 706.997L189.894 712.481L185.734 713.237L188.759 717.586L191.028 719.476L190.083 723.825L192.919 728.174L189.894 726.85L187.058 730.065L186.112 733.657L179.873 733.09L179.15 737.688L179.684 739.519L187.058 738.951L184.221 741.409L183.276 744.624L184.032 749.54L180.44 749.729L181.763 753.132L177.415 753.321L177.982 755.212L176.847 757.103L173.444 757.292L172.499 759.561V762.964L173.255 765.044L171.553 766.935L172.499 769.204L171.742 771.095L173.066 774.687L170.419 776.956L173.255 780.738L173.822 784.708L169.852 785.275L167.652 787.558L168.717 790.381L166.448 791.326L163.99 794.918L162.667 801.347L165.881 803.427L167.772 805.129L165.503 812.314L166.259 814.961L164.179 816.662L165.881 819.309L164.711 822.854L164.936 824.982L163.423 826.494L161.91 832.545L158.507 835.192L161.91 842.755V847.86L154.725 851.831L153.78 854.856L151.889 855.045L150.187 857.692L146.028 856.747L146.127 859.621L144.389 862.161L144.79 864.033L143.987 867.375L142.65 870.985L140.912 872.189L141.18 874.863L138.238 876.333L137.436 879.943L134.629 878.205L131.019 879.275L127.676 878.339C127.676 878.339 132.222 885.291 128.211 881.547C124.2 877.804 126.339 878.339 126.339 878.339C126.339 878.339 123.131 880.211 121.794 877.002C120.457 873.793 120.457 873.793 120.457 873.793L117.515 870.317L111.9 864.702C111.9 864.702 110.83 866.573 112.435 862.295C114.039 858.017 113.504 863.365 114.039 858.017C114.574 852.669 114.574 854.808 114.574 852.669C114.574 850.53 114.574 850.529 114.574 850.529L118.05 851.064L116.98 846.786L119.922 844.379L114.841 840.903V837.427C114.841 837.427 115.376 839.834 118.317 837.16C121.259 834.486 121.259 834.486 121.259 834.486L124.735 835.555L129.815 834.218L131.42 829.138C131.42 829.138 133.559 832.347 133.559 829.673C133.559 826.999 133.559 826.731 133.559 826.731H130.618L128.211 830.742L125.002 826.464L119.387 826.731L115.643 827.801L111.633 825.662L107.087 829.405C107.087 829.405 106.285 830.207 104.68 828.336C103.076 826.464 103.076 826.464 103.076 826.464L100.402 826.999L94.7866 827.533L88.6364 822.72L85.4277 824.859L82.2189 826.731L74.4644 826.999L71.7905 824.057L69.1165 824.325L66.4425 818.175H63.2338L61.8968 814.698L59.7576 813.094V809.885L54.9445 808.548L52.0031 809.083L49.3292 805.874L46.1204 805.34L42.1095 804.003L43.4464 801.596L40.2377 796.248L36.4941 794.376L33.8202 796.248L28.4722 793.039L25.7983 795.446C25.7983 795.446 24.1939 794.376 22.5895 795.981C20.9851 797.585 20.9851 797.585 20.9851 797.585L18.0438 795.446C18.0438 795.446 10.8241 790.633 12.6959 789.831C14.5676 789.028 14.5676 788.761 14.5676 788.761L11.3589 784.75L5.47615 783.948L6.01094 780.204L2 775.926L3.33698 772.985L5.20876 770.311L6.54574 764.963C6.54574 764.963 10.8241 766.032 11.0915 763.091C11.3589 760.15 11.3589 760.15 11.3589 760.15L15.1024 757.476L10.8241 755.069L12.9633 748.919L16.172 749.721C16.172 749.721 11.6263 748.651 13.498 747.047C15.3698 745.443 16.172 749.186 15.3698 745.443C14.5676 741.699 14.5676 741.699 14.5676 741.699C14.5676 741.699 11.3589 746.512 10.8241 743.036C10.2893 739.56 10.2893 739.56 10.2893 739.56C10.2893 739.56 10.2893 735.014 13.498 734.212C16.7068 733.41 16.9742 733.41 16.9742 733.41L24.9961 733.945L29.8092 731.538L34.8898 733.41L37.5637 731.538L44.7834 730.736L40.2377 727.527L37.2963 720.575V717.366L43.179 713.088L48.7944 715.762L56.5489 715.494L60.8272 717.633V722.981L59.4902 724.586L62.4316 728.329L60.5598 733.945L65.6403 733.677L71.7905 736.619L74.4644 738.49L75.534 734.747L77.4058 734.212V738.223L74.7318 741.967L78.7428 743.571L82.2189 740.63L86.7647 742.501C86.7647 742.501 89.4386 745.71 89.706 744.908C89.9734 744.106 89.9734 744.106 89.9734 744.106V740.095L92.9148 737.153L95.5887 737.956L98.2627 734.479V726.992L100.937 723.784L98.2627 720.307L103.076 712.82L106.285 712.553L109.226 713.088L108.424 710.146L112.97 708.542C112.97 708.542 111.098 706.67 112.167 705.333C113.237 703.996 113.237 704.264 113.237 704.264L117.515 702.659L121.794 702.125L127.142 703.729L131.152 701.857L140.511 694.103H146.127L150.405 691.696L157.625 689.557L164.844 690.359L165.914 693.835L170.995 692.498L174.595 689.302Z" fill="#F6F6F6" stroke="#666666" stroke-width="2" id="WBPURL" name="Purulia"/>
<path d="M303.151 834.625L306.177 833.49L309.202 834.436L311.66 835.381L313.551 835.192L314.685 836.516L317.899 837.461L317.71 839.163L319.223 840.108L321.492 839.352L322.626 840.486L325.084 841.242L326.786 839.73L326.03 835.57L328.866 833.868L330.568 826.494L327.542 824.793L327.731 821.578L333.782 822.713L335.295 819.498L338.32 819.688L337.981 816.543L341.519 818.312L343.73 822.291L345.057 826.271L350.142 826.713L353.016 825.387H355.006L358.544 830.03L360.092 827.598L361.418 829.588L364.072 830.693L365.84 829.588L370.041 830.472V826.492H372.695L373.137 830.914L377.117 829.367L380.654 829.146L383.086 827.156H385.519L385.297 824.502H387.951L389.941 826.713L393.699 824.502L392.373 822.291H394.584L395.689 819.859L397.9 822.291V820.302H401.217L400.554 817.648L397.679 815.879L400.775 813.447L399.89 811.015L400.775 808.141L405.639 809.246L409.177 807.478L411.609 807.699L412.935 804.824L415.589 803.498L418.021 800.623L419.347 797.749L419.789 793.106L418.021 792.443L420.011 790.232L420.674 787.136L424.433 786.694L429.076 787.799L431.508 786.473L433.94 788.905L435.506 786.788L436.814 790.232L438.804 791.558L448.533 791.337L450.965 790.232L453.176 793.769L455.608 792.221L456.493 789.813L454.945 788.463L456.271 784.262L455.387 782.051H457.377L458.704 779.619L459.367 777.85L462.02 778.513L464.452 776.523L464.753 774.847L470.247 771.232L472.994 771.088L474.295 773.69V776.726L473.283 779.763L470.103 786.702L470.681 788.726L473.283 791.329L475.307 790.172L480.223 791.04L481.669 797.979L478.199 800.582L474.151 798.558L472.127 800.293V808.389L468.657 810.702H465.765L464.32 813.594V816.485L463.163 818.51L464.32 824.293L465.187 826.606L464.057 831.789L464.624 836.326L460.653 842.566L458.006 844.457C458.006 844.457 459.708 848.238 459.33 848.806C458.951 849.373 458.951 849.373 458.951 849.373L455.926 849.562V853.911L454.981 856.747L452.334 859.016L451.956 861.474L455.359 862.23L458.573 865.823L456.683 868.47L457.817 872.062C457.817 872.062 458.762 873.953 458.384 876.033C458.006 878.113 459.33 873.764 458.006 878.113C456.683 882.461 456.683 882.461 456.683 882.461L457.811 885.825L453.846 880.949H451.956L448.741 879.058L447.607 881.705L442.88 880.949L440.422 882.84L437.018 878.869L434.371 880.003H429.266C429.266 880.003 424.917 880.571 425.296 882.083C425.674 883.596 425.674 883.596 425.674 883.596L423.405 881.327L421.136 876.411L420.38 878.869L414.896 878.113L414.14 875.087H411.871L411.682 876.789L406.01 878.302L404.308 873.197L402.606 877.356V880.003L399.77 878.491H396.178L392.774 873.953L391.451 869.604L393.531 866.579L391.829 862.608L390.316 860.15L388.236 861.852H384.644L384.266 868.091L383.32 875.087L380.862 878.113L381.997 883.029L381.43 885.487L383.888 887.567L382.186 889.835L376.703 889.079V892.483L372.543 895.13L369.518 893.617L367.06 896.075L361.576 892.672L360.442 891.726L357.417 888.512L357.984 885.676L354.013 881.516L350.799 876.789L351.177 873.197L347.017 868.659V862.986L344.181 861.474L342.101 859.016L339.832 861.663H335.673L336.051 857.314L331.891 856.558L328.677 856.18L326.786 854.478L325.841 849.562L323.572 848.238L319.412 850.696L315.441 848.049L312.416 845.969L306.366 846.348L308.635 842.755L304.664 838.406L303.151 834.625Z" fill="#F6F6F6" stroke="#666666" stroke-width="2" id="WBHOOG" name="Hooghly"/>
<path d="M367.06 896.075L369.518 893.617L372.543 895.13L376.703 892.482V889.079L382.186 889.835L383.888 887.566L381.43 885.487L381.997 883.029L380.862 878.113L383.32 875.087L384.644 861.852H388.237L390.316 860.15L393.531 866.579L391.451 869.604L392.774 873.953L396.178 878.491H399.77L402.606 880.003V877.356L404.308 873.197L406.01 878.302L411.682 876.789L411.871 875.087H414.14L414.896 878.113L420.38 878.869L421.136 876.411L423.405 881.327L425.674 883.596L426.052 880.76L431.724 880.003H434.371L437.019 878.869L440.422 882.839L442.88 880.949L447.607 881.705L448.741 879.058L453.846 880.949L457.811 885.825L459.218 888.405L457.889 890.984L455.466 895.518L454.606 898.645L450.775 902.319L447.883 902.241L445.851 903.179L444.678 901.537L441.16 901.381L439.05 900.052L434.907 901.147L436.626 901.85L435.219 904.117L437.408 905.524L437.208 907.798L433.993 909.689L430.59 910.067L423.783 917.063L419.245 917.819H416.031V921.411L417.544 925.76L420.569 928.407L420.38 931.432L416.976 933.134L413.384 936.349L411.682 940.13L413.573 945.046V949.962L410.359 952.987L409.035 960.172L405.443 966.223H402.039L395.421 963.008L388.615 955.067V948.639L388.426 939.752L385.968 933.701L386.346 931.243L383.131 928.407L381.808 925.76L377.27 925.949L372.354 923.869L372.732 921.411L376.892 919.142L373.867 916.495L370.652 912.147H374.056V909.31L370.463 907.609L366.682 903.071V899.667L368.383 897.777L367.06 896.075Z" fill="#F6F6F6" stroke="#666666" stroke-width="2" id="WBHWH" name="Howrah"/>



<path xmlns="http://www.w3.org/2000/svg" d="M347.018 862.986L342.102 859.016L339.833 861.663H335.673L336.051 857.314L328.677 856.18L326.786 854.478L325.841 849.562L323.572 848.238L319.412 850.696L312.417 845.969L306.366 846.348L308.635 842.755L304.664 838.406L303.152 834.625L300.316 836.705L295.778 837.839L294.643 835.381H289.727L288.782 833.49L284.811 833.868L283.488 831.789L280.273 831.978L278.383 830.654H275.546L271.954 832.167H270.63L268.361 835.948L265.903 836.137L264.769 836.894L265.525 838.974L256.449 840.486L252.668 839.163L251.155 841.621L247.563 843.133L245.672 841.621L243.403 842.566L244.727 843.511L238.298 852.02H230.924L225.441 851.264L224.117 856.558L225.441 859.961L229.979 866.39L229.411 869.037L229.79 873.197L226.953 873.764L231.005 879.02L235.315 879.769L236.064 885.391C236.064 885.391 236.064 885.391 233.816 885.953C231.567 886.515 230.817 891.387 230.817 891.387L233.253 894.948V899.258C233.253 899.258 233.066 899.258 231.942 899.258C230.817 899.258 233.441 904.879 233.441 904.879L235.877 910.689L232.316 915.748C232.316 915.748 232.316 915.748 232.316 919.121C232.316 922.494 231.38 924.93 231.38 924.93H235.689L238.5 927.741L235.502 931.114L242.061 934.675L244.309 932.988L245.996 933.738V936.736L248.245 938.797L251.43 937.86L253.304 935.612L257.802 935.799L260.425 933.738C260.425 933.738 260.425 933.738 262.861 935.049C265.297 936.361 262.486 936.923 262.486 936.923L258.364 939.172L254.054 941.233L249.931 942.732L246.746 947.042L244.122 949.666L248.807 952.289L253.679 955.662L251.243 959.41L258.364 964.282L257.989 968.78C257.989 968.78 256.302 969.154 254.429 968.03C252.555 966.906 254.429 968.03 250.868 967.468C247.308 966.906 248.994 968.217 248.994 968.217L248.807 972.153L250.306 976.088H248.994L249.182 980.773L251.43 983.396L247.682 985.27L244.497 986.207L242.81 988.643C242.81 988.643 242.81 988.643 242.998 990.892C243.185 993.14 244.497 993.14 244.497 993.14L242.436 994.265L243.185 997.076H245.621L247.87 998.95L250.681 1003.45L254.429 1006.45L257.427 1012.63L258.739 1015.63L260.238 1020.12L265.297 1028.74L262.486 1030.24V1033.24L263.611 1037.18L266.234 1042.61L267.921 1047.67L270.169 1051.23L272.793 1050.11L276.166 1052.54L280.851 1053.11L283.474 1052.92L286.472 1056.85L288.346 1055.92L292.281 1056.85H298.84L298.465 1053.85L296.591 1051.61L297.903 1049.92L299.777 1044.3L301.651 1040.93L300.152 1036.05L299.215 1033.43L303.337 1031.93L305.961 1029.12L304.837 1024.25C304.837 1024.25 304.837 1024.25 306.523 1023.69C308.21 1023.12 310.833 1021.25 310.833 1021.25L307.46 1019.19L305.211 1016.19C305.211 1016.19 305.211 1016.19 304.649 1012.82C304.087 1009.44 304.649 1012.82 304.462 1011.5C304.274 1010.19 301.464 1010.38 301.464 1010.38V1006.26L305.211 1005.32L304.462 1003.07L305.399 999.699L303.712 997.638L307.46 994.452L312.145 995.014L315.518 996.326L319.453 994.077L323.95 991.079L326.574 992.391L329.01 991.267L338.005 990.517L344.189 985.27L343.064 983.209L344.189 979.461L344.001 976.088L348.124 974.589L347.749 971.59L344.751 969.904L341.753 968.78L342.315 966.718L343.439 961.284L343.626 957.161L345.5 952.664L345.875 949.478L342.315 947.23L336.131 948.541L332.008 946.293L333.133 940.109L334.632 932.801L332.383 928.678L333.507 923.619L336.131 922.119L336.506 918.934L338.754 918.184L339.691 913.312L343.064 916.872L346.25 915.935L348.499 918.746L352.879 919.332L356.283 917.63L358.362 917.819L362.9 914.226L364.035 913.659L367.06 911.201L370.652 912.147H374.056V909.31L370.463 907.609L366.682 903.071V899.667L368.384 897.777L367.06 896.075L361.577 892.672L357.417 888.512L357.984 885.676L354.014 881.516L350.799 876.789L351.177 873.197L347.018 868.659V862.986ZM347.018 862.986L344.182 861.474" fill="#F6F6F6" stroke="#666666" stroke-width="2" id="WBMEDWEST" name="MEDINIPUR WEST"/>
<path xmlns="http://www.w3.org/2000/svg" d="M137.437 879.943L138.239 876.333L141.18 874.863L140.913 872.189L142.651 870.985L143.988 867.376L144.79 864.033L150.188 863.554L153.969 865.066L156.995 869.037L160.398 868.848L164.179 873.197L166.638 872.062L167.583 873.575H170.419L174.39 875.844L174.957 877.924L177.982 880.193L181.007 879.058L182.52 881.705L186.869 883.596L189.894 886.999L194.054 889.268L196.701 890.025L201.617 895.508L204.075 893.428L207.289 892.672L206.533 890.592L206.911 887.945L208.991 885.676L212.016 885.487L215.798 889.836L217.499 890.403L219.012 888.323L219.201 884.92L217.31 882.083L221.848 878.302L222.226 875.277L226.953 873.764L231.005 879.02L235.315 879.769L236.064 885.391L232.879 887.077L230.817 891.387L233.253 894.948V899.258H230.817L235.877 910.689L232.316 915.748L232.504 922.494L231.38 924.93H235.689L238.5 927.741L235.502 931.114L242.061 934.675L244.309 932.988L245.996 933.738V936.736L248.245 938.797L251.43 937.86L253.304 935.612L257.802 935.799L260.425 933.738L263.798 935.049L262.486 936.923L249.931 942.732L244.122 949.666L248.807 952.289L253.679 955.662L251.243 959.41L258.364 964.282L257.989 968.78L253.866 967.655L248.994 968.218L248.807 972.153L250.306 976.088H248.994L249.182 980.773L251.43 983.396L244.497 986.207L242.81 988.643L242.998 992.016L244.497 993.141L242.436 994.265L243.185 997.076H245.621L248.807 1000.64L250.681 1003.45L254.429 1006.45L256.49 1011.32L260.238 1020.12L258.739 1022.94L252.367 1020.87L250.119 1018.25L248.057 1021.81L247.308 1026.68L243.56 1028.93L239.137 1027.64L236.222 1032.67L237.812 1035.06L236.487 1039.03L235.957 1040.62H231.982L226.151 1039.3L223.236 1037.18L219.526 1030.29C219.526 1030.29 220.056 1026.05 221.381 1023.93L224.561 1017.57L223.766 1010.68L222.176 1005.11L215.816 1001.93L211.046 998.485L200.71 997.425L192.76 995.57L189.315 996.63L183.485 990.27L181.365 984.704L176.064 987.09L168.644 988.15C168.644 988.15 166.524 980.464 167.319 978.344C168.114 976.224 168.114 976.224 168.114 976.224L169.439 973.044C169.439 973.044 169.704 976.489 174.209 974.634C178.715 972.779 173.679 975.164 178.715 972.779C183.75 970.394 183.75 970.394 183.75 970.394V964.564L191.7 965.359L197 964.829C197 964.829 200.18 958.733 197.795 957.408C195.41 956.083 195.41 956.083 195.41 956.083C195.41 956.083 188.785 955.818 187.99 953.433C187.195 951.048 187.195 951.048 187.195 951.048L189.58 940.448L185.34 935.413L174.474 932.762L172.354 926.137L173.149 921.632L179.775 922.162L181.63 916.862L176.064 909.177L171.029 903.611L164.934 904.406L157.514 905.996L152.214 900.961L150.093 899.371L151.154 890.096L144.263 883.736L141.613 883.206L137.437 879.943Z" fill="#F6F6F6" stroke="#666666" stroke-width="2" id="WBJHGRMB" name="Jhargram"/>
<path xmlns="http://www.w3.org/2000/svg" d="M298.84 1056.85L298.465 1053.85L296.591 1051.61L297.903 1049.92L299.777 1044.3L301.651 1040.93L299.215 1033.43L303.337 1031.93L305.961 1029.12L304.836 1024.25L310.833 1021.25L307.46 1019.19L305.211 1016.19L305.024 1011.32L301.463 1010.38V1006.26L305.211 1005.32L304.462 1003.07L305.399 999.699L303.712 997.638L307.46 994.452L312.145 995.014L315.518 996.326L323.95 991.079L326.574 992.391L329.01 991.266L338.005 990.517L344.189 985.27L343.064 983.209L344.189 979.461L344.001 976.088L348.124 974.589L347.749 971.59L341.752 968.78L343.439 961.284L343.626 957.161L345.5 952.664L345.875 949.478L342.315 947.23L336.131 948.541L332.008 946.293L334.632 932.801L332.383 928.678L333.507 923.618L336.131 922.119L336.506 918.934L338.754 918.184L339.691 913.312L343.064 916.872L346.25 915.935L348.499 918.746L352.879 919.331L356.282 917.63L358.362 917.819L367.06 911.201L370.652 912.147L373.867 916.495L376.892 919.142L372.732 921.411L372.354 923.869L374.546 927.741L378.481 928.491L382.791 932.801L384.29 939.172L385.227 946.855C385.227 946.855 383.541 943.107 383.728 945.356C383.915 947.604 383.915 947.604 383.915 947.604L383.728 953.976L385.789 960.16L391.411 964.282L391.036 967.093L400.78 970.466L405.09 970.091L411.837 973.652L414.273 972.153C414.273 972.153 420.457 971.59 420.457 972.34C420.457 973.09 420.457 973.09 420.457 973.09L430.95 986.207L428.14 992.016L423.08 996.701L417.083 1000.64L409.213 1005.32L401.905 998.387V994.64L395.908 989.393L389.537 989.018C389.537 989.018 386.914 989.767 389.537 990.142C392.161 990.517 392.161 990.517 392.161 990.517L397.595 993.328L400.031 1000.26L405.653 1005.88L400.406 1021.62L394.597 1035.87L385.04 1047.67L379.231 1050.48L370.236 1059.85L364.614 1065.47L360.117 1067.72H355.619L350.56 1073.16L336.506 1077.84L331.633 1078.59L319.828 1080.28L307.46 1084.96L306.523 1080.84L303.15 1078.97L303.9 1075.22L304.462 1067.16L302.4 1063.22L299.964 1063.04L298.84 1056.85Z" fill="#F6F6F6" stroke="#666666" stroke-width="2" id="WBMEDEAST" name="MEDINIPUR EAST"/>
<path d="M406.316 1024.86L407.174 1017.76L410.728 1008.75L414.955 1005.56L422.491 1003.11L417.283 1012.92L413.362 1019.35L410.605 1022.72L406.316 1024.86Z" fill="#F6F6F6" stroke="#666666" stroke-width="2"/>
<path xmlns="http://www.w3.org/2000/svg" d="M474.774 906.853L473.211 907.244L472.351 904.977L468.808 902.237L468.563 899.297L466.097 896.847L466.019 894.346L463.674 892.235L463.752 887.232L461.407 885.903L457.811 885.825L456.683 882.462L458.546 876.26L458.577 873.81L456.683 868.47L458.573 865.823L455.359 862.23L451.956 861.474L452.334 859.016L454.981 856.747L455.926 853.911V849.562L458.951 849.373L459.312 848.445L458.006 844.457L460.653 842.566L464.624 836.327L464.057 831.789L465.187 826.606L468.079 824.004L474.729 824.582L476.753 828.052L479.934 827.184L482.536 824.871L483.404 828.919H488.609L492.657 830.943L499.597 831.811L501.621 833.835L501.219 837.693L505.091 837.883L507.404 836.148L510.584 836.727L511.634 836.039L510.929 833.098L507.693 829.787L508.479 828.656L507.982 826.028L511.452 824.871L509.139 821.69L508.271 817.642L510.584 815.04L510.295 811.281L513.476 809.835L512.898 804.341L515.211 800.293L510.317 795.235L512.609 794.799L511.542 791.896L512.898 792.775L515.5 788.437L514.526 782.023L517.798 781.819L518.82 777.525L515.957 772.618L516.775 768.12L520.251 767.506L523.367 768.706L522.784 766.501L527.318 766.991L529.034 770.544L534.058 770.422L534.425 763.56C534.425 763.56 536.141 767.113 540.674 767.971C545.208 768.829 543.983 769.074 543.983 769.074L550.845 768.584L554.153 769.932C554.153 769.932 550.232 772.995 553.418 772.995C556.604 772.995 556.604 772.995 556.604 772.995L561.995 772.382L564.201 768.339L566.529 771.402L565.426 776.426L564.691 777.651L561.383 776.058L560.525 778.877L557.339 780.102L556.359 785.493L555.256 788.189L551.825 790.885L548.394 793.213L545.698 794.806V798.727L547.414 801.668L546.434 804.486L547.659 807.059L546.801 809.633L545.331 813.309L546.924 817.475L546.311 820.17L548.394 822.376L549.497 821.641L551.825 823.479V826.052C551.825 826.052 551.702 825.684 552.805 827.032C553.908 828.38 553.908 827.032 553.908 828.38C553.908 829.728 553.908 829.728 553.908 829.728L552.928 830.953L554.153 834.139L553.786 836.345L556.359 836.958L560.647 835.242L562.24 839.041L564.691 841.859L563.833 847.373L563.343 851.294L559.422 853.622L556.971 857.788L557.462 862.567L560.035 867.101L564.078 871.39L561.75 878.497L558.932 880.58L559.545 884.256L564.078 884.991L563.343 887.564L560.893 889.892V895.284L564.201 897.612L567.019 904.596L566.039 905.454L570.328 912.806L571.553 915.624V919.055L572.533 920.403L569.96 923.344L567.754 924.569L569.96 927.388L571.676 928.49L570.328 931.921L571.676 933.759L570.205 939.151L571.553 941.847L576.209 942.704L577.802 947.238L573.268 945.89V948.953L576.944 953.732L580.498 956.06L580.62 959.737L585.767 963.535L587.237 967.456L585.522 970.397L587.605 974.318L589.198 976.279L586.992 977.749L584.542 978.362L577.557 972.48L576.822 965.618L571.676 965.005L565.549 959.369L564.569 956.06L561.138 953.12V951.649L556.726 952.752L554.276 952.63L550.355 950.546L546.434 948.953L545.821 951.772L542.758 952.507L541.777 951.894L539.204 948.586V945.032L539.939 942.582L538.959 941.356L540.429 937.803L541.042 933.514L539.327 931.676L536.386 933.392L533.322 933.759L531.852 929.961L529.034 928.981L525.603 924.447L521.804 923.466L520.211 922.364L519.844 917.707L517.148 916.482L515.065 912.561L510.776 910.723L510.409 906.924L507.468 901.655L505.752 899.45L504.404 897.734L505.507 896.632L503.424 894.548L500.606 891.853L499.381 888.544L495.95 888.177L493.744 885.481L492.396 887.319L491.416 890.137L491.906 893.691L490.436 895.039L488.23 899.327L487.372 902.146L484.799 900.43H482.103L478.182 896.999L476.834 896.386V902.636L475.609 905.454L474.774 906.853Z" fill="#F6F6F6" stroke="#666666" stroke-width="2" id="WBNPRGNS" name="North 24 Parganas"/>
<path xmlns="http://www.w3.org/2000/svg" d="M413.573 949.962V945.046L411.682 940.13L413.384 936.349L416.976 933.134L420.38 931.433L420.569 928.407L417.544 925.76L416.031 921.412V917.819L423.783 917.063L430.59 910.067L433.993 909.689L437.208 907.798L437.408 905.524L439.675 905.915L441.707 904.743L441.786 906.306L444.365 904.899L445.616 906.072V908.417L447.023 910.371L446.632 912.013L446.355 913.419L445.303 913.029L444.834 914.436L443.271 916.078H444.756L444.522 918.188L446.241 918.97V921.315L447.101 921.159L448.899 921.393L449.603 920.455L451.714 920.768L453.355 919.517V918.11L453.98 917.25L455.466 918.11L455.7 920.143L457.733 920.55L460.547 921.237L462.189 919.986L464.534 920.455L464.612 919.204C464.612 919.204 467.281 916.68 467.588 916.183C467.895 915.687 467.895 915.687 467.895 915.687L469.849 913.967L469.146 911.856L470.006 910.293L468.208 908.964L470.318 908.417L471.335 909.589L472.898 909.198L476.103 910.762L477.667 909.746L477.041 908.182L474.774 906.853L476.835 902.636V896.386L478.182 896.999L482.103 900.43H484.799L487.372 902.146L488.23 899.327L490.436 895.039L491.906 893.691L491.416 890.137L492.396 887.319L493.744 885.481L495.95 888.177L499.381 888.544L500.606 891.853L505.507 896.632L504.405 897.734L507.77 902.001L510.409 906.924L510.776 910.723L515.065 912.561L517.148 916.482L519.844 917.707L520.212 922.364L521.804 923.466L525.603 924.447L529.034 928.98L531.852 929.961L533.323 933.759L536.386 933.392L539.327 931.676L541.042 933.514L540.43 937.803L538.959 941.356L539.939 942.582L539.204 945.032V948.586L541.777 951.894L542.758 952.507L545.821 951.772L546.434 948.953L554.276 952.629L556.727 952.752L561.138 951.649L561.293 953.521L564.569 956.06L565.549 959.369L571.676 965.005L576.822 965.618L577.557 972.48L584.542 978.362L581.885 981.565L580.9 988.055L582.033 992.588L587.019 999.84L589.739 1004.37L588.152 1008.68L587.246 1016.16L582.26 1017.06L578.634 1019.1L577.501 1021.82L566.17 1016.61L563.224 1013.66L559.371 1003.47L557.105 1000.97L559.144 1010.49L559.598 1016.16L556.651 1019.1L551.212 1018.65L548.04 1018.88L543.507 1013.44L537.388 1007.09L532.856 1006.19L530.816 1005.73L533.762 1002.33L532.176 997.347L530.589 993.268L525.15 993.721L522.431 989.868L526.963 986.016L528.55 982.163V976.951L525.83 981.03L525.15 983.523L519.032 988.055L517.898 991.681L521.524 995.534L526.057 996.214L527.643 1002.79L522.658 1008.68L519.032 1012.98L512.913 1015.02L509.74 1013.21V1011.4L512.459 1002.11L514.952 992.814L509.74 985.562L511.553 978.99L513.592 973.778L516.992 969.925L515.179 966.526L512.459 971.058L510.873 975.591L508.607 978.763L506.567 983.749L508.153 987.828L508.607 993.947L510.193 998.027L507.474 1001.88L505.661 1005.73L504.074 1009.81L505.434 1017.74L506.794 1020.92L501.355 1027.03L499.768 1033.83L497.502 1039.05L494.783 1038.59L492.063 1033.83L488.437 1030.89L485.038 1026.81H482.998L485.491 1032.47V1037.23L488.21 1041.31L485.718 1044.48H480.958L482.318 1047.43L481.412 1054.91L480.505 1060.35L480.052 1062.84L482.092 1068.51L481.185 1074.4L479.372 1079.39L476.879 1075.76L474.16 1074.17V1071C474.16 1071 471.214 1071.68 472.8 1073.49C474.386 1075.31 472.347 1073.04 474.386 1075.31C476.426 1077.57 476.426 1077.57 476.426 1077.57C476.426 1077.57 472.573 1075.76 472.12 1079.61C471.667 1083.46 471.667 1083.46 471.667 1083.46L468.721 1080.29L468.267 1074.17L466.908 1070.09L468.494 1066.01L470.534 1062.39L470.307 1059.67H468.267L466.001 1056.5L463.282 1058.31L465.321 1060.35H468.041L469.627 1061.48L467.134 1064.43L463.508 1066.24L459.429 1062.84L456.936 1063.29C456.936 1063.29 454.443 1063.52 456.936 1063.52C459.429 1063.52 457.616 1059.22 459.429 1063.52C461.242 1067.83 461.242 1067.83 461.242 1067.83L461.695 1072.81L460.335 1078.48L454.896 1081.42L454.217 1074.4L455.576 1069.41L454.443 1064.88L451.95 1065.56L454.443 1068.73V1072.13L452.177 1074.4L451.27 1077.57L450.817 1080.97L451.27 1083.92L454.443 1086.18L453.083 1089.36L448.778 1091.4L445.605 1091.17L443.565 1089.58L442.659 1088.9L443.339 1085.5L441.752 1082.56L438.806 1080.97L436.54 1081.42L434.273 1076.44L431.781 1068.28L432.007 1064.88L434.273 1061.26L436.993 1054.68L437.673 1049.92L435.86 1044.94L433.367 1039.5L429.061 1033.61L427.928 1029.98L428.381 1025.45L429.514 1021.82L426.115 1017.06V1014.12L429.061 1010.94L434.727 1001.88L436.54 994.401V986.695L434.047 979.67L433.594 975.817L429.514 971.738L425.662 969.245H420.903L415.917 967.659L409.571 967.885V967.206L411.384 962.9L412.064 957.687C412.064 957.687 415.088 954.534 413.573 949.962Z" fill="#F6F6F6" stroke="#666666" stroke-width="2" id="WBSPRGNS" name="South 24 Parganas"/>
<path xmlns="http://www.w3.org/2000/svg" d="M422.398 1031.72L420.475 1033.49L419.032 1037.09L415.908 1042.22L413.744 1047.59L412.382 1049.43L411.501 1053.2L411.18 1057.52L408.135 1061.53L407.414 1064.01L406.052 1066.98L406.293 1073.47L408.616 1076.11L412.943 1077.71L418.391 1079.32L424.24 1078.19L425.683 1075.87L426.804 1074.83L427.445 1069.7L425.923 1068.02L427.045 1064.41L428.086 1061.05L428.888 1055.84L428.808 1049.51L427.846 1047.99L428.327 1044.22L428.727 1041.82L426.003 1039.25L423.68 1034.61L422.398 1031.72Z" fill="#F6F6F6" stroke="#666666" stroke-width="2" id="WBSPRGNS" name="South 24 Parganas"/>
<path xmlns="http://www.w3.org/2000/svg" d="M486.057 1090.72L485.944 1085.73C485.944 1085.73 486.17 1083.92 488.21 1082.22C490.25 1080.52 490.25 1080.52 490.25 1080.52L492.856 1076.21L492.629 1073.04L493.989 1071.45L493.876 1066.47L491.836 1061.82L491.156 1058.54L488.777 1052.3L489.343 1050.15L488.777 1048.68L490.93 1045.5L493.989 1042.67L496.822 1042.22L501.014 1045.39L502.488 1047.54L504.98 1046.41L507.36 1045.84L509.74 1048.56L510.306 1050.49L511.553 1053.44L510.533 1055.82L509.626 1059.22L507.927 1061.26L505.32 1061.48L505.774 1064.65L506.793 1066.35L506.34 1069.19L504.301 1070.43L506.114 1073.27L507.247 1076.67L504.867 1079.5L503.734 1082.22L503.281 1085.84L500.561 1087.77L496.822 1088.68L495.235 1091.62L493.309 1093.66L488.89 1092.53L486.057 1090.72Z" fill="#F6F6F6" stroke="#666666" stroke-width="2" id="WBSPRGNS" name="South 24 Parganas"/>
<path xmlns="http://www.w3.org/2000/svg" d="M507.65 1043.42L503.163 1042.62C503.163 1042.62 501.24 1041.18 501.24 1040.38C501.24 1039.57 501.24 1039.57 501.24 1039.57L504.925 1030.12L508.932 1024.99L511.656 1020.18L515.342 1022.27L514.701 1026.75L513.098 1035.41V1040.54L513.419 1044.86L511.175 1045.82L507.65 1043.42Z" fill="#F6F6F6" stroke="#666666" stroke-width="2" id="WBSPRGNS" name="South 24 Parganas"/>
<path xmlns="http://www.w3.org/2000/svg" d="M527.04 1008.81C527.04 1008.81 528.161 1012.81 527.841 1014.58C527.52 1016.34 527.36 1016.18 527.36 1016.18L526.559 1019.38L525.918 1021.31L525.437 1024.19L524.636 1027.56L523.194 1030.76C523.194 1030.76 525.117 1030.76 524.155 1032.04C523.194 1033.32 523.194 1033.33 523.194 1033.33L522.713 1036.69L525.117 1037.49L524.476 1040.06C524.476 1040.06 526.238 1039.74 525.918 1041.82C525.597 1043.9 525.437 1044.06 525.437 1044.06L524.796 1048.39L523.194 1052.07L523.835 1055.28C523.835 1055.28 524.476 1056.08 524.956 1058.48C525.437 1060.89 525.437 1060.89 525.437 1060.89L522.553 1063.45L522.873 1066.66L528.161 1072.43L527.841 1075.31L526.559 1079.8V1084.44L531.206 1086.53L537.135 1084.44L542.263 1083L538.898 1079C538.898 1079 536.334 1076.59 536.815 1074.99C537.296 1073.39 537.296 1073.39 537.296 1073.39L539.058 1069.06C539.058 1069.06 540.34 1067.46 542.103 1069.06C543.866 1070.66 543.866 1070.66 543.866 1070.66L543.545 1073.39L547.071 1075.95L549.955 1075.63L552.519 1073.23L551.878 1068.1L548.513 1062.01L549.635 1056.4C549.635 1056.4 548.513 1054.32 550.436 1052.39C552.359 1050.47 552.359 1050.47 552.359 1050.47C552.359 1050.47 549.154 1048.71 548.193 1048.71C547.231 1048.71 547.231 1048.71 547.231 1048.71L545.308 1044.06L546.43 1039.73C546.43 1039.73 545.148 1040.7 544.827 1038.13C544.507 1035.57 544.507 1035.57 544.507 1035.57L545.308 1032.52L547.391 1027.72L547.552 1025.79L544.827 1023.55L542.744 1022.59L541.462 1020.51L540.821 1017.78L541.783 1015.38L540.501 1012.97L536.655 1008.97L534.251 1008.01H532.007L527.04 1008.81Z" fill="#F6F6F6" stroke="#666666" stroke-width="2" id="WBSPRGNS" name="South 24 Parganas"/>
<path xmlns="http://www.w3.org/2000/svg" d="M548.674 1079L547.872 1082.84L547.231 1084.44L548.674 1087.65L554.763 1090.21L560.212 1088.93L561.333 1088.45L559.891 1085.25L557.968 1083.16L554.923 1081.24L552.039 1080.92L548.674 1079Z" fill="#F6F6F6" stroke="#666666" stroke-width="2" id="WBSPRGNSWB5" name="South 24 Parganas"/>
<path xmlns="http://www.w3.org/2000/svg" d="M544.347 1018.1L547.391 1020.35L550.757 1021.31L553.321 1020.02C553.321 1020.02 556.205 1021.47 557.968 1020.67C559.731 1019.86 558.128 1021.15 559.731 1019.86C561.333 1018.58 561.333 1018.58 561.333 1018.58L563.416 1018.74L568.704 1021.31L573.352 1024.19L577.198 1025.95L581.364 1028.2L581.685 1033.97L579.441 1038.45C579.441 1038.45 580.403 1040.7 579.922 1042.62C579.441 1044.54 579.441 1044.38 579.441 1044.38C579.441 1044.38 579.601 1045.18 580.403 1047.27C581.204 1049.35 581.204 1049.35 581.204 1049.35L585.851 1053.2L588.736 1056.72C588.736 1056.72 591.78 1059.77 590.819 1060.73C589.857 1061.69 589.857 1061.85 589.857 1061.85L593.863 1066.02C593.863 1066.02 594.665 1067.62 594.504 1069.7C594.344 1071.78 595.947 1070.18 594.344 1071.78C592.742 1073.39 592.742 1073.39 592.742 1073.39L589.216 1075.63L586.172 1074.99L584.409 1073.71L582.165 1071.62L582.646 1072.91L584.249 1075.63L581.685 1079.16L578.159 1079.32L576.717 1075.79L575.275 1076.75L571.909 1077.07L569.025 1073.71L567.743 1069.86L569.345 1065.7L569.185 1062.49L568.224 1059.93C568.224 1059.93 565.499 1058.96 564.057 1058.32C562.615 1057.68 562.615 1057.68 562.615 1057.68C562.615 1057.68 564.538 1058.48 565.82 1061.69C567.102 1064.89 567.102 1063.29 567.102 1063.29L564.217 1074.03C564.217 1074.03 564.538 1073.07 561.173 1070.98C557.808 1068.9 557.647 1068.9 557.647 1068.9C557.647 1068.9 559.25 1067.62 557.327 1064.73C555.404 1061.85 555.404 1061.85 555.404 1061.85C555.404 1061.85 554.603 1058.8 555.404 1056.08C556.205 1053.36 556.205 1053.36 556.205 1053.36L555.564 1049.51L553.641 1047.11L548.353 1045.18C548.353 1045.18 548.193 1046.63 548.673 1042.62C549.154 1038.61 549.154 1038.61 549.154 1038.61C549.154 1038.61 546.911 1036.05 547.552 1033.97C548.193 1031.88 546.27 1033.65 548.193 1031.88C550.116 1030.12 550.116 1030.12 550.116 1030.12L550.757 1025.31L547.872 1022.59L544.347 1018.1Z" fill="#F6F6F6" stroke="#666666" stroke-width="2" id="WBSPRGNS" name="South 24 Parganas"/>

<path xmlns="http://www.w3.org/2000/svg" d="M362.585 459.109L364.445 463.674M364.445 463.674L369.179 468.238L372.391 472.465L375.434 477.199L377.125 479.397L377.801 485.145L376.787 491.231L380.506 495.796L384.564 497.825L388.974 500.32L393.517 505.581L396.625 511.319L399.494 516.101L404.754 522.317C404.754 522.317 407.863 527.577 409.775 528.056C411.688 528.534 405.711 524.947 411.688 528.534C417.666 532.12 417.666 532.12 417.666 532.12C417.666 532.12 417.187 534.75 420.057 535.946C422.926 537.141 422.926 537.141 422.926 537.141L429.859 536.902L433.924 540.488L438.228 545.749L444.922 550.291L454.964 552.204L461.898 548.857L467.158 552.443L474.331 556.747L477.679 556.269L480.548 561.768L481.982 564.876L485.808 558.421L489.155 562.007L493.698 561.29L497.523 563.442L500.632 561.29H506.37L510.913 563.203L514.499 568.463V573.723V582.091V587.351L516.651 589.742L518.086 594.524L513.304 598.35C513.304 598.35 506.848 598.589 507.565 599.067C508.283 599.545 508.044 596.915 508.283 599.545C508.522 602.175 508.522 602.414 508.522 602.414L506.37 605.522H502.784L504.457 607.196C504.457 607.196 500.154 607.196 500.154 607.674C500.154 608.152 500.154 608.152 500.154 608.152C500.154 608.152 501.588 608.392 500.154 611.978C498.719 615.564 498.48 615.564 498.48 615.564L497.284 617.477L500.871 618.194L499.675 622.02C499.675 622.02 499.914 624.889 497.763 625.367C495.611 625.845 495.85 625.845 495.85 625.845L490.59 622.737L488.916 616.282L484.612 614.608H482.221L482.7 620.585L480.787 624.889H476.244L478.157 627.997L477.2 632.779L475.288 632.54L472.658 634.692V636.366C472.658 636.366 471.701 633.257 469.788 634.692C467.876 636.127 467.637 636.127 467.637 636.127V638.757L472.897 639.713L476.244 642.104V645.929L473.853 644.017L471.223 642.343L468.832 645.212L470.267 648.56L470.984 653.102L470.267 655.015L471.223 657.645L466.202 658.602C466.202 658.602 468.593 655.015 467.397 653.581C466.202 652.146 466.202 652.146 466.202 652.146H463.572C463.572 652.146 464.289 653.341 463.572 656.211C462.855 659.08 462.855 659.08 462.855 659.08L459.985 662.666L458.551 658.123L454.964 660.036L450.9 657.645H448.748L447.313 660.753H442.531L438.945 661.232L434.641 660.514L433.446 663.144H429.62L429.142 665.774L429.62 669.6L428.186 671.513L424.599 670.556L422.208 669.839L419.1 671.035L415.514 673.425L414.557 677.968L410.971 675.816H409.536V673.186C409.536 673.186 409.775 673.425 407.145 673.425C404.515 673.425 404.276 673.425 404.276 673.425L402.363 678.686L397.821 678.925L395.908 675.816L393.517 671.513L393.995 670.078L397.342 667.687L391.843 664.579L391.365 659.08L387.54 655.254L385.149 657.406L381.084 655.971L381.562 659.319L380.606 662.666V664.34L377.498 662.427L373.433 659.08L373.672 657.645L370.803 655.971L367.695 658.602L366.738 651.907L364.826 655.254L362.913 651.429L360.044 648.799L358.609 643.539L360.522 641.387L362.674 641.626V635.887L359.805 632.779L361.956 629.671L360.044 627.041L362.435 625.367L360.044 620.346L362.913 620.107L363.63 618.194L366.499 617.955L367.695 609.109L369.129 606.718L366.021 603.61L369.607 599.306L367.216 597.632L368.412 594.285L373.911 591.416L371.759 588.547L373.911 587.829L377.976 589.981L382.28 588.308L383.236 584.96L385.866 584.243L383.714 581.374L384.431 578.744H387.061L389.452 578.026L388.735 575.396C388.735 575.396 386.822 573.723 386.822 571.332C386.822 568.941 386.822 568.702 386.822 568.702V564.876L384.67 563.92L382.519 565.593V563.442C382.519 563.442 382.279 561.29 379.649 560.812C377.019 560.333 377.019 560.333 377.019 560.333L376.302 556.269L377.976 553.878L378.215 547.9L379.171 544.792C379.171 544.792 377.737 542.401 377.976 539.293C378.215 536.185 378.215 536.185 378.215 536.185L376.541 532.359L373.672 530.925L369.847 522.317L365.304 521.122L364.586 517.057L364.108 513.949L366.977 512.993L366.738 508.45C366.738 508.45 362.913 510.602 361.956 508.45C361 506.298 361 506.298 361 506.298C361 506.298 361.717 504.146 363.63 504.146C365.543 504.146 365.782 504.146 365.782 504.146L366.977 498.408C366.977 498.408 361.956 498.169 362.435 496.256C362.913 494.343 363.152 493.865 363.152 493.865L365.304 489.322L362.674 486.453L360.761 483.584L358.609 484.779L354.305 483.584L349.523 480.476L351.197 478.324L353.11 474.02V478.085L356.696 478.563L357.653 474.259L359.565 473.303L357.892 468.282V467.564L361.956 467.803L364.445 463.674Z" stroke="#666666" stroke-width="2" fill="#f6f6f6" id="WBMRSHD" name="Murshidabad"/>
</svg>